<?xml version="1.0" standalone="no"?>
<!DOCTYPE svg PUBLIC "-//W3C//DTD SVG 20010904//EN"
 "http://www.w3.org/TR/2001/REC-SVG-20010904/DTD/svg10.dtd">
<svg version="1.0" xmlns="http://www.w3.org/2000/svg"
 width="840.000000pt" height="534.000000pt" viewBox="0 0 840.000000 534.000000"
 preserveAspectRatio="xMidYMid meet">

<g transform="translate(0.000000,534.000000) scale(0.100000,-0.100000)"
fill="#000000" stroke="none">
<path d="M0 2670 l0 -2670 4200 0 4200 0 0 2670 0 2670 -2785 0 c-1532 0
-2785 -3 -2785 -6 0 -3 12 -29 26 -58 42 -82 46 -96 28 -96 -11 0 -13 6 -9 20
5 15 2 20 -10 20 -11 0 -15 5 -12 14 3 8 -1 17 -9 20 -8 3 -14 12 -14 21 0 9
-7 27 -16 40 -15 22 -23 25 -80 25 -35 0 -64 -2 -64 -6 0 -3 27 -52 61 -110
33 -58 59 -108 56 -110 -3 -3 -36 46 -73 108 l-69 113 -1323 3 -1322 2 0
-2670z m2920 2469 c0 -12 -27 -11 -35 1 -11 17 5 32 21 19 8 -6 14 -15 14 -20z
m11 -44 c4 3 11 -7 15 -22 4 -15 10 -32 14 -38 9 -13 22 -65 15 -65 -2 0 -11
14 -20 30 -9 17 -13 30 -10 30 3 0 -5 15 -19 33 -14 19 -23 37 -19 41 4 4 9 2
11 -3 2 -6 8 -9 13 -6z m-121 -5 c0 -5 -2 -10 -4 -10 -3 0 -8 5 -11 10 -3 6
-1 10 4 10 6 0 11 -4 11 -10z m2963 -1762 c108 -7 197 -16 197 -20 0 -4 -3 -8
-7 -9 -165 -11 -321 -20 -493 -29 -118 -5 -249 -14 -290 -20 -78 -10 -650 -57
-778 -64 -41 -2 -75 1 -78 6 -4 6 -10 5 -15 -3 -6 -10 -36 -14 -114 -14 -58 0
-105 -3 -105 -8 0 -4 -7 -4 -16 1 -18 10 -55 4 -65 -11 -7 -10 -49 53 -49 75
0 16 -8 15 345 38 88 6 219 17 290 26 371 43 808 55 1178 32z m242 -67 c-11
-5 -76 -11 -145 -15 -69 -4 -183 -13 -255 -21 -71 -8 -420 -46 -775 -85 -355
-38 -676 -74 -713 -78 -37 -5 -70 -5 -73 -1 -7 12 12 15 371 54 182 20 447 49
590 65 388 44 723 79 785 83 113 7 235 6 215 -2z m-2289 -66 c24 -33 18 -51
-18 -52 -41 -1 -281 -22 -328 -28 -19 -3 -82 -10 -139 -15 -57 -6 -107 -12
-110 -14 -3 -2 -12 2 -19 10 -11 12 -10 15 5 20 10 4 45 17 78 29 129 50 284
75 438 71 65 -1 81 -5 93 -21z m-723 -122 c-7 -2 -13 -12 -13 -20 0 -9 -3 -14
-6 -10 -10 10 4 37 18 36 10 0 10 -2 1 -6z m814 -39 c-8 -8 -339 -44 -397 -43
-26 1 2 7 65 15 61 7 139 17 175 22 78 11 166 14 157 6z"/>
</g>
</svg>
