<?xml version="1.0" standalone="no"?>
<!DOCTYPE svg PUBLIC "-//W3C//DTD SVG 20010904//EN"
 "http://www.w3.org/TR/2001/REC-SVG-20010904/DTD/svg10.dtd">
<svg version="1.0" xmlns="http://www.w3.org/2000/svg"
 width="840.000000pt" height="534.000000pt" viewBox="0 0 840.000000 534.000000"
 preserveAspectRatio="xMidYMid meet">

<g transform="translate(0.000000,534.000000) scale(0.100000,-0.100000)"
fill="#000000" stroke="none">
<path d="M6280 5320 c-25 -25 -16 -49 19 -56 15 -3 32 -13 38 -23 9 -14 5 -20
-18 -34 -27 -15 -29 -15 -29 2 0 9 -6 25 -12 34 -12 15 -15 14 -34 -8 -18 -20
-20 -26 -8 -36 16 -13 19 -39 5 -39 -5 0 -11 -10 -13 -21 -2 -12 -14 -26 -27
-31 -21 -8 -22 -7 -10 8 13 16 12 16 -8 6 -30 -16 -36 -29 -17 -36 14 -5 28 1
96 40 11 7 25 17 31 23 7 7 14 7 24 -1 11 -8 12 -7 7 6 -3 9 -2 16 4 16 21 0
83 72 77 90 -7 23 13 36 28 21 9 -9 8 -11 -4 -6 -13 5 -15 0 -11 -23 3 -26 7
-28 40 -27 52 3 68 12 82 45 13 31 69 77 57 47 -4 -10 3 -16 24 -21 17 -3 29
-12 29 -21 0 -20 -20 -19 -35 2 -7 10 -17 13 -25 8 -10 -6 -8 -10 9 -17 16 -6
22 -14 18 -27 -3 -14 0 -17 14 -14 11 3 19 9 19 13 0 4 15 13 33 21 17 7 35
18 39 23 4 6 6 1 6 -11 -1 -12 -7 -19 -15 -16 -20 8 -16 -3 11 -30 16 -16 41
-27 73 -31 32 -4 42 -3 28 3 -11 5 -14 10 -7 10 16 1 15 13 -2 36 -12 16 -16
17 -30 6 -24 -20 -21 7 4 34 12 13 18 29 14 38 -5 15 -24 17 -129 17 -68 0
-126 -4 -129 -9 -3 -5 -15 -7 -26 -4 -17 4 -20 0 -20 -24 0 -16 5 -34 12 -41
9 -9 8 -12 -5 -12 -9 0 -17 5 -17 11 0 6 -9 9 -20 6 -23 -6 -27 8 -5 17 9 3
12 12 8 22 -3 9 0 20 8 25 9 6 -6 9 -43 9 -54 0 -75 -11 -45 -23 9 -4 8 -8 -3
-16 -10 -7 -17 -7 -21 1 -4 6 -12 7 -20 3 -9 -6 -11 -3 -6 9 6 14 3 16 -14 11
-15 -5 -19 -4 -15 4 12 19 -13 12 -34 -9z m20 -144 c0 -3 -4 -8 -10 -11 -5 -3
-10 -1 -10 4 0 6 5 11 10 11 6 0 10 -2 10 -4z"/>
<path d="M6822 5294 c0 -37 5 -48 19 -51 11 -3 19 -9 19 -14 0 -34 104 -26
114 9 3 11 5 8 4 -8 -1 -41 1 -43 19 -29 15 12 16 12 10 -4 -4 -10 -7 -24 -7
-31 0 -7 -18 -12 -45 -14 -35 -1 -47 3 -59 19 -15 22 -36 18 -36 -7 0 -8 -7
-14 -16 -14 -8 0 -12 -5 -9 -10 4 -6 -3 -9 -17 -6 -14 2 -22 9 -20 19 2 11
-10 17 -40 22 -43 8 -50 3 -78 -45 -14 -24 -21 -5 -10 25 6 15 8 30 6 33 -10
9 -56 10 -61 2 -3 -5 -12 -7 -20 -3 -9 3 -27 -2 -41 -12 -30 -20 -54 -13 -54
15 0 11 -5 20 -11 20 -7 0 -9 -9 -5 -23 4 -18 1 -23 -15 -24 -11 -1 -23 5 -26
13 -5 13 -8 13 -29 -1 -30 -19 -35 -19 -28 3 5 16 5 16 -9 0 -8 -10 -19 -18
-24 -18 -6 0 -13 -13 -16 -29 -4 -20 -12 -29 -24 -29 -34 3 -94 -13 -88 -23 4
-6 13 -5 25 1 23 13 52 14 32 2 -7 -5 -10 -16 -6 -25 3 -10 1 -17 -6 -17 -6 0
-8 5 -5 10 7 11 -27 13 -62 4 -13 -4 -20 -11 -16 -20 7 -19 23 -18 23 1 0 8 7
15 16 15 8 0 13 -4 9 -9 -3 -5 -1 -12 5 -16 17 -10 11 -28 -7 -21 -16 6 -16 6
0 -12 16 -18 16 -19 -5 -16 -13 1 -25 3 -28 4 -3 1 -9 2 -14 1 -4 -1 -15 4
-23 10 -11 10 -11 14 -1 20 9 6 4 9 -14 9 -16 0 -28 5 -28 10 0 6 5 10 12 10
8 0 9 3 2 10 -23 23 -60 -13 -48 -45 7 -17 24 -20 24 -4 0 5 5 7 10 4 6 -4 7
-12 3 -18 -10 -16 -11 -47 -2 -52 4 -3 9 2 13 10 6 17 42 20 51 5 3 -5 0 -8
-7 -5 -7 2 -22 -7 -32 -22 l-19 -26 25 6 c15 4 32 1 44 -8 17 -13 17 -14 2
-15 -10 0 -18 6 -18 13 0 9 -3 8 -9 -2 -5 -7 -13 -11 -17 -8 -13 7 -70 -41
-60 -50 5 -4 11 -2 13 5 3 6 9 12 14 12 6 0 9 -6 7 -12 -4 -21 12 -68 22 -68
9 0 14 22 11 43 0 4 5 7 13 7 8 0 22 3 31 7 14 5 16 2 10 -15 -9 -30 9 -28 33
3 25 32 46 33 36 3 -11 -37 -25 -48 -53 -43 -14 3 -20 2 -13 -1 21 -10 13 -21
-13 -16 -26 5 -31 -3 -16 -27 9 -14 38 -4 72 26 15 12 19 11 37 -11 11 -15 30
-26 42 -26 16 0 20 -4 15 -19 -3 -10 -6 -34 -7 -54 -1 -34 -2 -35 -22 -21 -11
7 -30 14 -41 14 -11 0 -25 10 -30 22 -6 13 -23 27 -40 32 -16 4 -37 12 -45 17
-8 5 -23 12 -32 15 -12 4 -18 17 -18 36 0 16 -6 36 -14 44 -13 12 -17 11 -30
-8 -27 -39 -14 -78 26 -78 13 0 18 -8 18 -31 0 -27 -2 -30 -15 -19 -9 7 -13
15 -10 18 9 10 -40 28 -63 24 -17 -3 -20 -8 -13 -15 17 -17 13 -27 -9 -27 -11
0 -20 -7 -20 -16 0 -8 4 -13 9 -9 17 10 22 -15 8 -36 -8 -11 -16 -17 -18 -12
-2 4 -19 16 -36 26 -32 18 -33 18 -33 -2 0 -12 -4 -21 -10 -21 -5 0 -10 -6
-10 -14 0 -8 -5 -16 -11 -18 -14 -5 0 -38 16 -38 18 0 30 20 13 21 -7 0 -4 4
7 8 11 5 30 5 42 0 16 -6 28 -2 51 19 16 15 32 36 36 46 6 18 7 18 19 1 17
-22 53 -16 49 8 -2 14 2 16 22 11 19 -4 26 -1 31 17 7 21 8 21 21 -9 7 -18 19
-32 26 -32 8 0 7 -5 -5 -17 -9 -9 -33 -17 -53 -17 -45 -1 -54 -19 -21 -41 29
-19 81 -11 73 11 -3 8 -1 14 4 14 6 0 10 -4 10 -10 0 -5 7 -10 15 -10 9 0 15
-9 15 -25 0 -27 26 -75 41 -75 5 0 15 14 24 30 19 37 25 37 64 4 18 -14 29
-19 25 -11 -7 18 9 29 30 21 14 -5 10 -11 -16 -31 -18 -13 -34 -19 -36 -13 -6
17 -41 11 -62 -10 -21 -21 -35 -27 -26 -11 8 12 -48 24 -73 16 -12 -3 -25 -23
-34 -48 -9 -27 -23 -47 -43 -57 -16 -10 -29 -25 -29 -36 0 -10 -4 -22 -8 -25
-9 -7 1 -59 12 -59 3 0 21 16 40 35 22 23 43 35 60 35 22 -1 24 -2 9 -11 -10
-5 -18 -19 -18 -30 0 -11 -5 -29 -10 -40 -9 -16 -5 -21 32 -38 24 -11 51 -22
62 -25 16 -6 18 -13 12 -58 -4 -29 -12 -58 -17 -64 -7 -8 -6 -13 2 -16 7 -2 9
-10 5 -16 -10 -16 -29 -15 -21 1 4 6 -6 -3 -22 -21 -15 -18 -34 -32 -40 -32
-7 0 -13 -7 -13 -15 0 -8 -18 -22 -40 -31 -22 -9 -40 -22 -40 -30 0 -8 -8 -14
-17 -15 -11 0 -13 -3 -5 -6 6 -2 12 -9 12 -14 0 -14 -28 -11 -33 4 -5 16 -37
-9 -37 -30 0 -15 -7 -15 -55 2 -16 5 -15 3 3 -7 25 -16 20 -28 -12 -28 -20 -1
2 -13 84 -47 20 -8 10 -10 -57 -11 -45 -1 -85 3 -88 8 -4 6 1 7 11 3 12 -5 15
-3 9 6 -5 10 -2 11 14 6 12 -4 21 -2 21 4 0 6 -6 11 -14 11 -9 0 -12 8 -8 25
5 27 -7 32 -37 15 -25 -13 -34 -39 -20 -56 14 -18 -27 -28 -82 -21 -44 6 -47
1 -20 -45 25 -42 65 -211 58 -245 l-5 -26 106 7 c122 8 360 -3 340 -15 -7 -5
-34 -9 -59 -9 -25 0 -48 -3 -52 -6 -6 -7 -192 -18 -262 -16 -25 1 -35 -2 -27
-7 8 -5 -16 -9 -60 -10 -101 -3 -98 -3 -98 -18 0 -7 -10 -13 -22 -13 -17 0
-19 -3 -10 -12 19 -19 14 -29 -8 -16 -11 7 -25 25 -31 41 -14 33 -30 31 -40
-5 -5 -19 -3 -25 5 -22 6 2 12 -4 12 -15 0 -16 -4 -17 -23 -8 -13 6 -23 14
-23 19 0 5 -5 6 -10 3 -18 -11 -69 5 -74 23 -2 9 -3 4 -2 -13 2 -27 10 -33 72
-59 l69 -30 1032 0 c568 0 1036 4 1040 7 14 15 -10 19 -119 24 -308 12 -308
12 -308 36 -1 66 -21 81 -103 78 -33 -1 -53 4 -64 15 -12 12 -26 14 -52 9 -20
-4 -76 -8 -124 -9 -48 -2 -93 -8 -99 -14 -8 -8 -19 -7 -42 5 -17 9 -54 17 -83
18 -29 1 -56 5 -60 9 -5 4 30 7 77 5 134 -3 250 2 256 12 3 5 -9 9 -25 9 -17
0 -31 3 -31 7 0 29 57 183 76 206 33 39 31 65 -3 73 -37 7 -71 24 -108 50 -16
12 -46 24 -66 28 -42 7 -95 31 -122 55 -15 12 -22 13 -37 3 -18 -11 -27 -11
-67 5 -10 3 -26 5 -35 4 -9 -1 -19 6 -22 16 -3 10 -21 27 -39 39 -27 18 -35
33 -50 91 -10 38 -17 93 -16 123 1 30 -1 71 -5 90 -5 23 -3 41 6 52 15 19 93
53 82 36 -5 -7 0 -9 14 -6 15 4 22 2 22 -8 0 -16 -26 -19 -35 -4 -12 19 -26
11 -15 -9 5 -11 10 -31 10 -44 0 -35 23 -52 44 -32 12 13 14 21 5 37 -14 27
-2 36 16 12 15 -19 15 -19 34 4 26 30 35 28 27 -5 l-6 -28 19 23 c11 12 21 22
24 22 3 0 8 -10 11 -22 l7 -23 16 23 c19 28 31 28 60 0 13 -12 26 -19 29 -15
11 10 -4 35 -31 53 -21 14 -28 14 -41 3 -22 -18 -39 9 -18 32 18 20 18 39 -1
39 -24 0 -17 26 11 45 24 15 27 15 43 0 26 -23 82 -37 97 -24 24 20 26 60 5
81 -24 22 -29 47 -6 28 8 -7 15 -9 15 -4 0 5 7 -2 16 -14 11 -16 24 -22 42
-20 32 3 54 17 46 29 -3 5 0 9 5 9 6 0 11 -7 11 -15 0 -8 5 -15 11 -15 5 0 8
4 5 9 -3 4 2 17 10 27 11 14 17 15 20 7 3 -7 13 -13 22 -13 10 0 1 -14 -27
-41 -26 -25 -40 -47 -37 -56 3 -8 6 -21 6 -29 0 -20 38 -9 65 18 l20 20 -25
-7 c-23 -6 -22 -3 10 24 41 36 57 40 36 9 -9 -12 -16 -30 -16 -39 0 -10 -20
-30 -45 -46 -24 -15 -44 -36 -45 -45 0 -24 26 -23 43 2 l14 21 6 -21 c11 -41
57 -8 57 41 0 16 4 29 10 29 16 0 23 46 10 70 -9 17 -17 20 -43 15 -30 -6 -31
-5 -13 10 11 8 28 15 38 15 22 0 23 18 1 42 -9 11 -11 18 -5 18 7 0 17 -9 24
-20 7 -11 18 -20 25 -20 9 0 11 -13 7 -42 -6 -54 7 -78 35 -61 32 20 44 -6 36
-78 -6 -47 -4 -63 6 -70 27 -17 39 -9 39 25 0 25 5 35 20 39 24 6 27 35 5 44
-9 3 -25 -3 -35 -12 -19 -18 -20 -17 -20 15 0 30 2 32 28 26 20 -5 23 -4 12 3
-13 9 -12 13 7 32 12 12 33 23 47 25 25 3 25 2 11 -26 -14 -27 -13 -28 11 -34
14 -4 34 -4 45 -1 16 5 18 1 16 -32 -2 -34 0 -38 23 -38 14 0 27 -3 30 -6 3
-4 15 -9 27 -13 21 -7 22 -5 12 23 -10 30 -19 35 -46 32 -16 -2 -17 11 -1 27
8 8 17 8 31 0 17 -9 19 -8 12 8 -4 11 -7 32 -6 48 2 29 -15 59 -28 51 -4 -2
-8 2 -8 10 0 8 4 15 9 15 5 0 6 5 3 10 -4 6 6 10 24 10 38 0 46 13 22 34 -16
14 -20 15 -30 2 -13 -16 -93 -16 -98 0 -2 6 8 16 22 24 54 29 22 84 -51 89 -6
1 -11 13 -12 29 -2 44 -38 135 -62 154 -22 18 -22 18 -2 18 12 0 24 5 27 10
11 18 21 11 30 -22 9 -31 57 -69 70 -57 3 3 2 23 -3 45 -7 35 -11 39 -45 45
-49 8 -55 16 -23 30 32 15 32 22 4 49 -23 21 -54 19 -74 -6 -15 -18 -24 -18
-24 1 0 9 -8 19 -17 22 -10 4 -20 10 -23 14 -3 4 -22 4 -42 0 -35 -8 -48 -6
-48 8 0 3 16 6 36 7 37 1 56 17 51 44 -1 8 -12 16 -23 18 -12 2 -26 14 -32 27
-13 29 -39 24 -52 -10 -11 -30 -37 -27 -61 7 -11 15 -27 28 -35 28 -8 0 -14 9
-14 19 0 11 -5 21 -12 23 -8 3 -8 9 0 24 10 18 11 18 17 2 4 -10 11 -15 16
-12 5 3 9 -4 9 -16 0 -12 7 -28 15 -37 30 -29 58 22 39 71 -7 19 -31 21 -36 4
-3 -9 -10 -8 -22 5 -11 10 -27 16 -40 13 -11 -3 -9 0 7 6 30 13 32 35 5 52
-13 8 -23 8 -38 -2 -24 -15 -33 -15 -24 -1 3 6 0 15 -7 20 -10 6 -2 9 24 9 26
0 37 4 37 15 0 12 -18 15 -105 15 l-104 0 1 -46z m128 25 c0 -5 -4 -9 -10 -9
-5 0 -7 -13 -3 -30 7 -36 -3 -38 -54 -8 -31 19 -34 23 -18 27 11 2 23 8 27 15
7 13 58 18 58 5z m-372 -181 c9 -9 15 -9 24 0 7 7 21 12 32 12 19 0 19 -1 -2
-20 -20 -19 -25 -20 -62 -7 -22 7 -37 16 -33 20 10 11 28 8 41 -5z m-52 -22
c17 -18 19 -32 2 -18 -13 10 -18 12 -40 12 -9 0 -8 4 2 10 19 12 19 13 36 -4z
m-66 -16 c0 -5 -8 -10 -17 -10 -15 0 -16 2 -3 10 19 12 20 12 20 0z m155 -44
c-24 -10 -24 -10 -3 -20 26 -13 31 -26 18 -46 -9 -13 -11 -13 -20 0 -6 9 -10
10 -10 3 0 -6 7 -19 16 -27 8 -9 12 -16 8 -16 -3 0 -1 -6 5 -14 6 -7 9 -20 5
-29 -4 -11 2 -16 22 -19 24 -2 30 -9 37 -40 6 -24 15 -38 25 -38 20 0 52 -29
52 -48 0 -13 -3 -12 -19 2 -16 15 -19 15 -24 1 -10 -24 -29 -18 -22 8 5 19 4
20 -7 7 -7 -8 -20 -17 -28 -19 -8 -2 -23 -6 -33 -9 -15 -4 -18 0 -15 19 2 18
10 25 32 27 22 3 26 6 15 13 -10 6 -10 9 -1 9 6 0 12 11 12 25 0 30 -20 33
-27 5 -7 -28 -23 -25 -23 5 0 20 -28 49 -41 42 -2 -1 1 3 7 8 8 7 9 16 3 28
-6 9 -7 22 -4 27 8 13 -1 13 -26 0 -12 -7 -25 -7 -36 -2 -14 8 -12 11 12 23
16 8 31 20 33 28 3 9 0 11 -8 6 -10 -6 -12 -3 -7 11 5 14 1 12 -17 -8 l-24
-27 -6 24 c-11 44 21 78 51 54 7 -7 17 -8 21 -4 4 4 1 10 -5 12 -7 3 -13 9
-13 14 0 5 16 1 35 -9 l34 -17 -24 -9z m464 25 c25 -16 -6 -41 -50 -41 -42 0
-50 14 -21 36 20 16 51 18 71 5z m-366 -16 c9 -21 -9 -28 -27 -9 -21 20 -20
24 3 24 10 0 21 -7 24 -15z m-353 1 c0 -3 -4 -8 -10 -11 -5 -3 -10 -1 -10 4 0
6 5 11 10 11 6 0 10 -2 10 -4z m606 -37 c1 -26 1 -28 -3 -6 -2 15 -11 27 -19
27 -8 0 -12 5 -9 11 13 20 30 2 31 -32z m164 10 c0 -5 -7 -9 -15 -9 -15 0 -20
12 -9 23 8 8 24 -1 24 -14z m-800 -3 c0 -3 -4 -8 -10 -11 -5 -3 -10 -1 -10 4
0 6 5 11 10 11 6 0 10 -2 10 -4z m520 0 c0 -3 -4 -8 -10 -11 -5 -3 -10 -1 -10
4 0 6 5 11 10 11 6 0 10 -2 10 -4z m-360 -31 c0 -14 -4 -25 -10 -25 -5 0 -10
11 -10 25 0 14 5 25 10 25 6 0 10 -11 10 -25z m-150 -10 c0 -8 -7 -15 -15 -15
-8 0 -15 5 -15 11 0 6 -9 1 -20 -12 -21 -26 -26 -19 -10 12 13 23 60 26 60 4z
m810 -5 c0 -5 -7 -10 -16 -10 -8 0 -12 5 -9 10 3 6 10 10 16 10 5 0 9 -4 9
-10z m-761 -22 c11 -30 -1 -42 -33 -34 -25 6 -37 26 -16 26 6 0 10 7 10 15 0
23 30 18 39 -7z m-75 -30 c-10 -16 -22 -7 -17 13 4 15 8 17 14 8 4 -7 5 -17 3
-21z m425 16 c2 -2 2 -7 -1 -10 -4 -3 -19 2 -35 10 l-28 16 30 -6 c17 -4 32
-8 34 -10z m71 1 c-7 -9 -15 -13 -17 -11 -7 7 7 26 19 26 6 0 6 -6 -2 -15z
m-558 -3 c21 -9 11 -27 -19 -36 -18 -6 -23 -3 -23 12 0 30 10 36 42 24z m238
-2 c0 -5 -7 -10 -16 -10 -8 0 -12 5 -9 10 3 6 10 10 16 10 5 0 9 -4 9 -10z
m221 -16 c15 -14 16 -18 4 -30 -18 -18 -25 -18 -25 2 0 9 -8 23 -17 30 -17 13
-17 13 1 14 11 0 27 -7 37 -16z m144 6 c3 -6 -1 -7 -9 -4 -18 7 -21 14 -7 14
6 0 13 -4 16 -10z m267 -4 c4 -6 8 -15 8 -21 -1 -5 -5 -2 -11 7 -5 10 -16 15
-24 12 -8 -4 -15 -2 -15 3 0 13 33 12 42 -1z m-565 -11 c8 -9 13 -19 9 -22 -7
-7 -36 16 -36 28 0 13 10 11 27 -6z m728 3 c5 4 5 1 1 -5 -4 -8 -2 -13 5 -13
7 0 10 -2 8 -5 -3 -2 -22 0 -44 6 -27 8 -34 13 -25 19 8 5 21 5 31 0 9 -5 20
-6 24 -2z m55 2 c0 -5 -5 -10 -11 -10 -5 0 -7 5 -4 10 3 6 8 10 11 10 2 0 4
-4 4 -10z m-1000 -21 c0 -6 -4 -7 -10 -4 -5 3 -10 11 -10 16 0 6 5 7 10 4 6
-3 10 -11 10 -16z m537 -5 c2 -5 -6 -15 -17 -22 -17 -10 -23 -9 -39 7 -20 20
-20 20 7 24 34 5 45 3 49 -9z m-470 -16 c-3 -8 -6 -5 -6 6 -1 11 2 17 5 13 3
-3 4 -12 1 -19z m643 -14 c0 -18 -4 -18 -24 5 -17 19 -17 19 3 14 12 -3 21
-12 21 -19z m-509 3 c-1 -12 -15 -9 -19 4 -3 6 1 10 8 8 6 -3 11 -8 11 -12z
m424 -11 c9 4 15 0 15 -9 0 -11 -6 -13 -21 -10 -14 4 -25 0 -31 -11 -15 -26
-29 -19 -22 12 9 33 26 46 37 27 4 -8 14 -12 22 -9z m160 14 c3 -5 1 -10 -4
-10 -6 0 -11 5 -11 10 0 6 2 10 4 10 3 0 8 -4 11 -10z m175 -20 c0 -23 -31
-35 -45 -17 -7 10 -17 12 -32 6 -32 -12 -38 8 -8 24 35 18 85 10 85 -13z
m-825 10 c3 -5 -1 -10 -9 -10 -8 0 -18 5 -21 10 -3 6 1 10 9 10 8 0 18 -4 21
-10z m-45 -20 c0 -5 -2 -10 -4 -10 -3 0 -8 5 -11 10 -3 6 -1 10 4 10 6 0 11
-4 11 -10z m400 1 c0 -12 -39 -21 -45 -11 -3 5 5 11 17 13 13 2 24 5 26 6 1 0
2 -3 2 -8z m345 -11 c3 -6 -1 -7 -9 -4 -18 7 -21 14 -7 14 6 0 13 -4 16 -10z
m-797 -29 c3 -10 0 -12 -11 -8 -9 3 -18 1 -20 -6 -2 -7 -8 -9 -12 -5 -4 4 -5
14 -1 23 7 19 37 16 44 -4z m215 -4 c15 -11 16 -15 4 -31 -10 -14 -19 -17 -33
-11 -10 4 -25 7 -31 6 -19 -3 -16 20 5 35 22 17 34 17 55 1z m757 -6 c0 -10
-24 -21 -46 -21 -8 0 -14 4 -14 10 0 5 6 7 14 4 8 -3 17 -1 21 5 8 13 25 14
25 2z m-1241 -46 c1 -5 -6 -2 -15 7 -10 9 -13 21 -8 29 5 9 9 8 15 -7 4 -10 8
-23 8 -29z m327 28 c16 -22 17 -33 3 -33 -14 0 -39 25 -39 39 0 17 21 13 36
-6z m359 7 c3 -5 1 -10 -4 -10 -6 0 -11 5 -11 10 0 6 2 10 4 10 3 0 8 -4 11
-10z m165 -24 c0 -3 -4 -8 -10 -11 -5 -3 -10 -1 -10 4 0 6 5 11 10 11 6 0 10
-2 10 -4z m-183 -48 c-3 -8 -6 -5 -6 6 -1 11 2 17 5 13 3 -3 4 -12 1 -19z
m-380 6 c-3 -3 -12 -4 -19 -1 -8 3 -5 6 6 6 11 1 17 -2 13 -5z m298 -4 c3 -5
-1 -10 -10 -10 -9 0 -13 5 -10 10 3 6 8 10 10 10 2 0 7 -4 10 -10z m-618 -48
c3 -25 -12 -30 -21 -6 -9 24 -7 36 6 32 6 -2 13 -14 15 -26z m513 18 c0 -5 -7
-10 -15 -10 -8 0 -15 5 -15 10 0 6 7 10 15 10 8 0 15 -4 15 -10z m420 -11 c0
-5 -4 -9 -10 -9 -5 0 -10 7 -10 16 0 8 5 12 10 9 6 -3 10 -10 10 -16z m264 5
c9 -3 13 -10 10 -15 -3 -5 -10 -7 -15 -4 -5 4 -9 1 -9 -4 0 -6 -5 -11 -11 -11
-8 0 -9 4 0 13 6 8 8 17 4 20 -8 9 1 9 21 1z m-584 -13 c0 -12 -29 -41 -41
-41 -5 0 -9 7 -9 15 0 8 9 15 20 15 11 0 20 5 20 10 0 6 2 10 5 10 3 0 5 -4 5
-9z m665 -1 c3 -5 -3 -10 -15 -10 -12 0 -18 5 -15 10 3 6 10 10 15 10 5 0 12
-4 15 -10z m49 -27 c10 -25 3 -23 -17 3 -13 18 -14 22 -3 18 8 -3 17 -13 20
-21z m-161 -17 c9 -23 -19 -41 -36 -24 -7 7 -12 19 -9 26 5 17 39 15 45 -2z
m-516 -18 c-3 -8 -6 -5 -6 6 -1 11 2 17 5 13 3 -3 4 -12 1 -19z m303 -7 c0
-10 -9 -21 -20 -24 -11 -3 -20 -1 -20 4 0 5 5 9 10 9 6 0 10 9 10 21 0 11 5
17 10 14 6 -3 10 -14 10 -24z m119 3 c-28 -15 -37 -10 -20 10 7 8 19 12 28 9
12 -5 11 -9 -8 -19z m-462 -6 c-3 -8 -6 -5 -6 6 -1 11 2 17 5 13 3 -3 4 -12 1
-19z m-177 3 c10 -1 11 -4 3 -12 -6 -6 -20 -8 -32 -4 -25 8 -28 25 -3 20 9 -2
24 -4 32 -4z m-60 -19 c0 -12 -3 -12 -15 -2 -8 7 -15 13 -15 15 0 1 7 2 15 2
8 0 15 -7 15 -15z m164 -8 c4 -9 4 -19 1 -22 -6 -6 -35 18 -35 29 0 16 28 10
34 -7z m57 -1 c13 -16 12 -17 -3 -4 -10 7 -18 15 -18 17 0 8 8 3 21 -13z m274
-14 c-4 -5 -13 -9 -22 -9 -13 0 -13 3 -3 15 13 15 35 11 25 -6z m305 6 c-7 -9
-15 -13 -19 -10 -3 3 1 10 9 15 21 14 24 12 10 -5z m-1060 -21 c0 -2 -7 -4
-15 -4 -8 0 -15 4 -15 10 0 5 7 7 15 4 8 -4 15 -8 15 -10z m234 -5 c24 3 25
-1 5 -18 -13 -11 -25 -15 -27 -10 -2 5 -13 9 -25 9 -22 1 -22 1 2 21 17 14 26
16 31 9 4 -7 10 -11 14 -11z m1006 11 c0 -5 -5 -10 -11 -10 -5 0 -7 5 -4 10 3
6 8 10 11 10 2 0 4 -4 4 -10z m-458 -35 c-3 -20 -7 -23 -18 -14 -11 9 -11 15
-3 25 18 21 27 17 21 -11z m-98 -1 c3 -8 2 -12 -4 -9 -6 3 -10 10 -10 16 0 14
7 11 14 -7z m-363 -19 c5 4 9 1 9 -4 0 -6 -12 -11 -27 -10 -16 0 -22 3 -15 6
6 2 13 12 13 21 1 15 2 15 6 -1 2 -9 9 -15 14 -12z m184 5 c3 -5 1 -10 -4 -10
-6 0 -11 5 -11 10 0 6 2 10 4 10 3 0 8 -4 11 -10z m-65 -4 c0 -3 -4 -8 -10
-11 -5 -3 -10 -1 -10 4 0 6 5 11 10 11 6 0 10 -2 10 -4z m873 -26 c3 -11 1
-23 -4 -26 -5 -3 -6 -17 -3 -31 5 -18 3 -24 -5 -19 -6 4 -11 18 -11 31 0 13
-4 26 -10 30 -12 8 -1 35 15 35 7 0 15 -9 18 -20z m-243 -4 c0 -7 -6 -19 -14
-25 -11 -9 -15 -6 -18 14 -4 19 -1 25 13 25 11 0 19 -6 19 -14z m-963 -72 c-3
-3 -12 -4 -19 -1 -8 3 -5 6 6 6 11 1 17 -2 13 -5z m1 -21 c-10 -2 -18 -9 -18
-14 0 -6 -5 -7 -10 -4 -16 10 -1 25 23 24 17 -1 18 -2 5 -6z m89 -19 c-3 -3
-12 -4 -19 -1 -8 3 -5 6 6 6 11 1 17 -2 13 -5z m243 -20 c0 -8 -4 -12 -10 -9
-5 3 -10 10 -10 16 0 5 5 9 10 9 6 0 10 -7 10 -16z m-27 -19 c4 -8 2 -17 -3
-20 -6 -4 -10 -4 -10 -1 0 2 -3 11 -6 20 -3 9 -2 16 4 16 5 0 12 -7 15 -15z
m-578 -555 c3 -5 1 -10 -4 -10 -6 0 -11 5 -11 10 0 6 2 10 4 10 3 0 8 -4 11
-10z m-121 -89 c4 -5 -12 -7 -36 -4 -57 8 -61 13 -10 13 22 0 43 -4 46 -9z
m-29 -41 c3 -5 -3 -10 -15 -10 -12 0 -18 5 -15 10 3 6 10 10 15 10 5 0 12 -4
15 -10z m495 -240 c-20 -5 -39 -5 -44 1 -6 5 7 9 35 8 l44 -1 -35 -8z m250 0
c0 -8 -199 -3 -209 6 -2 2 44 4 102 4 62 0 107 -4 107 -10z m-640 -60 c0 -5
-7 -10 -16 -10 -8 0 -12 5 -9 10 3 6 10 10 16 10 5 0 9 -4 9 -10z"/>
<path d="M7396 5325 c3 -8 21 -23 40 -34 19 -11 34 -27 34 -35 0 -16 34 -31
50 -21 6 4 23 -7 39 -24 32 -35 41 -38 41 -16 0 17 35 20 46 4 3 -6 1 -15 -6
-19 -9 -6 -6 -14 11 -31 l24 -24 3 28 c5 42 22 32 22 -13 0 -22 4 -40 10 -40
12 0 80 -46 94 -64 6 -8 17 -16 25 -18 25 -5 161 -146 156 -160 -4 -9 5 -20
20 -28 15 -8 31 -22 36 -32 5 -10 16 -18 24 -18 11 0 15 -12 15 -40 0 -33 4
-40 19 -40 12 0 21 -9 25 -26 4 -14 31 -50 61 -80 30 -30 55 -59 55 -65 0 -6
14 -24 30 -41 23 -23 30 -39 30 -69 0 -21 5 -39 10 -39 6 0 10 7 10 17 0 15 1
15 18 0 10 -10 28 -17 40 -17 l22 0 0 480 0 480 -505 0 c-437 0 -504 -2 -499
-15z m623 -466 c-22 -14 -33 -10 -19 6 7 8 17 12 22 9 6 -4 5 -10 -3 -15z"/>
<path d="M6134 5288 c2 -33 23 -49 36 -27 8 12 -17 58 -31 59 -4 0 -6 -14 -5
-32z"/>
<path d="M6048 5293 c-56 -6 -49 -29 11 -35 16 -2 26 4 32 20 4 12 5 21 1 20
-4 -1 -24 -3 -44 -5z"/>
<path d="M6094 5229 c-3 -6 6 -22 21 -35 17 -15 23 -24 14 -25 -57 -3 -71 -6
-85 -20 -14 -15 -13 -17 15 -28 21 -9 35 -10 48 -2 17 10 17 10 0 11 -10 0
-15 5 -12 11 4 6 21 10 39 9 60 -4 58 -6 47 73 0 5 -10 5 -21 2 -11 -4 -20 -2
-20 4 0 14 -37 14 -46 0z"/>
<path d="M7314 5078 c-24 -11 -43 -46 -37 -65 12 -34 93 13 93 52 0 10 -25 28
-33 24 -1 0 -12 -5 -23 -11z"/>
<path d="M7697 5009 c7 -7 15 -10 18 -7 3 3 -2 9 -12 12 -14 6 -15 5 -6 -5z"/>
<path d="M7777 4990 c-3 -11 -1 -20 4 -20 5 0 9 9 9 20 0 11 -2 20 -4 20 -2 0
-6 -9 -9 -20z"/>
<path d="M7738 4993 c7 -3 16 -2 19 1 4 3 -2 6 -13 5 -11 0 -14 -3 -6 -6z"/>
<path d="M7810 4990 c0 -5 5 -10 10 -10 6 0 10 5 10 10 0 6 -4 10 -10 10 -5 0
-10 -4 -10 -10z"/>
<path d="M7485 4949 c-4 -6 -5 -13 -2 -16 7 -7 27 6 27 18 0 12 -17 12 -25 -2z"/>
<path d="M7792 4944 c-7 -8 -8 -14 -3 -14 10 0 25 19 20 25 -2 1 -10 -3 -17
-11z"/>
<path d="M7708 4943 c7 -3 16 -2 19 1 4 3 -2 6 -13 5 -11 0 -14 -3 -6 -6z"/>
<path d="M7831 4934 c0 -11 3 -14 6 -6 3 7 2 16 -1 19 -3 4 -6 -2 -5 -13z"/>
<path d="M7553 4933 c-29 -2 -53 -8 -53 -14 0 -15 74 -11 96 6 10 8 17 14 14
13 -3 -1 -29 -3 -57 -5z"/>
<path d="M7639 4903 c-1 -5 -1 -11 0 -15 2 -12 -14 -9 -27 4 -21 21 -23 2 -2
-24 22 -29 76 -52 85 -38 3 5 1 17 -4 27 -5 10 -12 26 -15 36 -5 17 -35 24
-37 10z"/>
<path d="M7548 4759 c-25 -14 -24 -42 1 -34 10 3 30 1 44 -4 19 -7 24 -15 20
-30 -7 -26 -23 -28 -23 -3 0 11 -8 18 -22 19 -13 0 -17 -1 -10 -4 6 -3 12 -13
12 -23 0 -20 44 -60 66 -60 22 0 23 68 2 81 -8 5 -6 12 6 24 13 13 14 20 5 31
-13 16 -76 18 -101 3z"/>
<path d="M7851 4754 c-30 -14 -33 -18 -27 -47 4 -17 11 -35 16 -39 5 -5 8 -5
5 -2 -8 12 15 43 28 38 18 -7 51 32 44 51 -8 18 -21 18 -66 -1z"/>
<path d="M7440 4750 c-8 -5 -15 -23 -16 -40 -2 -35 15 -39 81 -16 l40 14 -30
4 c-22 2 -31 9 -33 26 -4 23 -18 28 -42 12z"/>
<path d="M7677 4710 c3 -11 13 -20 22 -19 10 0 11 2 4 6 -7 2 -13 11 -13 19 0
8 -4 14 -9 14 -5 0 -7 -9 -4 -20z"/>
<path d="M5938 4674 c24 -17 39 -14 27 5 -3 6 -16 11 -28 11 l-21 0 22 -16z"/>
<path d="M7720 4659 c0 -24 7 -42 20 -54 24 -22 28 -19 36 24 6 29 4 33 -12
29 -12 -2 -24 4 -31 17 -11 18 -12 17 -13 -16z"/>
<path d="M5800 4646 c0 -8 5 -18 10 -21 6 -3 10 3 10 14 0 12 -4 21 -10 21 -5
0 -10 -6 -10 -14z"/>
<path d="M7890 4630 c0 -24 47 -57 61 -43 6 6 6 19 0 36 -13 34 -61 39 -61 7z"/>
<path d="M5692 4598 c-16 -16 -15 -48 1 -48 8 0 24 12 38 27 18 20 20 25 7 20
-10 -4 -18 -2 -18 3 0 14 -14 12 -28 -2z"/>
<path d="M5950 4533 c0 -10 4 -24 9 -32 8 -12 12 -12 25 -2 18 15 14 26 -15
41 -15 9 -19 7 -19 -7z"/>
<path d="M6017 4543 c-4 -3 -7 -15 -7 -25 0 -21 25 -24 33 -4 6 16 -16 40 -26
29z"/>
<path d="M6123 4513 c-15 -5 -17 -51 -4 -72 8 -12 12 -12 25 -2 17 14 20 38
10 65 -6 17 -11 18 -31 9z"/>
<path d="M5833 4464 c-21 -19 -23 -23 -7 -15 20 10 22 7 28 -24 8 -43 20 -44
36 -6 9 22 9 34 0 50 -14 27 -23 26 -57 -5z"/>
<path d="M5928 4451 c-27 -31 -37 -71 -19 -71 5 0 19 8 31 18 16 13 21 26 18
52 l-3 34 -27 -33z"/>
<path d="M5722 4456 l-24 -13 25 -16 c44 -29 76 -7 45 30 -13 16 -17 16 -46
-1z"/>
<path d="M6058 4399 c-24 -14 -22 -35 4 -53 30 -21 68 -21 68 0 0 10 6 14 15
10 21 -8 19 17 -3 37 -21 19 -58 22 -84 6z"/>
<path d="M5691 4331 c-16 -12 -20 -21 -12 -25 6 -4 11 -2 11 4 0 7 8 9 20 5
21 -7 25 1 12 22 -5 8 -14 7 -31 -6z"/>
<path d="M7600 4322 c0 -21 44 -92 58 -92 14 0 11 22 -12 70 -11 24 -46 41
-46 22z"/>
<path d="M7342 4291 c-11 -6 -7 -13 14 -30 26 -21 64 -29 64 -13 0 4 -7 18
-16 30 -16 23 -39 28 -62 13z"/>
<path d="M8370 4296 c0 -2 7 -9 15 -16 12 -10 15 -10 15 4 0 9 -7 16 -15 16
-8 0 -15 -2 -15 -4z"/>
<path d="M7640 4208 c0 -26 12 -58 22 -58 14 0 5 63 -9 68 -7 2 -13 -2 -13
-10z"/>
<path d="M7601 4164 c0 -11 3 -14 6 -6 3 7 2 16 -1 19 -3 4 -6 -2 -5 -13z"/>
<path d="M7100 3410 c-15 -10 5 -12 100 -12 43 0 48 2 25 12 -27 12 -107 12
-125 0z"/>
<path d="M6995 2960 c-396 -4 -1159 -8 -1695 -10 -536 -1 -981 -5 -987 -7 -9
-4 -13 -29 -13 -81 l0 -75 663 6 c364 4 1141 9 1727 12 586 3 1210 8 1388 11
l322 6 0 74 0 74 -342 -2 c-189 -1 -667 -5 -1063 -8z"/>
<path d="M7870 2265 l0 -266 -22 -9 c-18 -7 -12 -9 30 -9 l52 -1 1 118 c0 64
2 188 5 275 l5 157 -35 0 -36 0 0 -265z"/>
<path d="M5003 2503 c9 -2 23 -2 30 0 6 3 -1 5 -18 5 -16 0 -22 -2 -12 -5z"/>
<path d="M2631 2200 c-2 -87 -21 -115 -117 -175 -44 -27 -83 -53 -89 -57 -5
-4 -20 -16 -33 -26 l-23 -17 64 -85 c35 -47 75 -104 90 -126 39 -63 78 -81
233 -110 77 -14 140 -27 142 -29 2 -2 -4 -28 -13 -60 -9 -31 -15 -58 -13 -60
1 -1 33 -5 71 -7 50 -3 67 -1 67 9 0 7 7 13 15 13 8 0 15 -7 15 -16 0 -14 17
-15 148 -10 81 3 229 10 330 16 101 6 190 9 198 6 8 -3 14 -17 14 -31 0 -20 5
-25 23 -25 24 0 49 -22 60 -50 3 -8 6 13 6 46 1 61 1 62 32 68 17 3 92 6 165
6 l134 0 0 50 0 50 -34 0 c-19 0 -41 -6 -49 -14 -10 -11 -55 -16 -168 -21 -85
-3 -219 -13 -298 -21 -187 -18 -290 -18 -359 2 -70 20 -457 215 -505 255 -21
17 -41 47 -50 74 -15 42 -14 46 4 70 12 14 17 30 13 37 -6 10 -5 10 8 0 13
-10 16 -9 21 8 3 11 0 20 -6 20 -7 0 -4 7 6 14 11 9 14 17 8 21 -7 4 -7 12 1
24 12 20 3 91 -12 91 -6 0 -10 6 -10 13 -1 6 -18 26 -40 42 -21 17 -41 39 -43
50 -2 11 -5 -9 -6 -45z m484 -660 c3 -5 1 -10 -4 -10 -6 0 -11 5 -11 10 0 6 2
10 4 10 3 0 8 -4 11 -10z m-87 -6 c17 -4 48 -22 69 -41 l38 -35 -35 7 c-41 8
-42 8 -98 24 -34 9 -41 15 -33 25 6 7 8 16 4 19 -8 9 15 9 55 1z"/>
<path d="M8321 2023 c-1 -23 -4 -23 -131 -24 -71 -1 -134 -3 -140 -4 -5 -1
-13 -3 -17 -4 -5 -1 -1 -6 7 -11 8 -5 75 -10 148 -10 142 0 149 2 139 52 l-4
23 -2 -22z"/>
<path d="M7425 1862 c-5 -15 -13 -21 -22 -18 -47 18 -62 17 -73 -4 -10 -19 -8
-26 12 -48 40 -45 42 -47 73 -61 17 -7 25 -16 18 -18 -16 -6 -61 25 -98 66
-47 54 -55 61 -71 61 -30 0 -12 -38 43 -93 55 -55 125 -97 187 -113 22 -5 26
-11 21 -28 -8 -28 -86 -327 -90 -346 -2 -8 -12 -51 -23 -95 -12 -44 -28 -116
-36 -160 -9 -44 -30 -136 -48 -205 l-33 -125 -335 -6 c-184 -3 -761 -7 -1282
-8 -895 -1 -947 0 -952 16 -5 18 -13 56 -62 298 -79 388 -114 545 -124 545 -4
0 -6 -9 -3 -20 4 -16 0 -20 -20 -20 -20 0 -25 6 -30 37 -7 43 -3 53 24 53 10
0 19 4 19 9 0 5 -20 6 -45 3 -38 -4 -45 -2 -45 13 0 12 -5 15 -16 11 -9 -3
-34 -6 -56 -6 l-41 0 6 -207 5 -208 55 -225 c31 -124 60 -250 66 -280 5 -30
24 -115 40 -189 34 -145 36 -168 21 -173 -6 -2 -42 -1 -81 2 -39 3 -74 1 -79
-4 -6 -6 -10 -78 -10 -163 l0 -153 1453 0 1453 0 18 55 c27 87 34 67 10 -29
l-6 -26 566 0 566 0 0 340 0 340 -40 0 c-22 0 -40 5 -40 10 0 6 18 72 40 147
32 111 40 154 40 219 l0 82 -62 7 c-141 14 -226 57 -341 169 l-68 66 3 128 3
127 48 3 c46 3 47 2 47 -25 0 -15 -7 -50 -15 -77 -8 -27 -17 -69 -19 -93 -3
-23 -8 -48 -12 -54 -4 -7 -3 -10 2 -6 12 7 38 -13 47 -35 3 -10 15 -18 26 -18
15 0 20 -8 23 -32 l3 -33 65 3 c36 1 74 4 85 7 11 2 26 4 32 4 8 1 11 11 9 24
-2 17 -11 23 -35 25 -32 3 -37 19 -10 33 24 13 53 23 69 24 8 0 34 4 58 9 l42
8 0 54 c0 36 -4 54 -12 54 -9 0 -10 2 -2 8 7 4 11 32 10 67 l-1 60 -60 6 c-65
6 -95 16 -95 30 0 6 -76 9 -182 9 -268 -1 -270 -1 -263 10 4 6 -11 10 -37 11
-36 1 -39 2 -18 9 22 7 19 8 -20 11 -25 2 -63 4 -85 5 -40 1 -97 24 -123 50
-7 8 -20 14 -28 14 -23 0 -42 23 -47 56 -4 28 -4 28 -12 6z m280 -152 c3 -5 2
-10 -4 -10 -5 0 -13 5 -16 10 -3 6 -2 10 4 10 5 0 13 -4 16 -10z m150 -558 l0
-477 -190 -3 c-104 -1 -195 0 -201 2 -11 4 40 185 110 396 43 127 73 229 116
385 22 83 43 156 45 163 3 8 25 12 62 12 l58 0 0 -478z m510 468 c4 -6 -5 -10
-19 -10 -14 0 -26 5 -26 10 0 6 9 10 19 10 11 0 23 -4 26 -10z m-45 -85 c-37
-21 -70 -35 -83 -35 -7 0 -21 -6 -32 -13 -28 -19 -55 -28 -55 -18 0 5 9 11 20
14 12 3 20 14 20 26 0 12 5 21 10 21 6 0 10 -4 10 -10 0 -15 20 -12 65 10 47
23 82 27 45 5z m-361 -279 c0 -17 -6 -62 -13 -101 l-14 -70 -1 114 c-1 100 1
112 14 101 8 -7 15 -27 14 -44z m188 -173 c-1 -19 2 -27 11 -25 10 2 12 -9 7
-45 -8 -52 -44 -200 -75 -303 -16 -56 -50 -181 -90 -335 -5 -22 -15 -47 -21
-55 -9 -12 -10 -11 -4 5 4 11 18 76 32 145 13 69 40 200 59 291 19 91 34 177
34 190 0 13 11 36 25 51 25 28 33 44 15 33 -11 -7 -14 57 -3 68 11 11 12 8 10
-20z m36 7 c-3 -11 -7 -20 -9 -20 -2 0 -4 9 -4 20 0 11 4 20 9 20 5 0 7 -9 4
-20z m-3544 -150 c0 -8 -6 0 -14 19 -8 18 -15 36 -15 40 1 13 29 -45 29 -59z
m8 -42 c-3 -8 -6 -5 -6 6 -1 11 2 17 5 13 3 -3 4 -12 1 -19z m10 -40 c-3 -8
-6 -5 -6 6 -1 11 2 17 5 13 3 -3 4 -12 1 -19z m33 -134 c12 -49 23 -105 26
-124 4 -32 3 -31 -11 10 -17 50 -45 172 -45 197 0 33 11 4 30 -83z m1856 -99
c9 -14 33 -42 53 -64 182 -194 211 -235 150 -213 -14 6 -35 5 -50 0 -16 -5
-53 -6 -90 -1 -35 5 -89 5 -118 1 -47 -7 -56 -6 -64 8 -9 16 -11 16 -23 0 -7
-10 -18 -15 -25 -11 -8 6 -7 10 5 17 16 9 16 11 -1 24 -26 20 -38 17 -53 -11
-16 -31 -46 -41 -67 -23 -13 10 -17 10 -20 1 -5 -15 -39 -17 -48 -3 -10 15
-42 12 -49 -5 -5 -13 -10 -14 -28 -4 -13 7 -28 19 -35 28 -10 13 -11 12 -6 -9
5 -22 1 -20 -41 19 l-46 45 -6 -31 c-7 -36 -29 -43 -132 -42 -51 1 -62 4 -58
15 3 9 -1 14 -14 14 -11 0 -20 -6 -20 -14 0 -8 -8 -17 -17 -21 -17 -6 -246
-13 -719 -20 l-222 -4 -15 57 c-9 31 -21 86 -28 122 -6 36 -15 75 -20 88 -5
13 -9 31 -9 40 0 17 53 18 900 20 l900 1 16 -24z m127 18 c-7 -2 -19 -2 -25 0
-7 3 -2 5 12 5 14 0 19 -2 13 -5z m557 -28 c0 -8 -3 -15 -6 -15 -3 0 -12 7
-20 15 -14 13 -13 15 5 15 12 0 21 -6 21 -15z m235 -24 c-6 -5 -25 10 -25 20
0 5 6 4 14 -3 8 -7 12 -15 11 -17z m-2731 -46 c3 -8 1 -15 -4 -15 -6 0 -10 7
-10 15 0 8 2 15 4 15 2 0 6 -7 10 -15z m2846 -35 c0 -5 -2 -10 -4 -10 -3 0 -8
5 -11 10 -3 6 -1 10 4 10 6 0 11 -4 11 -10z m25 -20 c3 -5 1 -10 -4 -10 -6 0
-11 5 -11 10 0 6 2 10 4 10 3 0 8 -4 11 -10z m45 -30 c8 -5 11 -10 5 -10 -5 0
-17 5 -25 10 -8 5 -10 10 -5 10 6 0 17 -5 25 -10z m-255 -32 c-4 -18 -16 -49
-27 -68 -10 -19 -16 -26 -13 -15 4 11 11 41 17 68 6 26 16 47 21 47 5 0 5 -15
2 -32z m290 1 c11 -16 1 -19 -13 -3 -7 8 -8 14 -3 14 5 0 13 -5 16 -11z m-360
-217 c-22 -81 -35 -110 -35 -81 0 18 24 105 39 143 22 55 20 20 -4 -62z
m-2528 -4 c-3 -7 -5 -2 -5 12 0 14 2 19 5 13 2 -7 2 -19 0 -25z m10 -60 c-3
-7 -5 -2 -5 12 0 14 2 19 5 13 2 -7 2 -19 0 -25z m20 -80 c-3 -8 -6 -5 -6 6
-1 11 2 17 5 13 3 -3 4 -12 1 -19z"/>
<path d="M4560 1848 c0 -4 7 -8 15 -8 8 0 19 -9 25 -20 6 -11 17 -20 25 -20 8
0 15 -7 15 -15 0 -11 11 -15 36 -15 32 0 35 -2 23 -16 -12 -14 -7 -16 49 -12
50 2 62 0 62 -12 0 -8 9 -21 20 -28 18 -11 19 -10 8 16 -21 48 -47 79 -70 85
-13 3 -65 16 -115 30 -51 13 -93 20 -93 15z m200 -68 c8 -5 11 -10 5 -10 -5 0
-17 5 -25 10 -8 5 -10 10 -5 10 6 0 17 -5 25 -10z"/>
<path d="M4558 1823 c6 -2 18 -2 25 0 6 3 1 5 -13 5 -14 0 -19 -2 -12 -5z"/>
<path d="M4690 1648 c-171 -11 -187 -15 -65 -15 119 -1 233 9 200 17 -11 3
-72 2 -135 -2z"/>
<path d="M4453 1633 c9 -2 25 -2 35 0 9 3 1 5 -18 5 -19 0 -27 -2 -17 -5z"/>
<path d="M8040 1311 c0 -5 7 -11 15 -15 8 -3 15 -1 15 3 0 5 -7 11 -15 15 -8
3 -15 1 -15 -3z"/>
<path d="M3765 1040 c-27 -10 -86 -28 -130 -40 -44 -12 -83 -25 -86 -29 -4 -3
6 -51 22 -106 16 -55 35 -129 43 -165 8 -36 33 -135 55 -220 23 -85 41 -157
41 -160 0 -6 -86 -9 -527 -14 -342 -4 -353 -4 -353 15 0 18 59 238 127 473 18
65 32 120 30 122 -2 2 -63 5 -137 6 l-133 3 -19 -65 c-11 -36 -46 -150 -78
-255 -33 -104 -62 -203 -66 -220 -4 -16 -14 -46 -22 -65 -22 -53 -29 -25 -47
171 -20 232 -32 339 -40 370 -6 24 -2 28 44 47 27 12 54 22 60 22 6 0 11 5 11
10 0 6 -19 10 -42 10 -24 0 -113 7 -198 15 -296 27 -477 36 -836 41 l-361 4
-57 -182 c-31 -100 -58 -183 -60 -185 -1 -2 -228 -6 -504 -10 -319 -4 -502
-10 -502 -16 0 -7 172 -8 495 -3 272 4 495 4 495 1 0 -7 -62 -208 -132 -432
-33 -103 -45 -130 -55 -122 -9 8 -26 7 -59 -5 l-46 -16 7 23 c4 12 9 33 12 47
3 14 10 27 14 30 4 3 12 42 16 88 8 74 7 82 -8 82 -13 0 -19 -12 -24 -48 -8
-58 -18 -77 -38 -69 -18 7 -37 -11 -37 -35 0 -10 -4 -18 -10 -18 -5 0 -10 5
-10 11 0 6 -12 9 -27 7 -26 -3 -28 -7 -31 -50 -2 -27 -7 -48 -11 -48 -5 0 -11
-10 -14 -22 -5 -18 -8 -19 -21 -8 -20 16 -20 30 -1 30 19 0 37 34 29 55 -8 19
-41 38 -54 30 -14 -9 -12 49 2 63 9 9 9 12 -2 12 -8 0 -24 -20 -35 -45 -25
-58 -38 -57 -29 1 6 44 6 46 -17 42 -18 -2 -24 1 -23 15 1 10 -3 16 -10 14 -6
-2 -11 -10 -11 -19 0 -19 -66 -76 -82 -71 -7 3 -13 1 -13 -4 0 -4 -12 -21 -26
-37 -20 -20 -29 -25 -34 -15 -12 18 -1 39 20 39 14 0 21 12 29 50 6 28 11 58
11 65 0 8 7 15 15 15 8 0 15 -4 15 -10 0 -5 5 -10 12 -10 6 0 4 8 -6 19 -10
11 -15 25 -11 30 3 6 1 11 -4 11 -6 0 -11 -6 -11 -13 0 -8 -9 -22 -21 -33 -11
-10 -18 -26 -16 -36 3 -10 0 -16 -7 -15 -6 1 -22 -21 -36 -49 -14 -28 -30 -57
-36 -65 -13 -16 -54 -87 -54 -94 0 -2 210 -4 468 -4 l467 0 12 27 c6 15 43
124 82 242 83 254 114 344 117 348 1 2 143 6 316 9 172 2 315 6 317 9 2 2
-138 4 -312 4 -174 0 -317 2 -317 5 0 8 76 255 89 287 5 14 13 28 18 31 10 6
428 -18 583 -33 63 -7 134 -13 156 -15 54 -3 65 -11 59 -38 -5 -21 -11 -79
-35 -359 -18 -216 -18 -216 -48 -223 -15 -3 -45 -6 -66 -7 -41 -1 -76 -23 -76
-45 0 -7 -4 -13 -8 -13 -10 0 -10 -4 -13 -82 -1 -37 -5 -55 -12 -51 -6 4 -8 0
-4 -11 4 -10 7 -20 7 -22 0 -2 7 -4 16 -4 12 0 15 -7 12 -30 l-5 -30 265 0
265 0 -6 70 c-3 40 -2 70 4 70 9 0 13 -54 9 -112 l-2 -28 863 0 862 0 -8 307
c-7 321 -15 413 -15 182 0 -74 -4 -140 -9 -147 -11 -18 -200 -37 -215 -21 -9
9 -76 311 -71 320 4 5 2 9 -4 9 -20 0 -41 138 -41 274 0 75 -3 136 -7 135 -5
0 -30 -9 -58 -19z m-1384 -132 c22 -6 39 -15 39 -19 0 -4 -39 -10 -87 -14 -49
-4 -96 -9 -105 -11 -10 -3 -18 -1 -18 4 0 15 33 40 60 45 46 8 72 7 111 -5z
m26 -70 c-20 -13 -27 -9 -27 12 0 18 3 19 20 8 14 -9 16 -14 7 -20z m-76 5 c7
-80 5 -133 -3 -133 -5 0 -6 -4 -3 -10 3 -5 1 -10 -5 -10 -5 0 -10 12 -9 28 1
15 -3 38 -8 52 -13 33 -5 90 13 90 8 0 15 -8 15 -17z m89 -84 c0 -9 3 -31 6
-48 5 -21 3 -31 -6 -31 -7 0 -10 7 -6 16 3 8 2 12 -4 9 -6 -3 -10 2 -10 12 0
10 -3 36 -6 58 -5 38 -4 39 10 21 9 -11 16 -27 16 -37z m-88 -131 c-9 -9 -12
-7 -12 12 0 19 3 21 12 12 9 -9 9 -15 0 -24z m102 -78 c10 -59 13 -106 7 -125
-7 -28 -8 -27 -15 22 -10 80 -19 209 -13 203 2 -3 12 -48 21 -100z m1417 20
c2 21 27 -79 28 -110 0 -20 -1 -22 -9 -9 -5 9 -13 33 -18 55 -6 21 -13 48 -17
59 -5 16 -5 17 4 5 9 -13 11 -13 12 0z m-1505 -36 c11 -26 12 -40 5 -47 -8 -8
-11 -2 -11 21 0 18 -4 32 -10 32 -5 0 -10 7 -10 15 0 25 10 17 26 -21z m102
-255 c-3 -8 -7 -3 -11 10 -4 17 -3 21 5 13 5 -5 8 -16 6 -23z m-1 -51 c-3 -7
-5 -2 -5 12 0 14 2 19 5 13 2 -7 2 -19 0 -25z m1503 -30 c21 -98 22 -103 12
-93 -15 16 -34 77 -37 117 -4 53 11 38 25 -24z m-3554 -115 c-10 -10 -19 5
-10 18 6 11 8 11 12 0 2 -7 1 -15 -2 -18z m44 7 c0 -5 -4 -10 -10 -10 -5 0
-10 5 -10 10 0 6 5 10 10 10 6 0 10 -4 10 -10z m3540 -43 c0 -18 -2 -19 -10
-7 -13 20 -13 43 0 35 6 -3 10 -16 10 -28z m-3398 -12 c-6 -32 -12 -32 -12 0
0 14 4 25 9 25 4 0 6 -11 3 -25z"/>
<path d="M4384 653 c10 -11 56 -11 56 -1 0 4 -14 8 -32 8 -17 0 -28 -3 -24 -7z"/>
<path d="M2588 643 c7 -3 16 -2 19 1 4 3 -2 6 -13 5 -11 0 -14 -3 -6 -6z"/>
<path d="M3058 643 c12 -2 30 -2 40 0 9 3 -1 5 -23 4 -22 0 -30 -2 -17 -4z"/>
<path d="M3508 643 c6 -2 18 -2 25 0 6 3 1 5 -13 5 -14 0 -19 -2 -12 -5z"/>
<path d="M3933 643 c9 -2 25 -2 35 0 9 3 1 5 -18 5 -19 0 -27 -2 -17 -5z"/>
<path d="M2088 633 c7 -3 16 -2 19 1 4 3 -2 6 -13 5 -11 0 -14 -3 -6 -6z"/>
<path d="M400 429 c0 -5 5 -7 10 -4 6 3 10 8 10 11 0 2 -4 4 -10 4 -5 0 -10
-5 -10 -11z"/>
<path d="M1497 354 c3 -8 11 -14 19 -14 21 0 17 17 -5 23 -14 3 -18 1 -14 -9z"/>
<path d="M1225 349 c-4 -6 -5 -12 -2 -15 2 -3 7 2 10 11 7 17 1 20 -8 4z"/>
<path d="M226 330 c-10 -10 -16 -22 -13 -27 3 -4 -7 -9 -21 -9 -15 -1 -21 1
-14 3 14 5 17 33 2 33 -5 0 -28 -18 -52 -40 -47 -44 -66 -48 -103 -24 l-24 16
0 -142 0 -141 40 3 41 3 83 150 c83 150 104 196 88 194 -4 0 -16 -9 -27 -19z"/>
<path d="M1670 341 c0 -5 7 -11 15 -15 8 -3 15 -1 15 3 0 5 -7 11 -15 15 -8 3
-15 1 -15 -3z"/>
<path d="M1 314 c0 -11 3 -14 6 -6 3 7 2 16 -1 19 -3 4 -6 -2 -5 -13z"/>
<path d="M1498 303 c6 -2 18 -2 25 0 6 3 1 5 -13 5 -14 0 -19 -2 -12 -5z"/>
<path d="M1702 280 c2 -24 -1 -34 -9 -32 -18 3 -16 -23 2 -38 10 -9 15 -9 15
-1 0 6 10 11 22 11 17 0 19 3 10 12 -7 7 -12 19 -12 28 0 9 -7 25 -15 36 -15
18 -15 17 -13 -16z"/>
<path d="M1735 300 c-3 -5 -1 -10 4 -10 6 0 11 5 11 10 0 6 -2 10 -4 10 -3 0
-8 -4 -11 -10z"/>
<path d="M416 284 c-4 -9 -4 -19 -2 -21 8 -8 26 8 26 23 0 19 -16 18 -24 -2z"/>
<path d="M1181 263 c-13 -26 -14 -27 -22 -8 -6 14 -7 10 -3 -15 3 -21 -1 -50
-10 -72 -9 -20 -13 -44 -10 -52 3 -8 2 -21 -2 -28 -8 -12 -16 -63 -9 -56 5 4
62 159 76 207 14 43 -3 62 -20 24z"/>
<path d="M660 240 c0 -11 7 -20 15 -20 8 0 15 9 15 20 0 11 -7 20 -15 20 -8 0
-15 -9 -15 -20z"/>
<path d="M1255 221 c-3 -11 -13 -21 -21 -21 -8 0 -14 -10 -14 -25 0 -25 1 -25
25 -9 14 9 25 20 25 25 0 5 6 8 13 7 6 -2 12 3 12 10 0 6 -4 12 -9 11 -5 0
-12 5 -16 11 -5 9 -10 6 -15 -9z"/>
<path d="M1760 220 c0 -12 -5 -17 -13 -14 -20 7 -43 -24 -29 -38 8 -8 13 -7
18 5 3 10 17 17 31 17 19 0 24 4 19 16 -3 9 -6 20 -6 25 0 5 -4 9 -10 9 -5 0
-10 -9 -10 -20z"/>
<path d="M840 219 c0 -5 5 -7 10 -4 6 3 10 8 10 11 0 2 -4 4 -10 4 -5 0 -10
-5 -10 -11z"/>
<path d="M1315 220 c3 -5 8 -10 11 -10 2 0 4 5 4 10 0 6 -5 10 -11 10 -5 0 -7
-4 -4 -10z"/>
<path d="M816 184 c-3 -9 -6 -22 -6 -31 0 -13 2 -13 15 1 17 17 19 32 6 40 -5
3 -12 -1 -15 -10z"/>
<path d="M1310 189 c0 -5 5 -7 10 -4 6 3 10 8 10 11 0 2 -4 4 -10 4 -5 0 -10
-5 -10 -11z"/>
<path d="M1385 150 c-3 -5 3 -10 14 -10 12 0 21 5 21 10 0 6 -6 10 -14 10 -8
0 -18 -4 -21 -10z"/>
<path d="M1730 129 c0 -5 5 -7 10 -4 6 3 10 8 10 11 0 2 -4 4 -10 4 -5 0 -10
-5 -10 -11z"/>
<path d="M1796 120 c3 -14 8 -33 11 -42 8 -27 -12 -21 -27 7 -12 22 -15 24
-23 9 -6 -10 -5 -25 2 -41 7 -14 10 -27 9 -28 -2 -1 -12 -7 -23 -13 -17 -9
-12 -10 28 -9 l47 1 0 41 c-1 22 -7 54 -16 70 -12 26 -13 26 -8 5z"/>
<path d="M1101 118 c0 -9 -4 -25 -7 -35 -5 -14 -4 -15 5 -7 7 7 11 22 8 35 -2
13 -5 16 -6 7z"/>
<path d="M1198 109 c-10 -5 -21 -24 -27 -42 -5 -17 -12 -40 -16 -49 -7 -17 5
-18 171 -18 l179 1 -33 29 c-31 29 -29 35 11 31 25 -3 21 26 -5 43 -18 11 -35
12 -83 4 -33 -6 -77 -9 -97 -9 -20 1 -39 -3 -43 -9 -10 -16 -25 -12 -33 9 -5
15 -11 17 -24 10z m12 -34 c0 -8 -4 -15 -10 -15 -5 0 -7 7 -4 15 4 8 8 15 10
15 2 0 4 -7 4 -15z m204 -3 c11 -19 -12 -33 -45 -28 -23 3 -39 0 -51 -11 -17
-15 -18 -15 -18 5 0 19 6 22 45 22 25 0 45 5 45 10 0 12 17 13 24 2z"/>
<path d="M1066 15 c-3 -8 -1 -15 4 -15 6 0 10 7 10 15 0 8 -2 15 -4 15 -2 0
-6 -7 -10 -15z"/>
</g>
</svg>
