<?xml version="1.0" encoding="UTF-8"?>
<svg version="1.1" xmlns="http://www.w3.org/2000/svg" width="420" height="266">
<path d="M0 0 C138.6 0 277.2 0 420 0 C420 87.78 420 175.56 420 266 C281.4 266 142.8 266 0 266 C0 178.22 0 90.44 0 0 Z " fill="#1C1E1D" transform="translate(0,0)"/>
<path d="M0 0 C-0.00666183 0.95355881 -0.01332367 1.90711761 -0.02018738 2.88957214 C-0.08102399 11.879542 -0.12598488 20.86947005 -0.15543652 29.85959911 C-0.17108697 34.48143791 -0.19231393 39.10311042 -0.22631836 43.72485352 C-0.25893392 48.18578537 -0.27685768 52.64655736 -0.28463173 57.10759926 C-0.29017129 58.80884632 -0.30098876 60.51008472 -0.31719017 62.21126366 C-0.33899391 64.59570544 -0.34196574 66.9794881 -0.34057617 69.36401367 C-0.351362 70.06604416 -0.36214783 70.76807465 -0.3732605 71.49137878 C-0.34562228 75.879478 0.5279457 78.4094769 3 82 C3 82.66 3 83.32 3 84 C3.53238281 84.23847656 4.06476563 84.47695312 4.61328125 84.72265625 C7.07154349 86.03828923 9.2678297 87.58494509 11.51879883 89.22485352 C17.12135397 93.29623485 22.22997189 96.27880641 29 98 C29 98.66 29 99.32 29 100 C29.85851562 100.12246094 30.71703125 100.24492187 31.6015625 100.37109375 C35.00686898 101.00127116 38.10342101 101.93562279 41.375 103.0625 C42.43460937 103.42472656 43.49421875 103.78695312 44.5859375 104.16015625 C45.38257813 104.43730469 46.17921875 104.71445312 47 105 C47 105.33 47 105.66 47 106 C-40.12 106 -127.24 106 -217 106 C-217 24 -217 24 -216 23 C-213.66702567 22.95907063 -211.33294775 22.95758277 -209 23 C-209 21.02 -209 19.04 -209 17 C-206.36 17 -203.72 17 -201 17 C-201 17.66 -201 18.32 -201 19 C-202.32 19 -203.64 19 -205 19 C-204.67 19.66 -204.34 20.32 -204 21 C-203.21238281 20.9278125 -202.42476562 20.855625 -201.61328125 20.78125 C-187.85958544 19.60933746 -174.63074622 19.82859043 -161 22 C-160 23 -160 23 -159.90234375 25.06640625 C-159.91394531 25.89011719 -159.92554688 26.71382812 -159.9375 27.5625 C-159.94652344 28.38878906 -159.95554688 29.21507812 -159.96484375 30.06640625 C-159.97644531 30.70449219 -159.98804688 31.34257812 -160 32 C-159.34 32 -158.68 32 -158 32 C-158 29.03 -158 26.06 -158 23 C-153.72869589 23.30627136 -149.45806325 23.62107887 -145.1875 23.9375 C-143.97255859 24.02451172 -142.75761719 24.11152344 -141.50585938 24.20117188 C-139.76079102 24.33168945 -139.76079102 24.33168945 -137.98046875 24.46484375 C-136.90692139 24.543396 -135.83337402 24.62194824 -134.72729492 24.70288086 C-132 25 -132 25 -129 26 C-127.52034074 26.14573058 -126.03596157 26.24663268 -124.55078125 26.31640625 C-123.27944336 26.37924805 -123.27944336 26.37924805 -121.98242188 26.44335938 C-121.10134766 26.48267578 -120.22027344 26.52199219 -119.3125 26.5625 C-117.97348633 26.62727539 -117.97348633 26.62727539 -116.60742188 26.69335938 C-114.40509892 26.79935353 -112.20266527 26.90142051 -110 27 C-110.495 25.515 -110.495 25.515 -111 24 C-112.01189078 16.01730607 -112.12821554 8.03484046 -112 0 C-111.67 0 -111.34 0 -111 0 C-110.01 8.91 -110.01 8.91 -109 18 C-108.34 18 -107.68 18 -107 18 C-106.01 23.94 -106.01 23.94 -105 30 C-98.45286621 28.4223774 -94.1462522 27.35452109 -89 23 C-86.59396809 21.92293156 -84.14969561 21.00105525 -81.68359375 20.0703125 C-78.98994068 18.99598798 -76.45270345 17.7640839 -73.875 16.4375 C-69.65271156 14.28639721 -65.51547727 12.45140341 -61 11 C-60.01 11.495 -60.01 11.495 -59 12 C-57.824375 10.7625 -57.824375 10.7625 -56.625 9.5 C-54 7 -54 7 -52 7 C-52 6.34 -52 5.68 -52 5 C-48.71976333 2.81317555 -47.88471323 2.77394881 -44.10546875 2.875 C-42.67170898 2.89820313 -42.67170898 2.89820313 -41.20898438 2.921875 C-39.20637236 2.97365553 -37.20376805 3.0257353 -35.20117188 3.078125 C-29.94116231 3.16290689 -25.96916175 2.87966916 -21 1 C-18.13977104 0.46765121 -15.26536608 0.13616078 -12.375 -0.1875 C-11.62476563 -0.28224609 -10.87453125 -0.37699219 -10.1015625 -0.47460938 C-6.45063908 -0.89860846 -3.51966561 -1.03574258 0 0 Z " fill="#20221F" transform="translate(217,160)"/>
<path d="M0 0 C0 0.66 0 1.32 0 2 C0.99 2 1.98 2 3 2 C3.02316372 9.64082476 3.04093569 17.28164588 3.05181217 24.92249775 C3.05703216 28.47039848 3.0641138 32.0182752 3.07543945 35.56616211 C3.08837663 39.64437084 3.09323552 43.72255433 3.09765625 47.80078125 C3.10281754 49.07585037 3.10797882 50.35091949 3.11329651 51.66462708 C3.11337204 52.84562485 3.11344757 54.02662262 3.11352539 55.2434082 C3.115746 56.28487503 3.11796661 57.32634186 3.12025452 58.39936829 C3 61 3 61 2 64 C5.0831351 62.80100302 8.06279492 61.52299523 11 60 C11 59.34 11 58.68 11 58 C22.42365417 51.0033988 35.57171756 45.81612568 48.75 43.5 C50.17720171 43.24284361 51.60428565 42.98503274 53.03125 42.7265625 C54.05798828 42.5414209 54.05798828 42.5414209 55.10546875 42.35253906 C57.4976172 41.90740216 59.87250961 41.39218135 62.25 40.875 C75.25250463 38.32338712 88.56495999 38.88148789 101.75 38.9375 C103.81510308 38.94252498 105.88020735 38.94708612 107.9453125 38.95117188 C112.9635713 38.96209857 117.98177235 38.97930825 123 39 C122.04134491 36.66924071 122.04134491 36.66924071 119 35 C120.65 35 122.3 35 124 35 C124 32.03 124 29.06 124 26 C123.04077637 26.00942627 122.08155273 26.01885254 121.09326172 26.02856445 C111.78735925 26.09137734 102.53281213 25.86213106 93.24316406 25.31030273 C91.10529352 25.1863575 88.96696006 25.08043208 86.828125 24.97460938 C80.00450929 24.59826327 73.61076328 24.01260036 67.12109375 21.68164062 C63.47782647 20.51083005 59.80189419 20.30660437 56 20 C56 19.34 56 18.68 56 18 C54.97519531 17.93941406 53.95039063 17.87882812 52.89453125 17.81640625 C51.53384305 17.73194974 50.17316657 17.64730433 48.8125 17.5625 C48.13896484 17.52318359 47.46542969 17.48386719 46.77148438 17.44335938 C43.10300898 17.21072435 39.58305794 16.82792989 36 16 C36 15.34 36 14.68 36 14 C35.29875 13.89042969 34.5975 13.78085938 33.875 13.66796875 C27.94828703 12.67749906 22.39889553 11.69944777 17 9 C16.2890625 6.39453125 16.2890625 6.39453125 16 4 C22.28670473 4.29405554 28.3565534 4.67943679 34.4375 6.375 C70.89278196 16.14406248 112.16664518 14.60717899 149.5 11.6875 C150.27202759 11.62873688 151.04405518 11.56997375 151.83947754 11.50942993 C165.88784382 10.40934523 179.81849085 8.95712752 192.7421875 2.98828125 C195 2 195 2 197 2 C197 34.34 197 66.68 197 100 C158.60464273 100.24181821 158.60464273 100.24181821 142.42578125 100.29296875 C131.28645109 100.32847087 120.14739466 100.37004122 109.00830078 100.45263672 C100.89310953 100.5127811 92.77814189 100.55122957 84.66273391 100.56453097 C80.37277564 100.57229604 76.08345662 100.59030809 71.79370499 100.63438034 C37.44605276 100.97417806 37.44605276 100.97417806 23 94 C23 93.34 23 92.68 23 92 C22.41992188 91.90203125 21.83984375 91.8040625 21.2421875 91.703125 C15.50580094 90.60507081 10.52019317 89.34362262 6.81640625 84.4296875 C4.94031344 81.36471536 3.94362171 78.77448683 3.0625 75.25 C2.30752253 71.85700611 2.30752253 71.85700611 -0.4375 70.25 C-1.283125 69.8375 -2.12875 69.425 -3 69 C-4.63490295 67.80163574 -4.63490295 67.80163574 -6 66 C-6.38768005 63.2677002 -6.38768005 63.2677002 -6.40405273 59.92382812 C-6.41673691 58.67243042 -6.42942108 57.42103271 -6.44248962 56.13171387 C-6.44043832 54.7648909 -6.43745041 53.39806906 -6.43359375 52.03125 C-6.43815429 50.63024644 -6.44345948 49.22924512 -6.44947815 47.82824707 C-6.45841287 44.89272978 -6.45598188 41.95748449 -6.44604492 39.02197266 C-6.43454793 35.25879415 -6.45477454 31.49655296 -6.48396206 27.73349762 C-6.50230076 24.84069856 -6.5020365 21.94812518 -6.49632454 19.05528259 C-6.49617107 17.66778752 -6.50223662 16.28027738 -6.51461601 14.89283752 C-6.52947902 12.95400117 -6.51624325 11.01501072 -6.50170898 9.07617188 C-6.50154282 7.97269409 -6.50137665 6.86921631 -6.50120544 5.7322998 C-6 3 -6 3 -4.09364319 1.12023926 C-2 0 -2 0 0 0 Z " fill="#1E1E1B" transform="translate(223,166)"/>
<path d="M0 0 C1.14717155 3.44151466 0.79977786 4.85321416 0.125 8.375 C-1.0959142 15.60215656 -1.41345028 22.78385891 -1.65771484 30.10302734 C-1.68945801 30.98168457 -1.72120117 31.8603418 -1.75390625 32.765625 C-1.78979858 33.95333496 -1.78979858 33.95333496 -1.82641602 35.16503906 C-2 37 -2 37 -3 38 C-3.23701239 40.85877909 -3.42219182 43.69883297 -3.5625 46.5625 C-3.62727539 47.77196289 -3.62727539 47.77196289 -3.69335938 49.00585938 C-3.79975262 51.00368805 -3.90040888 53.0018207 -4 55 C-2.02 55 -0.04 55 2 55 C1.9175 53.906875 1.835 52.81375 1.75 51.6875 C2 48 2 48 3.4375 46.1875 C11.73999211 42.34000366 20.60653577 42.68521503 29.5625 42.75 C30.22785767 42.75310181 30.89321533 42.75620361 31.57873535 42.75939941 C62.91419758 42.9310644 62.91419758 42.9310644 71 49 C72.09974828 52.29924483 72.11360806 53.65917581 71 57 C72.16789062 57.03867188 72.16789062 57.03867188 73.359375 57.078125 C86.57502532 57.74804276 100.62130773 59.51795496 112.75 65.0625 C116.3269549 66.55289787 120.07518305 67.33955746 123.84765625 68.19140625 C124.55792969 68.45824219 125.26820313 68.72507812 126 69 C126.33 69.99 126.66 70.98 127 72 C127.63808594 72.06058594 128.27617187 72.12117188 128.93359375 72.18359375 C130.17302734 72.30927734 130.17302734 72.30927734 131.4375 72.4375 C132.67306641 72.55931641 132.67306641 72.55931641 133.93359375 72.68359375 C136 73 136 73 137 74 C137.07313567 76.53049402 137.09247527 79.03304837 137.0625 81.5625 C137.05798828 82.27341797 137.05347656 82.98433594 137.04882812 83.71679688 C137.03700864 85.47790013 137.01907263 87.23896036 137 89 C135.01088133 89.96037136 133.00768177 90.89156561 131 91.8125 C129.88625 92.33457031 128.7725 92.85664063 127.625 93.39453125 C115.72505553 98.02620395 102.11862814 98.72952281 89.5 99.6875 C88.69307709 99.75003967 87.88615417 99.81257935 87.05477905 99.87701416 C50.52899724 102.64113698 11.95515826 102.8847003 -24 95 C-24.93344238 94.80035645 -25.86688477 94.60071289 -26.82861328 94.39501953 C-57.86089195 87.62407234 -57.86089195 87.62407234 -66 78 C-66.8125 74.625 -66.8125 74.625 -66 71 C-61.22998747 66.48214672 -53.67004492 62 -47 62 C-47 55.73 -47 49.46 -47 43 C-37.62433167 42.06243317 -28.40752233 41.89255368 -19 42 C-19 41.01 -19 40.02 -19 39 C-20.2375 38.896875 -21.475 38.79375 -22.75 38.6875 C-38.01084526 36.98915474 -38.01084526 36.98915474 -42 33 C-44.57061311 32.35232207 -44.57061311 32.35232207 -47 32 C-47 29.69 -47 27.38 -47 25 C-44.63540802 23.81770401 -42.86588665 23.71858136 -40.23046875 23.5 C-39.26439697 23.4179834 -38.2983252 23.3359668 -37.30297852 23.25146484 C-36.27487061 23.16848145 -35.2467627 23.08549805 -34.1875 23 C-32.63083618 22.86972412 -32.63083618 22.86972412 -31.04272461 22.73681641 C-23.69775133 22.12583385 -16.35084136 21.53614582 -9 21 C-9.495 19.4221875 -9.495 19.4221875 -10 17.8125 C-10.83966782 14.61126643 -11.19750904 12.2588992 -11 9 C-10.236875 9.185625 -9.47375 9.37125 -8.6875 9.5625 C-5.91032625 10.22819173 -5.91032625 10.22819173 -3 9 C-2.23397184 7.15808143 -2.23397184 7.15808143 -1.875 5 C-1.07623318 1.07623318 -1.07623318 1.07623318 0 0 Z " fill="#948B7B" transform="translate(283,79)"/>
<path d="M0 0 C-0.00666183 0.95355881 -0.01332367 1.90711761 -0.02018738 2.88957214 C-0.08102399 11.879542 -0.12598488 20.86947005 -0.15543652 29.85959911 C-0.17108697 34.48143791 -0.19231393 39.10311042 -0.22631836 43.72485352 C-0.25893392 48.18578537 -0.27685768 52.64655736 -0.28463173 57.10759926 C-0.29017129 58.80884632 -0.30098876 60.51008472 -0.31719017 62.21126366 C-0.33899391 64.59570544 -0.34196574 66.9794881 -0.34057617 69.36401367 C-0.351362 70.06604416 -0.36214783 70.76807465 -0.3732605 71.49137878 C-0.34562228 75.879478 0.5279457 78.4094769 3 82 C3 82.66 3 83.32 3 84 C3.53238281 84.23847656 4.06476563 84.47695312 4.61328125 84.72265625 C7.07154349 86.03828923 9.2678297 87.58494509 11.51879883 89.22485352 C17.12135397 93.29623485 22.22997189 96.27880641 29 98 C29 98.66 29 99.32 29 100 C29.85851562 100.12246094 30.71703125 100.24492187 31.6015625 100.37109375 C35.00686898 101.00127116 38.10342101 101.93562279 41.375 103.0625 C42.43460937 103.42472656 43.49421875 103.78695312 44.5859375 104.16015625 C45.38257813 104.43730469 46.17921875 104.71445312 47 105 C47 105.33 47 105.66 47 106 C-40.12 106 -127.24 106 -217 106 C-217 97.42 -217 88.84 -217 80 C-213.1576198 79.03940495 -212.19636838 78.97886954 -208.625 79.9375 C-205.91755604 80.6033372 -203.80943675 81 -201 81 C-198.37384095 81 -196.4825821 81.27910316 -193.9609375 81.87890625 C-185.96739161 83.713517 -177.8842013 85.07789253 -169.80859375 86.49755859 C-167.26368985 86.95282739 -164.72578348 87.43523777 -162.1875 87.92578125 C-153.19482955 89.59360681 -144.40054215 90.30007517 -135.25 90.375 C-134.23760254 90.38885742 -133.22520508 90.40271484 -132.18212891 90.41699219 C-126.30145715 90.37957958 -122.40785891 89.45811768 -117 87 C-113.57925961 86.52162222 -110.14606139 86.56373136 -106.69726562 86.56054688 C-103.25091118 86.46545241 -101.39114013 86.32242632 -98.6875 84.09375 C-98.130625 83.4028125 -97.57375 82.711875 -97 82 C-91.95595025 78.30103018 -86.91676124 75.97225375 -81 74 C-81 73.34 -81 72.68 -81 72 C-79.76636719 71.36384766 -79.76636719 71.36384766 -78.5078125 70.71484375 C-72.24102768 67.42224895 -66.41722834 63.99880272 -60.6796875 59.83203125 C-56.34730139 56.87009381 -51.7759457 54.35943208 -47.19921875 51.796875 C-41.79818195 49.22924305 -41.79818195 49.22924305 -38 45 C-40.97 44.505 -40.97 44.505 -44 44 C-43.94670532 42.5773584 -43.94670532 42.5773584 -43.89233398 41.12597656 C-43.76295279 37.60006905 -43.63867098 34.07405784 -43.51782227 30.54785156 C-43.46452188 29.02303937 -43.40920228 27.49829635 -43.35180664 25.97363281 C-43.26956049 23.77944855 -43.19462925 21.58511635 -43.12109375 19.390625 C-43.09405869 18.7113092 -43.06702362 18.03199341 -43.03916931 17.33209229 C-42.95481863 14.64428337 -42.92731725 12.27509659 -43.61743164 9.66308594 C-43.80680298 8.8398584 -43.80680298 8.8398584 -44 8 C-41.57174916 5.57174916 -40.57996563 5.62379885 -37.23046875 5.25390625 C-36.26455811 5.14030762 -35.29864746 5.02670898 -34.3034668 4.90966797 C-33.27519775 4.79510254 -32.24692871 4.68053711 -31.1875 4.5625 C-22.46600295 3.51448694 -7.8948289 -2.36844867 0 0 Z " fill="#5A5851" transform="translate(217,160)"/>
<path d="M0 0 C9.47399897 0.59212494 18.89786562 1.19223533 28.33984375 2.0859375 C29.43108047 2.18838776 30.5223172 2.29083801 31.6466217 2.39639282 C33.92787921 2.61179875 36.20900231 2.82863283 38.48999023 3.046875 C41.92696963 3.37399775 45.36478997 3.69101454 48.80273438 4.0078125 C86.25387857 7.52637674 86.25387857 7.52637674 95.68359375 17.30078125 C97.9596564 20.23872562 98.98098607 23.46451873 100 27 C100.33644531 28.08925781 100.67289062 29.17851562 101.01953125 30.30078125 C101.99754428 33.99073481 102.53423408 37.45545971 102.9375 41.25 C103.01468262 41.97364746 103.09186523 42.69729492 103.17138672 43.44287109 C104.66373917 57.93960004 105.79119931 72.47743461 107 87 C103.89585298 87.02903577 100.79174091 87.0468107 97.6875 87.0625 C96.36588867 87.07506836 96.36588867 87.07506836 95.01757812 87.08789062 C94.17001953 87.09111328 93.32246094 87.09433594 92.44921875 87.09765625 C91.66893311 87.10289307 90.88864746 87.10812988 90.0847168 87.11352539 C88 87 88 87 85 86 C83.43374296 85.79875885 81.86228797 85.63645789 80.2890625 85.5 C79.37382813 85.4175 78.45859375 85.335 77.515625 85.25 C76.56171875 85.1675 75.6078125 85.085 74.625 85 C72.74196973 84.83581207 70.85914714 84.66922109 68.9765625 84.5 C68.14205566 84.4278125 67.30754883 84.355625 66.44775391 84.28125 C63.92591466 83.9914875 61.48119904 83.53132971 59 83 C59 85.97 59 88.94 59 92 C58.34 92 57.68 92 57 92 C56.505 87.545 56.505 87.545 56 83 C41.44165637 81.04726409 27.67053102 80.65540141 13 82 C12.67 81.01 12.34 80.02 12 79 C13.32 79 14.64 79 16 79 C16 78.34 16 77.68 16 77 C13.36 77 10.72 77 8 77 C8 78.98 8 80.96 8 83 C5.36 83.33 2.72 83.66 0 84 C0 56.28 0 28.56 0 0 Z " fill="#151716" transform="translate(0,100)"/>
<path d="M0 0 C0.66 0.33 1.32 0.66 2 1 C1.67 3.64 1.34 6.28 1 9 C1.66 9 2.32 9 3 9 C3 10.32 3 11.64 3 13 C3.55239349 12.83832336 4.10478699 12.67664673 4.67391968 12.5100708 C7.25075013 11.94501466 9.57917942 11.85857732 12.21728516 11.83886719 C13.78139633 11.82445587 13.78139633 11.82445587 15.37710571 11.80975342 C16.50305145 11.80550354 17.62899719 11.80125366 18.7890625 11.796875 C19.96149506 11.79117493 21.13392761 11.78547485 22.34188843 11.77960205 C24.8317576 11.77014923 27.3216393 11.76361695 29.81152344 11.75976562 C33.56208337 11.75016112 37.31207105 11.71918261 41.0625 11.6875 C54.16856101 11.62947287 67.25237394 11.57336823 80 15 C82.3049699 17.3049699 82.37101002 18.10985812 82.81640625 21.24609375 C82.94080078 22.08333984 83.06519531 22.92058594 83.19335938 23.78320312 C83.31517578 24.65912109 83.43699219 25.53503906 83.5625 26.4375 C83.81157355 28.16568724 84.06278789 29.89356763 84.31640625 31.62109375 C84.42412354 32.3886499 84.53184082 33.15620605 84.64282227 33.94702148 C84.98051176 36.18976577 84.98051176 36.18976577 86 39 C85.67 39.33 85.34 39.66 85 40 C84.76962288 42.15914665 84.60396973 44.32524684 84.46484375 46.4921875 C84.42186661 47.15276154 84.37888947 47.81333557 84.33460999 48.493927 C84.24417971 49.901082 84.15607101 51.30838777 84.07006836 52.71582031 C83.9401513 54.83181751 83.80176178 56.94712575 83.66210938 59.0625 C81.78720002 72.61535622 81.78720002 72.61535622 85 85 C85.31884766 87.26831055 85.31884766 87.26831055 85.4140625 89.88671875 C85.45273437 90.82451172 85.49140625 91.76230469 85.53125 92.72851562 C85.5621875 93.70498047 85.593125 94.68144531 85.625 95.6875 C85.66367187 96.67556641 85.70234375 97.66363281 85.7421875 98.68164062 C85.83645867 101.12090707 85.92206218 103.56016595 86 106 C78.01510046 106.41159276 70.33100365 104.87014977 62.5 103.5 C61.09124948 103.25850917 59.68239593 103.01761856 58.2734375 102.77734375 C54.84774197 102.19181634 51.42351504 101.59816062 48 101 C48 98.69 48 96.38 48 94 C34.94455083 87.535042 20.93522148 87.81692335 6.6875 87.75 C5.41229492 87.7406543 4.13708984 87.73130859 2.82324219 87.72167969 C-3.92798653 87.74454136 -10.15048743 88.15499471 -16.71948242 89.76660156 C-19.44596368 90.04564193 -20.70410977 89.42473935 -23 88 C-22.01 86.68 -21.02 85.36 -20 84 C-20.66 83.01 -21.32 82.02 -22 81 C-19.13902842 76.92861736 -16.63972588 74.83655816 -12 73 C-10.68 73 -9.36 73 -8 73 C-8.00523682 72.25314941 -8.01047363 71.50629883 -8.01586914 70.73681641 C-8.03660401 67.36621943 -8.04964899 63.99563586 -8.0625 60.625 C-8.07087891 59.449375 -8.07925781 58.27375 -8.08789062 57.0625 C-8.09111328 55.94101563 -8.09433594 54.81953125 -8.09765625 53.6640625 C-8.10289307 52.62717285 -8.10812988 51.5902832 -8.11352539 50.52197266 C-8 48 -8 48 -7 46 C-6.77532169 44.46331135 -6.59203195 42.92031946 -6.4375 41.375 C-6.31181641 40.14910156 -6.31181641 40.14910156 -6.18359375 38.8984375 C-6.12300781 38.27195313 -6.06242187 37.64546875 -6 37 C-6.66 37 -7.32 37 -8 37 C-8.495 39.475 -8.495 39.475 -9 42 C-9.66 42 -10.32 42 -11 42 C-10.25 39.0625 -10.25 39.0625 -9 36 C-6.921875 35.30859375 -6.921875 35.30859375 -5 35 C-3.49647613 26.05184338 -2.6812777 17.28673477 -2.42993164 8.22338867 C-2.21073654 2.21073654 -2.21073654 2.21073654 0 0 Z " fill="#141615" transform="translate(306,35)"/>
<path d="M0 0 C4.7114094 1.83221477 4.7114094 1.83221477 6.6796875 2.9765625 C9.95930666 4.42312853 13.36297609 4.91358867 16.875 5.5 C21.75658764 6.32416415 26.32506628 7.3000241 31 9 C31 9.66 31 10.32 31 11 C32.27617187 11.06058594 33.55234375 11.12117187 34.8671875 11.18359375 C36.53647016 11.26799568 38.20574037 11.35264386 39.875 11.4375 C40.71675781 11.47681641 41.55851562 11.51613281 42.42578125 11.55664062 C43.23144531 11.59853516 44.03710938 11.64042969 44.8671875 11.68359375 C45.98262939 11.73858032 45.98262939 11.73858032 47.12060547 11.79467773 C49 12 49 12 51 13 C51 13.66 51 14.32 51 15 C52.2375 14.938125 53.475 14.87625 54.75 14.8125 C58.41269884 14.80411214 61.32853049 15.31582678 64.8125 16.40625 C75.05097072 19.06494966 85.73406878 19.10939907 96.25 19.6875 C98.45969672 19.81732009 100.66933315 19.94817063 102.87890625 20.08007812 C108.25196625 20.39861184 113.62563306 20.7043819 119 21 C119 31.125 119 31.125 118 35 C116.76137207 34.98952637 115.52274414 34.97905273 114.24658203 34.96826172 C109.56106568 34.93150155 104.87556146 34.90890021 100.18994141 34.89013672 C98.17885175 34.88020462 96.16777603 34.86665441 94.15673828 34.84912109 C78.10064118 34.71284868 62.28312705 34.96745925 46.70703125 39.29296875 C44.05484617 39.9856751 41.46022775 40.41499993 38.75 40.8125 C29.07420572 42.47442682 19.69618756 46.5449343 11 51 C9.34089996 51.68528045 7.67667436 52.35891863 6 53 C6 53.66 6 54.32 6 55 C2.69649386 58.11997802 1.67590167 59 -3 59 C-2.09349579 21.14251873 -2.09349579 21.14251873 -1.5 8.6875 C-1.46463135 7.89053711 -1.4292627 7.09357422 -1.39282227 6.27246094 C-1.12385653 1.12385653 -1.12385653 1.12385653 0 0 Z " fill="#5E5B54" transform="translate(228,171)"/>
<path d="M0 0 C0.495 2.97 0.495 2.97 1 6 C0.43410156 6.10957031 -0.13179688 6.21914063 -0.71484375 6.33203125 C-1.44832031 6.49058594 -2.18179688 6.64914063 -2.9375 6.8125 C-3.66839844 6.96332031 -4.39929688 7.11414063 -5.15234375 7.26953125 C-6.06693359 7.63111328 -6.06693359 7.63111328 -7 8 C-7.33 8.99 -7.66 9.98 -8 11 C-7.28908203 10.99476318 -6.57816406 10.98952637 -5.84570312 10.98413086 C8.90475594 10.89129416 23.63129193 10.98719766 38.375 11.4375 C39.05908936 11.45714813 39.74317871 11.47679626 40.44799805 11.49703979 C42.41078773 11.55452724 44.37337066 11.6189442 46.3359375 11.68359375 C47.45532715 11.72025146 48.5747168 11.75690918 49.72802734 11.79467773 C54.59316188 12.09997382 59.28499681 12.77344383 64 14 C63.75965985 20.68162051 63.51029456 27.36286551 63.25537109 34.04394531 C63.17008067 36.30494004 63.08667132 38.56600671 63.00537109 40.82714844 C62.43657708 56.59889367 61.46113252 72.28509061 60 88 C54.90283249 88.09167567 50.85077885 87.64926481 46 86 C45 85 45 85 44.90234375 82.05859375 C44.91394531 80.86363281 44.92554688 79.66867188 44.9375 78.4375 C44.94652344 77.23996094 44.95554687 76.04242188 44.96484375 74.80859375 C44.97644531 73.88175781 44.98804688 72.95492187 45 72 C45.99 71.67 46.98 71.34 48 71 C48 70.34 48 69.68 48 69 C47.34 69 46.68 69 46 69 C46 64.05 46 59.1 46 54 C44.35 54 42.7 54 41 54 C39.559906 47.82816857 38.42205621 41.67164065 37.46484375 35.40625 C37.24411547 33.05739875 37.24411547 33.05739875 36 32 C34.4663276 31.6503697 32.92238472 31.34533014 31.375 31.0625 C28.4461438 30.52629402 25.71978492 29.90843936 22.88427734 28.98193359 C18.59005538 27.747843 14.45894952 27.70327619 10.015625 27.69140625 C8.25650773 27.6662023 6.49739323 27.64080507 4.73828125 27.61523438 C2.01417084 27.58683294 -0.70989039 27.56278092 -3.43408203 27.54370117 C-16.2272806 27.43699347 -28.41803107 26.3489826 -41 24 C-40.67 19.05 -40.34 14.1 -40 9 C-30.43 9 -20.86 9 -11 9 C-11 7.35 -11 5.7 -11 4 C-9.52000197 1.92800276 -8.4567212 1.16206236 -6.0625 0.3125 C-4 0 -4 0 0 0 Z " fill="#453C34" transform="translate(350,19)"/>
<path d="M0 0 C0.93423645 3.01031744 1.04449911 3.86650268 0 7 C6.93 7.495 6.93 7.495 14 8 C14 8.33 14 8.66 14 9 C12.58344207 9.0272415 11.16672955 9.04650467 9.75 9.0625 C8.56664062 9.07990234 8.56664062 9.07990234 7.359375 9.09765625 C5 9 5 9 1 8 C0.67 12.62 0.34 17.24 0 22 C1.65 22.66 3.3 23.32 5 24 C5 24.99 5 25.98 5 27 C-3.15338013 33.79448344 -16.37021403 32.39842175 -26.375 32.375 C-27.12479126 32.37545319 -27.87458252 32.37590637 -28.64709473 32.37637329 C-42.751909 32.35134607 -57.35120358 31.94092759 -70 25 C-70 24.01 -70 23.02 -70 22 C-69.34 22 -68.68 22 -68 22 C-67.34 20.02 -66.68 18.04 -66 16 C-67.32 15.34 -68.64 14.68 -70 14 C-69.01 10.7 -68.02 7.4 -67 4 C-61.66755131 2.93351026 -60.03355305 3.48993409 -55 5 C-47.15608582 6.1377281 -39.35494735 6.23023849 -31.4375 6.25 C-30.44444855 6.25350464 -30.44444855 6.25350464 -29.43133545 6.25708008 C-19.28408275 6.27059869 -9.81499008 5.63405485 0 3 C0 2.01 0 1.02 0 0 Z " fill="#5A544C" transform="translate(354,129)"/>
<path d="M0 0 C1.14717155 3.44151466 0.79977786 4.85321416 0.125 8.375 C-1.0959142 15.60215656 -1.41345028 22.78385891 -1.65771484 30.10302734 C-1.68945801 30.98168457 -1.72120117 31.8603418 -1.75390625 32.765625 C-1.77783447 33.55743164 -1.8017627 34.34923828 -1.82641602 35.16503906 C-2 37 -2 37 -3 38 C-3.23701239 40.85877909 -3.42219182 43.69883297 -3.5625 46.5625 C-3.62727539 47.77196289 -3.62727539 47.77196289 -3.69335938 49.00585938 C-3.79975262 51.00368805 -3.90040888 53.0018207 -4 55 C-2.35 55 -0.7 55 1 55 C1 55.33 1 55.66 1 56 C0.23558594 56.04487549 -0.52882813 56.08975098 -1.31640625 56.13598633 C-20.88064684 57.27467229 -20.88064684 57.27467229 -40.19140625 60.4140625 C-43 61 -43 61 -46 61 C-46 61.66 -46 62.32 -46 63 C-47.32 62.67 -48.64 62.34 -50 62 C-49.01 62 -48.02 62 -47 62 C-47 55.73 -47 49.46 -47 43 C-37.62433167 42.06243317 -28.40752233 41.89255368 -19 42 C-19 41.01 -19 40.02 -19 39 C-20.2375 38.896875 -21.475 38.79375 -22.75 38.6875 C-38.01084526 36.98915474 -38.01084526 36.98915474 -42 33 C-44.57061311 32.35232207 -44.57061311 32.35232207 -47 32 C-47 29.69 -47 27.38 -47 25 C-44.63540802 23.81770401 -42.86588665 23.71858136 -40.23046875 23.5 C-39.26439697 23.4179834 -38.2983252 23.3359668 -37.30297852 23.25146484 C-36.27487061 23.16848145 -35.2467627 23.08549805 -34.1875 23 C-33.14972412 22.91314941 -32.11194824 22.82629883 -31.04272461 22.73681641 C-23.69775133 22.12583385 -16.35084136 21.53614582 -9 21 C-9.495 19.4221875 -9.495 19.4221875 -10 17.8125 C-10.83966782 14.61126643 -11.19750904 12.2588992 -11 9 C-10.236875 9.185625 -9.47375 9.37125 -8.6875 9.5625 C-5.91032625 10.22819173 -5.91032625 10.22819173 -3 9 C-2.23397184 7.15808143 -2.23397184 7.15808143 -1.875 5 C-1.07623318 1.07623318 -1.07623318 1.07623318 0 0 Z " fill="#61615C" transform="translate(283,79)"/>
<path d="M0 0 C8.93848355 1.11731044 8.93848355 1.11731044 13.0625 3.4375 C16.98728915 5.53512851 20.69098053 6.83987937 25 8 C28.25 9.0625 28.25 9.0625 31 11 C32.40885118 13.97659535 33.16184936 16.7870892 34 20 C37.63 20 41.26 20 45 20 C46.40742022 22.81484045 45.66652164 24.56936113 45.0625 27.625 C44.86785156 28.62789062 44.67320312 29.63078125 44.47265625 30.6640625 C44.23869141 31.82035156 44.23869141 31.82035156 44 33 C43.34 31.68 42.68 30.36 42 29 C41.34 29.99 40.68 30.98 40 32 C39.34 30.68 38.68 29.36 38 28 C37.34 28 36.68 28 36 28 C36.495 29.85625 36.495 29.85625 37 31.75 C37.79891159 34.74591845 38 36.80107719 38 40 C34.6681356 40.48973615 31.33429616 40.96462818 28 41.4375 C27.08476562 41.57220703 26.16953125 41.70691406 25.2265625 41.84570312 C16.77038341 43.03304334 8.60853508 43.46196656 0 44 C0 29.48 0 14.96 0 0 Z " fill="#2D2E2D" transform="translate(236,60)"/>
<path d="M0 0 C1.2392173 8.84048771 2.19517907 17.56252459 2.1875 26.5 C2.18814453 27.23532959 2.18878906 27.97065918 2.18945312 28.72827148 C2.13570475 33.86429525 2.13570475 33.86429525 1 35 C-6.85196105 35.69816334 -14.63619044 34.36842915 -22.375 33.1875 C-24.20272949 32.91728027 -24.20272949 32.91728027 -26.06738281 32.64160156 C-29.71263916 32.1011739 -33.35636328 31.55122716 -37 31 C-39.09105584 30.68819796 -41.18219542 30.37695671 -43.2734375 30.06640625 C-47.85014969 29.38531495 -52.4254811 28.69566417 -57 28 C-57 27.34 -57 26.68 -57 26 C-54.09399739 24.74335022 -52.20395416 24 -49 24 C-48.67 23.01 -48.34 22.02 -48 21 C-41.90505 15.70130237 -34.4139287 12.91393217 -27 10 C-23.82936906 8.6454112 -20.66169576 7.28426444 -17.49609375 5.91796875 C-15 5 -15 5 -12 5 C-9.96302383 3.37873325 -7.96185416 1.71140469 -6 0 C-3.50907189 -1.24546405 -2.58919267 -0.7767578 0 0 Z " fill="#5C5A54" transform="translate(169,167)"/>
<path d="M0 0 C0.33 0 0.66 0 1 0 C1 16.17 1 32.34 1 49 C-1.475 49.495 -1.475 49.495 -4 50 C-4.66 51.98 -5.32 53.96 -6 56 C-5.01 55.505 -5.01 55.505 -4 55 C-3.34786708 52.97536745 -3.34786708 52.97536745 -3 51 C-2.34 51 -1.68 51 -1 51 C-0.9729957 52.45823212 -0.95360213 53.91660675 -0.9375 55.375 C-0.92589844 56.18710938 -0.91429687 56.99921875 -0.90234375 57.8359375 C-1 60 -1 60 -2 62 C-2.15344209 63.88472859 -2.24959571 65.77427874 -2.31640625 67.6640625 C-2.35830078 68.78554687 -2.40019531 69.90703125 -2.44335938 71.0625 C-2.48267578 72.238125 -2.52199219 73.41375 -2.5625 74.625 C-2.60568359 75.80835937 -2.64886719 76.99171875 -2.69335938 78.2109375 C-2.79967426 81.14050328 -2.90170642 84.07015588 -3 87 C-3.54269531 87.1853833 -4.08539063 87.3707666 -4.64453125 87.56176758 C-5.35996094 87.81595459 -6.07539063 88.0701416 -6.8125 88.33203125 C-7.52019531 88.57928955 -8.22789062 88.82654785 -8.95703125 89.08129883 C-12.05997162 90.47665789 -13.79046725 92.44522776 -16 95 C-15.34 96.32 -14.68 97.64 -14 99 C-14.99 99.99 -15.98 100.98 -17 102 C-16.01 102.33 -15.02 102.66 -14 103 C-14.99 107.95 -14.99 107.95 -16 113 C-17.98 113 -19.96 113 -22 113 C-22.02684312 110.18743719 -22.04676188 107.37512759 -22.0625 104.5625 C-22.07087891 103.76005859 -22.07925781 102.95761719 -22.08789062 102.13085938 C-22.0965143 100.08704779 -22.0522815 98.04316098 -22 96 C-21.505 95.505 -21.505 95.505 -21 95 C-20.86668449 93.6394693 -20.79656974 92.27263085 -20.75390625 90.90625 C-20.72103516 90.03871094 -20.68816406 89.17117187 -20.65429688 88.27734375 C-20.59516669 86.48834107 -20.53774171 84.69928081 -20.48242188 82.91015625 C-20.26228816 77.1866796 -19.73788547 71.54861535 -19.0234375 65.8671875 C-18.02524196 57.86542598 -17.53344436 49.89189157 -17.16546631 41.8397522 C-16.5561351 28.73335213 -15.58163961 15.89098711 -13 3 C-12.67 3 -12.34 3 -12 3 C-11.80122324 24.96024465 -11.80122324 24.96024465 -13 35 C-9.37 35.33 -5.74 35.66 -2 36 C-2.02320313 34.99324219 -2.04640625 33.98648438 -2.0703125 32.94921875 C-2.24129014 21.8343362 -1.35563434 11.02663291 0 0 Z " fill="#262623" transform="translate(301,21)"/>
<path d="M0 0 C1.64866765 0.03889778 3.29560674 0.15821269 4.9375 0.3125 C5.83339844 0.39113281 6.72929688 0.46976563 7.65234375 0.55078125 C10.36625557 0.91495845 12.97221048 1.38959309 15.6484375 1.94921875 C22.28168054 3.31315022 28.97643038 4.06170365 35.69726562 4.85546875 C41.00076658 5.51091804 45.86056361 6.50406703 51 8 C52.78306944 8.31903688 54.57014831 8.61596803 56.359375 8.8984375 C64.38588354 10.17777183 72.30671027 11.91509419 80.25 13.625 C81.78510358 13.95337134 83.32025953 14.28149794 84.85546875 14.609375 C88.57092088 15.40343653 92.28565358 16.20078305 96 17 C96 17.66 96 18.32 96 19 C105.9 18.505 105.9 18.505 116 18 C115.67 18.66 115.34 19.32 115 20 C111.74055764 20.30011183 108.52421595 20.41527759 105.25390625 20.47851562 C101.51162705 20.62084721 99.09073636 20.96014676 95.59375 22.49609375 C90.9718237 24.43026943 87.09340423 24.6154944 82.125 24.625 C80.62803589 24.62959229 80.62803589 24.62959229 79.10083008 24.63427734 C62.27427735 24.27087424 45.58649334 20.50280991 29.09661865 17.39364624 C26.2189083 16.85334776 23.33822942 16.32993315 20.45703125 15.80859375 C17.96992202 15.35826216 15.48428071 14.90330263 13 14.4375 C8.35285563 13.75979145 3.67884332 13.39129117 -1 13 C-1.02686553 11.02090602 -1.04633375 9.04171029 -1.0625 7.0625 C-1.07410156 5.96035156 -1.08570312 4.85820312 -1.09765625 3.72265625 C-1 1 -1 1 0 0 Z " fill="#3B3A36" transform="translate(1,227)"/>
<path d="M0 0 C1.79240663 0.11389875 3.58394835 0.24147687 5.375 0.375 C6.87160156 0.47941406 6.87160156 0.47941406 8.3984375 0.5859375 C11 1 11 1 13 3 C15.95069483 3.41944724 18.8472998 3.74803964 21.8125 4 C23.42379133 4.13888225 25.03451515 4.28454188 26.64453125 4.4375 C27.35971924 4.49808594 28.07490723 4.55867188 28.81176758 4.62109375 C31.3912408 5.06774581 33.60372798 5.96218443 36 7 C36.25305591 24.45696464 35.81314325 41.63047346 34 59 C28.90283249 59.09167567 24.85077885 58.64926481 20 57 C19 56 19 56 18.90234375 53.05859375 C18.91394531 51.86363281 18.92554688 50.66867188 18.9375 49.4375 C18.94652344 48.23996094 18.95554687 47.04242188 18.96484375 45.80859375 C18.97644531 44.88175781 18.98804688 43.95492187 19 43 C20.485 42.505 20.485 42.505 22 42 C22 41.34 22 40.68 22 40 C21.34 40 20.68 40 20 40 C20 35.05 20 30.1 20 25 C18.35 25 16.7 25 15 25 C13.559906 18.82816857 12.42205621 12.67164065 11.46484375 6.40625 C11.24411547 4.05739875 11.24411547 4.05739875 10 3 C8.32115762 2.6068352 6.63149955 2.25914548 4.9375 1.9375 C4.01839844 1.76089844 3.09929687 1.58429687 2.15234375 1.40234375 C1.44207031 1.26957031 0.73179687 1.13679688 0 1 C0 0.67 0 0.34 0 0 Z " fill="#35312B" transform="translate(376,48)"/>
<path d="M0 0 C-0.33 1.32 -0.66 2.64 -1 4 C-2.23862793 3.98952637 -3.47725586 3.97905273 -4.75341797 3.96826172 C-9.43893432 3.93150155 -14.12443854 3.90890021 -18.81005859 3.89013672 C-20.82114825 3.88020462 -22.83222397 3.86665441 -24.84326172 3.84912109 C-40.89935882 3.71284868 -56.71687295 3.96745925 -72.29296875 8.29296875 C-74.94515383 8.9856751 -77.53977225 9.41499993 -80.25 9.8125 C-89.92579428 11.47442682 -99.30381244 15.5449343 -108 20 C-109.65910004 20.68528045 -111.32332564 21.35891863 -113 22 C-113 22.66 -113 23.32 -113 24 C-115.31 23.34 -117.62 22.68 -120 22 C-120.3125 18.6875 -120.3125 18.6875 -120 15 C-118 13.3125 -118 13.3125 -115 12 C-113.74962398 11.33403886 -112.49965391 10.66731519 -111.25 10 C-102.3979701 5.69517932 -93.05917527 3.78397483 -83.4375 1.9375 C-82.75703613 1.80615662 -82.07657227 1.67481323 -81.37548828 1.53948975 C-57.15872213 -3.08706658 -23.79052341 -8.69609028 0 0 Z " fill="#4C4A44" transform="translate(347,202)"/>
<path d="M0 0 C1.4540625 0.0309375 1.4540625 0.0309375 2.9375 0.0625 C2.9375 0.7225 2.9375 1.3825 2.9375 2.0625 C4.9175 2.0625 6.8975 2.0625 8.9375 2.0625 C8.6075 3.0525 8.2775 4.0425 7.9375 5.0625 C8.94006836 4.90402588 9.94263672 4.74555176 10.97558594 4.58227539 C14.78808717 4.08210192 18.48620626 3.85806358 22.328125 3.74609375 C23.02266281 3.72531265 23.71720062 3.70453156 24.43278503 3.68312073 C26.68425544 3.61757913 28.93583648 3.5584995 31.1875 3.5 C31.95651642 3.47848877 32.72553284 3.45697754 33.51785278 3.43481445 C45.26845439 3.10691478 57.005047 2.9713648 68.76074219 3.09936523 C69.7871582 3.10782471 70.81357422 3.11628418 71.87109375 3.125 C72.75853271 3.13660156 73.64597168 3.14820313 74.56030273 3.16015625 C76.86495092 3.06548035 78.76464639 2.83550232 80.9375 2.0625 C81.2675 1.4025 81.5975 0.7425 81.9375 0.0625 C82.5975 0.0625 83.2575 0.0625 83.9375 0.0625 C83.9375 0.7225 83.9375 1.3825 83.9375 2.0625 C92.5175 2.7225 101.0975 3.3825 109.9375 4.0625 C109.9375 4.3925 109.9375 4.7225 109.9375 5.0625 C107.9575 5.3925 105.9775 5.7225 103.9375 6.0625 C108.8875 7.0525 108.8875 7.0525 113.9375 8.0625 C113.9375 8.3925 113.9375 8.7225 113.9375 9.0625 C110.6133122 9.79219976 108.0566894 10.07985267 104.66918945 9.58666992 C100.95206316 9.06454561 97.54137875 9.00699457 93.79296875 9.11328125 C92.7800753 9.14056305 92.7800753 9.14056305 91.74671936 9.168396 C89.53922008 9.23048579 87.33217171 9.30224623 85.125 9.375 C84.36626587 9.39795135 83.60753174 9.42090271 82.82580566 9.44454956 C69.49140439 9.84877538 56.18038495 10.54427326 42.86791992 11.40161133 C41.8436515 11.46690033 41.8436515 11.46690033 40.7986908 11.5335083 C38.96491102 11.65136503 37.13137005 11.77292122 35.29785156 11.89477539 C31.83867083 12.06743284 28.40038968 12.0908708 24.9375 12.0625 C24.6075 13.7125 24.2775 15.3625 23.9375 17.0625 C19.4825 15.0825 19.4825 15.0825 14.9375 13.0625 C14.9375 12.4025 14.9375 11.7425 14.9375 11.0625 C9.95520224 9.14623163 5.21065333 8.5077885 -0.0625 8.0625 C-0.0625 7.4025 -0.0625 6.7425 -0.0625 6.0625 C-3.22495541 5.0083482 -5.93198218 4.74974328 -9.25 4.5 C-10.33667969 4.41621094 -11.42335938 4.33242188 -12.54296875 4.24609375 C-13.37441406 4.18550781 -14.20585938 4.12492187 -15.0625 4.0625 C-15.0625 3.4025 -15.0625 2.7425 -15.0625 2.0625 C-14.28003906 2.00191406 -13.49757813 1.94132812 -12.69140625 1.87890625 C-11.67949219 1.79511719 -10.66757813 1.71132813 -9.625 1.625 C-8.61566406 1.54378906 -7.60632813 1.46257813 -6.56640625 1.37890625 C-3.37093261 0.97511005 -3.41885129 0.06977248 0 0 Z " fill="#353637" transform="translate(103.0625,47.9375)"/>
<path d="M0 0 C0.6620343 0.00177246 1.3240686 0.00354492 2.00616455 0.00537109 C11.95599902 0.03670251 21.63621977 0.49641632 31.4375 2.25 C30.7775 3.24 30.1175 4.23 29.4375 5.25 C29.128125 6.28125 28.81875 7.3125 28.5 8.375 C27.9740625 9.798125 27.9740625 9.798125 27.4375 11.25 C22.39955913 12.92931362 17.06240286 12.47549818 11.79052734 12.49023438 C9.73621447 12.49977379 7.68297708 12.53072322 5.62890625 12.5625 C-16.32973809 12.73850794 -16.32973809 12.73850794 -24.5625 7.25 C-24.2325 5.6 -23.9025 3.95 -23.5625 2.25 C-15.66106916 0.08333996 -8.16486281 -0.05706132 0 0 Z " fill="#78756F" transform="translate(312.5625,121.75)"/>
<path d="M0 0 C0 3.63 0 7.26 0 11 C-6.27 10.67 -12.54 10.34 -19 10 C-18.67 10.99 -18.34 11.98 -18 13 C-20.33294775 13.04241723 -22.66702567 13.04092937 -25 13 C-25.33 12.67 -25.66 12.34 -26 12 C-26.99 11.896875 -27.98 11.79375 -29 11.6875 C-33.72513866 11.09808561 -37.75729665 9.06843814 -42 7 C-42.042721 5.33388095 -42.04063832 3.66617115 -42 2 C-40.36007826 0.36007826 -38.37909468 0.67868708 -36.1171875 0.5 C-34.61285156 0.37625 -34.61285156 0.37625 -33.078125 0.25 C-31.49257812 0.12625 -31.49257812 0.12625 -29.875 0 C-21.90951642 -0.59278845 -21.90951642 -0.59278845 -13.98828125 -1.5859375 C-9.08722623 -2.26503793 -4.75312969 -1.18828242 0 0 Z " fill="#777872" transform="translate(279,102)"/>
<path d="M0 0 C5.96979766 0.66331085 10.47143821 1.23556539 16 3 C16.33853295 11.16240568 15.29901921 18.95072024 14 27 C11.36 26.34 8.72 25.68 6 25 C5.67 25.66 5.34 26.32 5 27 C3.02 27.33 1.04 27.66 -1 28 C-0.67 18.76 -0.34 9.52 0 0 Z " fill="#353531" transform="translate(394,107)"/>
<path d="M0 0 C0.67804688 0.45890625 1.35609375 0.9178125 2.0546875 1.390625 C7.48063104 4.96783985 12.69594134 7.95025212 18.80859375 10.17578125 C20.95973912 10.98485732 22.96374936 11.93781003 25 13 C24.814375 13.61875 24.62875 14.2375 24.4375 14.875 C23.76313824 17.04160178 23.76313824 17.04160178 25 19 C19.90543306 19.61752327 17.22616972 17.55164964 13 15 C12.34 15 11.68 15 11 15 C10.67 21.6 10.34 28.2 10 35 C9.67 35 9.34 35 9 35 C9 27.08 9 19.16 9 11 C8.01 11 7.02 11 6 11 C6 10.34 6 9.68 6 9 C3.42264932 10.07150648 3.42264932 10.07150648 1 12 C0.24739273 14.8009899 0.24739273 14.8009899 0.36889648 18.06030273 C0.35636337 19.30847275 0.34383026 20.55664276 0.33091736 21.84263611 C0.34318667 23.20629922 0.35660684 24.56995239 0.37109375 25.93359375 C0.37026506 27.33220097 0.36780566 28.7308081 0.36378479 30.12940979 C0.36092564 33.0609366 0.37563544 35.99169988 0.40307617 38.9230957 C0.43712942 42.67728847 0.43115334 46.43011312 0.4124136 50.18437099 C0.40183336 53.07297626 0.41079089 55.96126437 0.42579842 58.84984016 C0.43097542 60.23369466 0.43050422 61.61758236 0.42425346 63.00143242 C0.41879135 64.93776616 0.44204898 66.87411634 0.46655273 68.81030273 C0.47275131 69.91155991 0.47894989 71.01281708 0.4853363 72.14744568 C1.11776907 75.65274212 2.249465 76.81105063 5 79 C5.70898438 79.31066406 6.41796875 79.62132812 7.1484375 79.94140625 C9 81 9 81 9.9765625 83.27734375 C10.19054687 84.15519531 10.40453125 85.03304687 10.625 85.9375 C11.45291327 89.24428301 12.07215112 91.10822668 14 94 C11.35311783 92.83537184 8.91589801 91.3919258 6.5 89.8125 C5.9328125 89.44769531 5.365625 89.08289063 4.78125 88.70703125 C1.0102206 85.09312808 -0.82503037 81.34337702 -1.48774719 76.25518799 C-1.5021712 74.89837916 -1.49515273 73.54122212 -1.4699707 72.18457031 C-1.4721611 71.43734207 -1.4743515 70.69011383 -1.47660828 69.92024231 C-1.47890319 67.47240604 -1.45276129 65.02579898 -1.42578125 62.578125 C-1.4208531 60.8689614 -1.41755699 59.15979238 -1.41581726 57.45062256 C-1.40819853 53.87982775 -1.3876984 50.30943684 -1.35668945 46.73876953 C-1.31699593 42.159933 -1.2990586 37.58135797 -1.28938007 33.00236893 C-1.27941585 28.63175222 -1.25953661 24.26119925 -1.23828125 19.890625 C-1.2348855 19.05661415 -1.23148975 18.2226033 -1.2279911 17.3633194 C-1.21642632 15.00808599 -1.19790964 12.65301834 -1.17700195 10.29785156 C-1.17431305 9.59962784 -1.17162415 8.90140411 -1.16885376 8.18202209 C-1.13537098 5.17830356 -0.95822994 2.87468981 0 0 Z " fill="#322F2A" transform="translate(217,157)"/>
<path d="M0 0 C0.66 0 1.32 0 2 0 C2 13.53 2 27.06 2 41 C-1.3 40.34 -4.6 39.68 -8 39 C-8.33 38.34 -8.66 37.68 -9 37 C-11.27029535 36.19004154 -11.27029535 36.19004154 -14 35.5625 C-19.08829378 34.25883258 -24.04095893 32.72648097 -29 31 C-29 30.67 -29 30.34 -29 30 C-27.35 29.67 -25.7 29.34 -24 29 C-24 28.34 -24 27.68 -24 27 C-13.11 25.515 -13.11 25.515 -2 24 C-1.34 16.08 -0.68 8.16 0 0 Z " fill="#31312C" transform="translate(418,112)"/>
<path d="M0 0 C0 6.6 0 13.2 0 20 C-2.64 20.99 -5.28 21.98 -8 23 C-9.11375 23.556875 -10.2275 24.11375 -11.375 24.6875 C-14 26 -14 26 -16 26 C-16.02712325 23.12493579 -16.04689851 20.25013092 -16.0625 17.375 C-16.07087891 16.56675781 -16.07925781 15.75851563 -16.08789062 14.92578125 C-16.1058955 10.49658082 -15.89622662 6.36116576 -15 2 C-12.36 2 -9.72 2 -7 2 C-7 1.34 -7 0.68 -7 0 C-2.25 -1.125 -2.25 -1.125 0 0 Z " fill="#6B6A63" transform="translate(298,88)"/>
<path d="M0 0 C2.31 0 4.62 0 7 0 C7 11.22 7 22.44 7 34 C4.03 34 1.06 34 -2 34 C-3 33 -3 33 -3.03759766 31.13330078 C-2.99683105 30.32876465 -2.95606445 29.52422852 -2.9140625 28.6953125 C-2.87087891 27.80618164 -2.82769531 26.91705078 -2.78320312 26.00097656 C-2.70489258 24.57736816 -2.70489258 24.57736816 -2.625 23.125 C-2.57537109 22.17077148 -2.52574219 21.21654297 -2.47460938 20.23339844 C-1.46420654 1.46420654 -1.46420654 1.46420654 0 0 Z " fill="#101111" transform="translate(292,23)"/>
<path d="M0 0 C0 0.33 0 0.66 0 1 C-6.80888986 2.58310532 -13.42643067 3.33028848 -20.41015625 3.65625 C-21.26480469 3.7696875 -22.11945313 3.883125 -23 4 C-23.33 4.66 -23.66 5.32 -24 6 C-30.75 6.125 -30.75 6.125 -33 5 C-37.11592992 5.37417545 -39.52735662 5.68490441 -43 8 C-43.495 7.01 -43.495 7.01 -44 6 C-44.66 6.66 -45.32 7.32 -46 8 C-46.495 6.515 -46.495 6.515 -47 5 C-48.6396875 5.2475 -48.6396875 5.2475 -50.3125 5.5 C-54 6 -54 6 -57 6 C-59.07158869 6.53328026 -61.11230375 7.1400246 -63.16015625 7.7578125 C-63.76730469 7.83773437 -64.37445313 7.91765625 -65 8 C-65.66 7.34 -66.32 6.68 -67 6 C-69.89883083 5.75660449 -69.89883083 5.75660449 -73.125 5.875 C-74.76855469 5.90207031 -74.76855469 5.90207031 -76.4453125 5.9296875 C-77.28835937 5.95289063 -78.13140625 5.97609375 -79 6 C-79.33 5.34 -79.66 4.68 -80 4 C-83.04581269 3.53045739 -83.04581269 3.53045739 -86.5625 3.375 C-87.76003906 3.30023438 -88.95757812 3.22546875 -90.19140625 3.1484375 C-91.11824219 3.09945312 -92.04507813 3.05046875 -93 3 C-93 2.67 -93 2.34 -93 2 C-92.01757324 1.97494385 -91.03514648 1.9498877 -90.02294922 1.92407227 C-86.18262294 1.82609025 -82.34230322 1.7278524 -78.50198364 1.62960815 C-75.86322525 1.56219921 -73.22445958 1.49508041 -70.58569336 1.42797852 C-61.56077481 1.19786412 -52.53608987 0.96165021 -43.51171875 0.7109375 C-41.00026757 0.64196653 -38.48881232 0.57314596 -35.97735596 0.50436401 C-34.39314598 0.46049944 -32.80895701 0.41586818 -31.22479248 0.37039185 C-20.81328199 0.07172266 -10.41580356 -0.05557683 0 0 Z " fill="#262521" transform="translate(104,32)"/>
<path d="M0 0 C1.4025 0.28875 2.805 0.5775 4.25 0.875 C13.08832337 2.50097276 22.05881685 3.17681565 31 4 C31 6.97 31 9.94 31 13 C19.87310389 13.41900446 10.34568979 13.62561779 0 9 C0 6.03 0 3.06 0 0 Z " fill="#383732" transform="translate(389,200)"/>
<path d="M0 0 C0.33 0 0.66 0 1 0 C1.04967973 5.69253284 1.08585156 11.38493762 1.10986328 17.07763672 C1.11988036 19.01157837 1.13349784 20.94550504 1.15087891 22.87939453 C1.17531686 25.66963414 1.18652628 28.45967236 1.1953125 31.25 C1.20563507 32.10553467 1.21595764 32.96106934 1.22659302 33.8425293 C1.22758534 39.2306838 0.50836097 43.82251183 -1 49 C-1.33 49 -1.66 49 -2 49 C-2 45.7 -2 42.4 -2 39 C-5.63 38.67 -9.26 38.34 -13 38 C-13.33 43.28 -13.66 48.56 -14 54 C-13.34 54.33 -12.68 54.66 -12 55 C-13.65 56.32 -15.3 57.64 -17 59 C-18.49056237 56.01887525 -17.94966356 53.06416209 -17.765625 49.81640625 C-17.72792999 49.09273865 -17.69023499 48.36907104 -17.65139771 47.62347412 C-17.52506406 45.2693345 -17.38852429 42.91595192 -17.25 40.5625 C-17.18247528 39.37290176 -17.18247528 39.37290176 -17.11358643 38.15927124 C-16.43026036 26.3040609 -15.33502845 14.65957539 -13 3 C-12.67 3 -12.34 3 -12 3 C-11.80122324 24.96024465 -11.80122324 24.96024465 -13 35 C-9.37 35.33 -5.74 35.66 -2 36 C-2.02320313 34.99324219 -2.04640625 33.98648438 -2.0703125 32.94921875 C-2.24129014 21.8343362 -1.35563434 11.02663291 0 0 Z " fill="#302F2B" transform="translate(301,21)"/>
<path d="M0 0 C20.97938144 -0.34020619 20.97938144 -0.34020619 28 2 C29.55178929 2.21183708 31.10888672 2.38619937 32.66796875 2.53515625 C33.56064453 2.62216797 34.45332031 2.70917969 35.37304688 2.79882812 C36.76620117 2.9293457 36.76620117 2.9293457 38.1875 3.0625 C39.12787109 3.15337891 40.06824219 3.24425781 41.03710938 3.33789062 C43.3577922 3.56171283 45.67873689 3.78229246 48 4 C48.495 6.97 48.495 6.97 49 10 C44.69119314 11.17238797 41.3128679 10.77601851 36.93359375 10.0390625 C36.25885513 9.929039 35.58411652 9.8190155 34.88893127 9.70565796 C32.73698505 9.35373305 30.58722092 8.99025205 28.4375 8.625 C25.62466867 8.15281745 22.81096742 7.68641463 19.99609375 7.2265625 C19.31606293 7.11532043 18.6360321 7.00407837 17.93539429 6.88946533 C11.97611991 5.94196414 6.02010552 5.37190395 0 5 C0 3.35 0 1.7 0 0 Z " fill="#3D3D39" transform="translate(60,184)"/>
<path d="M0 0 C0.66 0 1.32 0 2 0 C2.42466553 0.46051758 2.84933105 0.92103516 3.28686523 1.39550781 C9.51703054 7.23057214 21.46787597 6.41539099 29.4375 6.25 C30.5320752 6.23614258 31.62665039 6.22228516 32.75439453 6.20800781 C35.83716668 6.15937351 38.91804928 6.08515146 42 6 C42.73589355 5.98453125 43.47178711 5.9690625 44.22998047 5.953125 C51.28231465 5.77831889 57.07147269 4.541909 63.62109375 1.9296875 C66.42536736 0.83376448 68.98690973 0.15065451 72 0 C72.99 0.66 73.98 1.32 75 2 C75 2.99 75 3.98 75 5 C66.84661987 11.79448344 53.62978597 10.39842175 43.625 10.375 C42.87520874 10.37545319 42.12541748 10.37590637 41.35290527 10.37637329 C27.248091 10.35134607 12.64879642 9.94092759 0 3 C0 2.01 0 1.02 0 0 Z " fill="#46413A" transform="translate(284,151)"/>
<path d="M0 0 C7.13882874 -0.26213569 13.89812158 0.74517375 20.9375 1.875 C22.06607422 2.04902344 23.19464844 2.22304687 24.35742188 2.40234375 C29.10715431 3.14837502 33.82702655 3.91703632 38.51171875 5.00390625 C44.24751767 6.33364309 50.05689199 7.17801306 55.875 8.0625 C56.98230469 8.23587891 58.08960938 8.40925781 59.23046875 8.58789062 C77.59518088 11.48534788 77.59518088 11.48534788 96 10 C96 10.66 96 11.32 96 12 C95.01 12 94.02 12 93 12 C93 12.66 93 13.32 93 14 C71.50276149 15.38905233 51.12183589 11.35794814 30.09661865 7.39364624 C27.2189083 6.85334776 24.33822942 6.32993315 21.45703125 5.80859375 C18.96992202 5.35826216 16.48428071 4.90330263 14 4.4375 C9.35285563 3.75979145 4.67884332 3.39129117 0 3 C0 2.01 0 1.02 0 0 Z " fill="#2D2C28" transform="translate(0,237)"/>
<path d="M0 0 C-9.24106555 6.16071037 -25.07303429 5.85050484 -36 7 C-37.01111093 10.04913228 -37.01111093 10.04913228 -36 13 C-35.97177903 14.9023501 -36.01191164 16.8059125 -36.0859375 18.70703125 C-36.12976563 19.85107422 -36.17359375 20.99511719 -36.21875 22.17382812 C-36.2703125 23.37458984 -36.321875 24.57535156 -36.375 25.8125 C-36.41882813 27.00166016 -36.46265625 28.19082031 -36.5078125 29.41601562 C-36.70876568 34.38681575 -36.90213802 39.13475568 -38 44 C-36.02 44.33 -34.04 44.66 -32 45 C-32.33 45.99 -32.66 46.98 -33 48 C-35.0625 48.6875 -35.0625 48.6875 -37 49 C-37.45375 48.34 -37.9075 47.68 -38.375 47 C-38.91125 46.34 -39.4475 45.68 -40 45 C-40.66 45 -41.32 45 -42 45 C-42 44.34 -42 43.68 -42 43 C-43.32 42.67 -44.64 42.34 -46 42 C-43.525 41.505 -43.525 41.505 -41 41 C-40.97285566 38.2915983 -40.95309154 35.58347279 -40.9375 32.875 C-40.92912109 32.11445313 -40.92074219 31.35390625 -40.91210938 30.5703125 C-40.89346586 26.24501677 -41.24084358 22.27025489 -42 18 C-42.06388388 16.04259807 -42.08638169 14.08329853 -42.0625 12.125 C-42.05347656 11.15820312 -42.04445312 10.19140625 -42.03515625 9.1953125 C-42.02355469 8.47085938 -42.01195312 7.74640625 -42 7 C-43.32 6.34 -44.64 5.68 -46 5 C-42.71976333 2.81317555 -41.88471323 2.77394881 -38.10546875 2.875 C-36.67170898 2.89820313 -36.67170898 2.89820313 -35.20898438 2.921875 C-33.20637236 2.97365553 -31.20376805 3.0257353 -29.20117188 3.078125 C-23.99191021 3.16208892 -19.89879856 2.9985896 -15 1 C-9.9289032 0.195064 -5.12695321 -0.10681153 0 0 Z " fill="#2B2B28" transform="translate(211,160)"/>
<path d="M0 0 C1.32 0.33 2.64 0.66 4 1 C4 1.66 4 2.32 4 3 C3.01 3.495 3.01 3.495 2 4 C7.445 4.495 7.445 4.495 13 5 C13 5.66 13 6.32 13 7 C6.53285589 8.83017871 0.25297014 9.59324928 -6.4375 10.125 C-7.42298828 10.21136719 -8.40847656 10.29773438 -9.42382812 10.38671875 C-15.30481966 10.8777757 -21.0991762 11.08543075 -27 11 C-27.33 11.66 -27.66 12.32 -28 13 C-28 10.03 -28 7.06 -28 4 C-18.64087671 3.00736571 -9.39605802 2.89268462 0 3 C0 2.01 0 1.02 0 0 Z " fill="#4C4D48" transform="translate(264,118)"/>
<path d="M0 0 C1.98 0.495 1.98 0.495 4 1 C3.01 1.495 3.01 1.495 2 2 C2 2.66 2 3.32 2 4 C3.51870698 4.485864 5.04010699 4.96331201 6.5625 5.4375 C7.40941406 5.70433594 8.25632812 5.97117188 9.12890625 6.24609375 C15.097521 7.81336266 20.97799706 8.14246574 27.12109375 8.09765625 C27.86585464 8.0962413 28.61061554 8.09482635 29.37794495 8.09336853 C31.73117273 8.08781989 34.0843015 8.07527733 36.4375 8.0625 C38.04361841 8.05747835 39.64973832 8.05291661 41.25585938 8.04882812 C45.17061043 8.03786735 49.08528849 8.02063884 53 8 C54.01540112 3.89776415 54.01540112 3.89776415 53 0 C58.67276511 -0.29341888 61.99067246 -0.00559652 67 3 C67 4.32 67 5.64 67 7 C56.64825899 10.70413736 46.82383728 11.38581767 35.875 11.375 C34.6257373 11.37628906 33.37647461 11.37757813 32.08935547 11.37890625 C20.5971095 11.24623963 9.05272362 11.03163417 -1 5 C-0.67 3.35 -0.34 1.7 0 0 Z " fill="#99958F" transform="translate(287,125)"/>
<path d="M0 0 C0 2.97 0 5.94 0 9 C-2.31309705 8.88658363 -4.62550185 8.75896193 -6.9375 8.625 C-8.22527344 8.55539063 -9.51304687 8.48578125 -10.83984375 8.4140625 C-12.40412109 8.20910156 -12.40412109 8.20910156 -14 8 C-14.33 7.34 -14.66 6.68 -15 6 C-17.83833358 5.37865356 -17.83833358 5.37865356 -21.1875 5 C-25.6968337 4.42280529 -29.72366468 3.55739071 -34 2 C-34 1.67 -34 1.34 -34 1 C-30.14782375 0.46368931 -26.29307586 -0.05125109 -22.4375 -0.5625 C-21.35146484 -0.71396484 -20.26542969 -0.86542969 -19.14648438 -1.02148438 C-12.18591238 -1.93122479 -6.71807361 -2.23935787 0 0 Z " fill="#9FA09B" transform="translate(278,102)"/>
<path d="M0 0 C-1.40364783 5.35140734 -1.40364783 5.35140734 -4 8 C-10.13713996 9.977022 -16.5422728 11 -23 11 C-23 11.66 -23 12.32 -23 13 C-24.32 12.67 -25.64 12.34 -27 12 C-26.01 12 -25.02 12 -24 12 C-24.01160156 11.30132812 -24.02320313 10.60265625 -24.03515625 9.8828125 C-24.04417969 8.97273437 -24.05320313 8.06265625 -24.0625 7.125 C-24.07410156 6.22007812 -24.08570313 5.31515625 -24.09765625 4.3828125 C-24 2 -24 2 -23 0 C-15.26790443 -1.44157714 -7.79136225 -0.72039623 0 0 Z " fill="#63645F" transform="translate(260,129)"/>
<path d="M0 0 C13.4240989 -0.43200318 26.48865805 0.92669831 39.8125 2.4375 C43.94329798 2.90121039 48.0747238 3.3585313 52.20703125 3.80859375 C53.20524399 3.918013 54.20345673 4.02743225 55.23191833 4.14016724 C62.48310998 4.90793916 69.7199601 5.40081537 77.00862122 5.62120056 C85.96103742 5.94860573 91.56024452 9.05561032 98 15 C97.67 15.66 97.34 16.32 97 17 C93 15 93 15 91.1875 14.0625 C85.12754888 11.11909517 79.98343644 9.39554777 73.3125 8.5625 C72.41257324 8.44398682 71.51264648 8.32547363 70.58544922 8.20336914 C57.74285461 6.60289011 44.83090163 5.55718484 31.9387207 4.44555664 C21.25630604 3.5191219 10.62754869 2.43285343 0 1 C0 0.67 0 0.34 0 0 Z " fill="#4E5050" transform="translate(0,99)"/>
<path d="M0 0 C5.21979128 -0.1799928 9.07262981 0.02905192 14 2 C14.02708567 3.60407328 14.04643483 5.2082785 14.0625 6.8125 C14.07410156 7.70582031 14.08570313 8.59914063 14.09765625 9.51953125 C14 12 14 12 13 15 C6.07 14.505 6.07 14.505 -1 14 C-1.125 2.25 -1.125 2.25 0 0 Z " fill="#3D3630" transform="translate(397,74)"/>
<path d="M0 0 C4.95 0 9.9 0 15 0 C15 10.89 15 21.78 15 33 C14.67 33 14.34 33 14 33 C13.67 26.73 13.34 20.46 13 14 C12.67 16.64 12.34 19.28 12 22 C11.67 22 11.34 22 11 22 C11 16.39 11 10.78 11 5 C8.69 5.33 6.38 5.66 4 6 C3.01 16.56 2.02 27.12 1 38 C0.67 38 0.34 38 0 38 C0 29.09 0 20.18 0 11 C-0.33 12.98 -0.66 14.96 -1 17 C-1.33 17 -1.66 17 -2 17 C-1.85941524 14.54126232 -1.71277001 12.08314825 -1.5625 9.625 C-1.52318359 8.92632812 -1.48386719 8.22765625 -1.44335938 7.5078125 C-1.11328125 2.2265625 -1.11328125 2.2265625 0 0 Z " fill="#272623" transform="translate(288,18)"/>
<path d="M0 0 C0.33 0 0.66 0 1 0 C1 0.763125 1 1.52625 1 2.3125 C1.69930204 5.04543876 1.69930204 5.04543876 3.6015625 5.96484375 C7.99764826 7.67066081 12.31782279 8.42667218 17 9 C17.33 9.33 17.66 9.66 18 10 C20.32817964 10.36760731 22.6618385 10.70241581 25 11 C24.34 9.68 23.68 8.36 23 7 C25.7920301 7.1404983 28.58349796 7.28715383 31.375 7.4375 C32.1690625 7.47681641 32.963125 7.51613281 33.78125 7.55664062 C39.7734375 7.88671875 39.7734375 7.88671875 42 9 C42.04241723 11.33294775 42.04092937 13.66702567 42 16 C41.505 16.495 41.505 16.495 41 17 C32.01116254 16.18283296 23.25776487 14.11424631 14.5 12 C13.79294922 11.83395264 13.08589844 11.66790527 12.35742188 11.49682617 C7.2323304 10.2323304 7.2323304 10.2323304 5 8 C2.42938689 7.35232207 2.42938689 7.35232207 0 7 C0 4.69 0 2.38 0 0 Z " fill="#6C6E68" transform="translate(236,104)"/>
<path d="M0 0 C1.65 0 3.3 0 5 0 C5.66 0.66 6.32 1.32 7 2 C9.21657142 2.7385739 9.21657142 2.7385739 11.7890625 3.2890625 C13.20058594 3.61777344 13.20058594 3.61777344 14.640625 3.953125 C15.62546875 4.17484375 16.6103125 4.3965625 17.625 4.625 C18.61757812 4.85445313 19.61015625 5.08390625 20.6328125 5.3203125 C23.08713006 5.88669348 25.54279807 6.44629109 28 7 C28 7.99 28 8.98 28 10 C18.64538429 10.66479503 9.38554713 11.11731934 0 11 C0 7.37 0 3.74 0 0 Z " fill="#272924" transform="translate(236,111)"/>
<path d="M0 0 C1.14717155 3.44151466 0.79977786 4.85321416 0.125 8.375 C-1.0959142 15.60215656 -1.41345028 22.78385891 -1.65771484 30.10302734 C-1.68945801 30.98168457 -1.72120117 31.8603418 -1.75390625 32.765625 C-1.77783447 33.55743164 -1.8017627 34.34923828 -1.82641602 35.16503906 C-2 37 -2 37 -3 38 C-3.23701239 40.85877909 -3.42219182 43.69883297 -3.5625 46.5625 C-3.62727539 47.77196289 -3.62727539 47.77196289 -3.69335938 49.00585938 C-3.79975262 51.00368805 -3.90040888 53.0018207 -4 55 C-4.33 55 -4.66 55 -5 55 C-5.20638953 32.19872014 -5.20638953 32.19872014 -4 23 C-5.98 22.67 -7.96 22.34 -10 22 C-10.33 17.71 -10.66 13.42 -11 9 C-8.525 9.495 -8.525 9.495 -6 10 C-5.01 9.67 -4.02 9.34 -3 9 C-2.23397184 7.15808143 -2.23397184 7.15808143 -1.875 5 C-1.07623318 1.07623318 -1.07623318 1.07623318 0 0 Z " fill="#474743" transform="translate(283,79)"/>
<path d="M0 0 C0.33 0 0.66 0 1 0 C1.00364563 0.89313904 1.00729126 1.78627808 1.01104736 2.70648193 C1.04891241 11.12309331 1.10574805 19.53931661 1.18390274 27.95565414 C1.22341389 32.28262602 1.25558434 36.60939329 1.27099609 40.93652344 C1.28613899 45.11241533 1.32054162 49.28774484 1.36830902 53.46338654 C1.38314741 55.05653241 1.39104243 56.64975857 1.39188385 58.24297333 C1.39424803 60.47476673 1.42127938 62.70499896 1.45410156 64.93652344 C1.46298401 66.20671326 1.47186646 67.47690308 1.48101807 68.7855835 C2.08886197 72.55038404 3.0202548 73.70524375 6 76 C6.70898438 76.31066406 7.41796875 76.62132812 8.1484375 76.94140625 C10 78 10 78 10.9765625 80.27734375 C11.19054687 81.15519531 11.40453125 82.03304687 11.625 82.9375 C12.45291327 86.24428301 13.07215112 88.10822668 15 91 C12.35311783 89.83537184 9.91589801 88.3919258 7.5 86.8125 C6.9328125 86.44769531 6.365625 86.08289063 5.78125 85.70703125 C1.99875079 82.08213618 0.17117798 78.33983531 -0.48101807 73.23500061 C-0.49244163 71.86900634 -0.48236848 70.50271244 -0.45410156 69.13696289 C-0.45468567 68.38491577 -0.45526978 67.63286865 -0.45587158 66.85803223 C-0.45310595 64.39575496 -0.4220885 61.93471951 -0.390625 59.47265625 C-0.38315714 57.7563086 -0.37746678 56.03995239 -0.37347412 54.32359314 C-0.35826057 49.82384364 -0.31901625 45.32461722 -0.2746582 40.82507324 C-0.23361269 36.22655308 -0.21544336 31.62794774 -0.1953125 27.02929688 C-0.15251736 18.01930245 -0.08431846 9.00969486 0 0 Z " fill="#43413C" transform="translate(216,160)"/>
<path d="M0 0 C0.66 0 1.32 0 2 0 C2 2.31 2 4.62 2 7 C2.66 7 3.32 7 4 7 C4.16811716 15.08596827 3.63840746 23.06726257 3 31.125 C2.85691406 32.98898438 2.85691406 32.98898438 2.7109375 34.890625 C2.47734233 37.92736218 2.24028968 40.96378646 2 44 C0.68 43.34 -0.64 42.68 -2 42 C-2.17411345 32.90136292 -1.62454534 23.8820301 -1 14.8125 C-0.90331248 13.36916292 -0.80695611 11.92580361 -0.7109375 10.48242188 C-0.47776718 6.98801732 -0.24014602 3.49393293 0 0 Z " fill="#302F2D" transform="translate(390,75)"/>
<path d="M0 0 C0.33 0 0.66 0 1 0 C1.66 5.94 2.32 11.88 3 18 C3.66 18 4.32 18 5 18 C5.66 21.96 6.32 25.92 7 30 C9.97 29.34 12.94 28.68 16 28 C15.67 28.99 15.34 29.98 15 31 C13.15234375 31.73046875 13.15234375 31.73046875 10.9375 32.1875 C10.20402344 32.34605469 9.47054687 32.50460938 8.71484375 32.66796875 C8.14894531 32.77753906 7.58304688 32.88710937 7 33 C7 33.66 7 34.32 7 35 C8.98 35 10.96 35 13 35 C13 35.33 13 35.66 13 36 C10.03 36.495 10.03 36.495 7 37 C6.34 39.97 5.68 42.94 5 46 C2.54608431 42.31912647 2.77197241 39.55644412 2.875 35.3125 C2.88402344 34.61060547 2.89304687 33.90871094 2.90234375 33.18554688 C2.92586296 31.45688475 2.96173287 29.72839855 3 28 C0.36 28 -2.28 28 -5 28 C-5 27.67 -5 27.34 -5 27 C-2.69 27 -0.38 27 2 27 C1.67 26.01 1.34 25.02 1 24 C-0.01189078 16.01730607 -0.12821554 8.03484046 0 0 Z " fill="#2A2B28" transform="translate(105,160)"/>
<path d="M0 0 C0.33 0 0.66 0 1 0 C0.67 3.63 0.34 7.26 0 11 C1.65 11.144375 3.3 11.28875 5 11.4375 C8.2185791 11.71912567 11.4022245 12.05606287 14.60302734 12.50219727 C19.2485048 13.0855845 23.86156454 13.20535882 28.5390625 13.28125 C29.42355072 13.29965942 30.30803894 13.31806885 31.21932983 13.33703613 C34.96935034 13.41501239 38.71952956 13.48337018 42.46972656 13.55224609 C45.22208839 13.60420443 47.97430981 13.6613414 50.7265625 13.71875 C51.5673233 13.73232544 52.40808411 13.74590088 53.27432251 13.7598877 C57.61328917 13.85117763 61.72703377 14.14833758 66 15 C66 15.33 66 15.66 66 16 C44.22 16 22.44 16 0 16 C0 14.68 0 13.36 0 12 C-0.66 12 -1.32 12 -2 12 C-1.85831863 10.56208484 -1.71148957 9.1246763 -1.5625 7.6875 C-1.48128906 6.88699219 -1.40007812 6.08648437 -1.31640625 5.26171875 C-1 3 -1 3 0 0 Z " fill="#2E2A25" transform="translate(309,32)"/>
<path d="M0 0 C11.45369562 -0.38511803 22.77245685 0.10743291 34.1875 1.125 C36.04797974 1.2638562 36.04797974 1.2638562 37.94604492 1.40551758 C45.54575021 2.1498585 50.4954287 3.57301775 56 9 C53.03434727 9 51.26661987 8.52620592 48.5 7.5625 C47.7265625 7.29566406 46.953125 7.02882813 46.15625 6.75390625 C45.08890625 6.38072266 45.08890625 6.38072266 44 6 C40.79226776 4.93075592 38.15791437 4.73287049 34.78515625 4.53515625 C33.54056641 4.45716797 32.29597656 4.37917969 31.01367188 4.29882812 C28.41482041 4.1433852 25.81586372 3.98968986 23.21679688 3.83789062 C15.36675304 3.34247996 7.727734 2.47567937 0 1 C0 0.67 0 0.34 0 0 Z " fill="#555756" transform="translate(104,85)"/>
<path d="M0 0 C9.75 0.75 9.75 0.75 12 3 C12.26991906 5.68839385 12.08737357 8.29141936 12 11 C7.71 10.67 3.42 10.34 -1 10 C-0.67 6.7 -0.34 3.4 0 0 Z " fill="#3B3A36" transform="translate(364,194)"/>
<path d="M0 0 C0.66 0 1.32 0 2 0 C1.67 0.99 1.34 1.98 1 3 C0.34 3 -0.32 3 -1 3 C-1 3.66 -1 4.32 -1 5 C-5.71172726 6.85123268 -9.94665874 7.29431494 -14.953125 7.265625 C-16.06527374 7.26849518 -16.06527374 7.26849518 -17.19989014 7.27142334 C-18.75631045 7.27277707 -20.31274237 7.2691377 -21.86914062 7.26074219 C-24.25676514 7.24996948 -26.64364771 7.26069578 -29.03125 7.2734375 C-30.54687666 7.27211695 -32.06250286 7.26955674 -33.578125 7.265625 C-34.2926886 7.26967346 -35.0072522 7.27372192 -35.74346924 7.27789307 C-40.7700344 7.2299656 -40.7700344 7.2299656 -43 5 C-41.57119507 4.92483154 -41.57119507 4.92483154 -40.11352539 4.84814453 C-36.5403319 4.6581462 -32.96775116 4.45817771 -29.39526367 4.25537109 C-27.85634817 4.16936577 -26.31728402 4.08597512 -24.77807617 4.00537109 C-11.49543313 4.30364506 -11.49543313 4.30364506 0 0 Z " fill="#2C2821" transform="translate(351,154)"/>
<path d="M0 0 C7.24505829 -0.98796249 12.90489335 2.2890991 19 6 C19.33 6.66 19.66 7.32 20 8 C13.4 8 6.8 8 0 8 C0 5.36 0 2.72 0 0 Z " fill="#5B5C5E" transform="translate(237,61)"/>
<path d="M0 0 C7.75 -0.125 7.75 -0.125 10 1 C10 3.64 10 6.28 10 9 C5.05 11.475 5.05 11.475 0 14 C0 9.38 0 4.76 0 0 Z " fill="#0F1111" transform="translate(288,60)"/>
<path d="M0 0 C5.94 0.99 5.94 0.99 12 2 C12.33 3.98 12.66 5.96 13 8 C13.66 6.68 14.32 5.36 15 4 C15 6.64 15 9.28 15 12 C13.35 12.33 11.7 12.66 10 13 C10 13.66 10 14.32 10 15 C9.01 15 8.02 15 7 15 C7 15.99 7 16.98 7 18 C4.69 17.67 2.38 17.34 0 17 C0 11.39 0 5.78 0 0 Z M1 2 C1 6.62 1 11.24 1 16 C4.3 14.35 7.6 12.7 11 11 C11 8.36 11 5.72 11 3 C8.71294169 1.85647084 7.40735238 1.89665561 4.875 1.9375 C2.956875 1.9684375 2.956875 1.9684375 1 2 Z M1 18 C1 21 1 21 -1 23.1875 C-1.66 23.785625 -2.32 24.38375 -3 25 C-2.43628586 21.73045798 -1.50037734 20.17424117 1 18 Z " fill="#20211E" transform="translate(287,58)"/>
<path d="M0 0 C0.66 0 1.32 0 2 0 C9.63714913 9.38041143 10.46427447 20.34155221 10 32 C7.35659822 27.5670386 6.68399394 22.4557352 5.67578125 17.46289062 C4.55317894 12.31991173 2.90828677 8.40805033 0 4 C-0.66 3.67 -1.32 3.34 -2 3 C-1 1 -1 1 0 0 Z " fill="#292A29" transform="translate(159,93)"/>
<path d="M0 0 C10.17857143 2.00892857 10.17857143 2.00892857 14 3 C14 3.66 14 4.32 14 5 C12.04414675 6.00484204 10.08523763 7.00373805 8.125 8 C7.03445313 8.556875 5.94390625 9.11375 4.8203125 9.6875 C2 11 2 11 0 11 C0 7.37 0 3.74 0 0 Z " fill="#949591" transform="translate(282,103)"/>
<path d="M0 0 C4.49998618 -0.02922653 8.99994765 -0.04687482 13.5 -0.0625 C14.7684375 -0.07087891 16.036875 -0.07925781 17.34375 -0.08789062 C23.66083499 -0.10434137 29.75810372 -0.00091014 36 1 C36 1.33 36 1.66 36 2 C32.52147832 2.34029508 29.04210091 2.6709387 25.5625 3 C24.58861328 3.09539063 23.61472656 3.19078125 22.61132812 3.2890625 C16.70951151 3.84174098 10.92744322 4.09807559 5 4 C4.67 3.01 4.34 2.02 4 1 C1.98491642 0.26676204 1.98491642 0.26676204 0 0 Z " fill="#28292B" transform="translate(124,59)"/>
<path d="M0 0 C1.98 0.495 1.98 0.495 4 1 C4 5.95 4 10.9 4 16 C4.66 16 5.32 16 6 16 C6 16.66 6 17.32 6 18 C5.34 18.33 4.68 18.66 4 19 C4 23.62 4 28.24 4 33 C3.34 33 2.68 33 2 33 C1.20226458 25.16992004 0.85499715 17.80363479 2 10 C1.34 10 0.68 10 0 10 C-1.125 2.25 -1.125 2.25 0 0 Z " fill="#2B2824" transform="translate(392,72)"/>
<path d="M0 0 C0.33 1.32 0.66 2.64 1 4 C-2.44069624 6.29379749 -3.72290301 7 -8 7 C-8 5 -8 5 -6.5 3.375 C-6.005 2.92125 -5.51 2.4675 -5 2 C-5.99 2.66 -6.98 3.32 -8 4 C-12.57978401 5.38937268 -17.2006493 6.30963553 -22 6 C-19.13807009 4.09204673 -16.72209925 3.07649476 -13.5 1.9375 C-12.5409375 1.59589844 -11.581875 1.25429687 -10.59375 0.90234375 C-6.43771375 -0.54350621 -4.29737168 -1.04530663 0 0 Z " fill="#322F27" transform="translate(358,152)"/>
<path d="M0 0 C0.66 0 1.32 0 2 0 C2 2.31 2 4.62 2 7 C2.66 7 3.32 7 4 7 C4.28307925 14.24997422 3.50974035 20.90961228 2 28 C1.67 28 1.34 28 1 28 C-0.05838127 21.99139451 -0.11662571 16.15372439 -0.0625 10.0625 C-0.05798828 9.09248047 -0.05347656 8.12246094 -0.04882812 7.12304688 C-0.0371315 4.7486324 -0.02074086 2.37434979 0 0 Z " fill="#343431" transform="translate(390,75)"/>
<path d="M0 0 C2.475 0.495 2.475 0.495 5 1 C5.66 0.67 6.32 0.34 7 0 C7 4.62 7 9.24 7 14 C4.03 13.505 4.03 13.505 1 13 C0.67 8.71 0.34 4.42 0 0 Z " fill="#54534E" transform="translate(272,88)"/>
<path d="M0 0 C2.64 0.66 5.28 1.32 8 2 C8 2.66 8 3.32 8 4 C8.85851562 4.12246094 9.71703125 4.24492187 10.6015625 4.37109375 C14.00686898 5.00127116 17.10342101 5.93562279 20.375 7.0625 C21.43460937 7.42472656 22.49421875 7.78695313 23.5859375 8.16015625 C24.38257813 8.43730469 25.17921875 8.71445312 26 9 C26 9.33 26 9.66 26 10 C23.5821288 10.10826289 21.16912444 10.18739789 18.75 10.25 C17.72712891 10.30027344 17.72712891 10.30027344 16.68359375 10.3515625 C13.16717747 10.41984243 11.35149681 10.26749128 8.515625 8.109375 C7 6 7 6 7 4 C6.030625 3.71125 5.06125 3.4225 4.0625 3.125 C1 2 1 2 0 0 Z " fill="#4A4844" transform="translate(238,256)"/>
<path d="M0 0 C3.37462715 0.54723683 5.08235 1.0549 8 3 C8 3.66 8 4.32 8 5 C5 5 2 5 -1 5 C-2.12341797 5.01740234 -2.12341797 5.01740234 -3.26953125 5.03515625 C-7.97207869 5.08572128 -12.37282957 4.97414114 -17 4 C-17.66 4.99 -18.32 5.98 -19 7 C-19 5.35 -19 3.7 -19 2 C-12.73 1.67 -6.46 1.34 0 1 C0 0.67 0 0.34 0 0 Z " fill="#434547" transform="translate(256,67)"/>
<path d="M0 0 C3.9218928 0.89133927 5.68768434 1.62859759 8.3125 4.75 C9.97810277 7.95782755 10.65948037 10.42454387 11 14 C10.34 14 9.68 14 9 14 C8.67 15.32 8.34 16.64 8 18 C7.67 17.01 7.34 16.02 7 15 C6.34 14.34 5.68 13.68 5 13 C4.71125 11.906875 4.4225 10.81375 4.125 9.6875 C2.97722064 5.92533433 1.61772697 3.87949967 -1 1 C-0.67 0.67 -0.34 0.34 0 0 Z " fill="#373938" transform="translate(93,113)"/>
<path d="M0 0 C11.17661864 -0.270766 21.92803142 0.46527168 33 2 C30.00599828 3.73365986 27.99512692 4.22659905 24.55078125 4.046875 C23.27750977 3.98306641 23.27750977 3.98306641 21.97851562 3.91796875 C21.09873047 3.86253906 20.21894531 3.80710937 19.3125 3.75 C18.02182617 3.69005859 18.02182617 3.69005859 16.70507812 3.62890625 C10.94370088 3.30762372 5.60123524 2.38470253 0 1 C0 0.67 0 0.34 0 0 Z " fill="#2D2F2E" transform="translate(75,82)"/>
<path d="M0 0 C6.24535975 0.37653936 12.2005595 1.20713244 18.3125 2.5625 C25.6831099 4.12137643 32.48168629 4.31278039 40 4 C40.495 4.99 40.495 4.99 41 6 C37.54183314 6.08847317 34.08396421 6.14087725 30.625 6.1875 C29.65949219 6.21263672 28.69398438 6.23777344 27.69921875 6.26367188 C21.78809804 6.3231798 16.86552532 5.68258359 11.27929688 3.71679688 C7.56578886 2.54896702 3.86989139 2.31208801 0 2 C0 1.34 0 0.68 0 0 Z " fill="#373531" transform="translate(279,184)"/>
<path d="M0 0 C2.64 0 5.28 0 8 0 C7.67 0.66 7.34 1.32 7 2 C7.99 2.33 8.98 2.66 10 3 C9.67 4.32 9.34 5.64 9 7 C0.96428571 9.27678571 0.96428571 9.27678571 -3 8 C-2.01 8 -1.02 8 0 8 C1.01540112 3.89776415 1.01540112 3.89776415 0 0 Z " fill="#8F8D88" transform="translate(340,125)"/>
<path d="M0 0 C0 2.31 0 4.62 0 7 C-6.93 6.505 -6.93 6.505 -14 6 C-14 5.34 -14 4.68 -14 4 C-12.0429132 3.32968281 -10.08428887 2.66385317 -8.125 2 C-7.03445313 1.62875 -5.94390625 1.2575 -4.8203125 0.875 C-2 0 -2 0 0 0 Z " fill="#675D51" transform="translate(420,190)"/>
<path d="M0 0 C1.19882812 0.00322266 2.39765625 0.00644531 3.6328125 0.00976562 C5.4890625 0.02233398 5.4890625 0.02233398 7.3828125 0.03515625 C8.64351562 0.03966797 9.90421875 0.04417969 11.203125 0.04882812 C14.30473636 0.06057665 17.40624975 0.07700458 20.5078125 0.09765625 C20.5078125 0.42765625 20.5078125 0.75765625 20.5078125 1.09765625 C19.4146875 1.22140625 18.3215625 1.34515625 17.1953125 1.47265625 C13.43399448 1.85230426 13.43399448 1.85230426 10.5078125 4.09765625 C10.1778125 3.43765625 9.8478125 2.77765625 9.5078125 2.09765625 C8.8478125 2.75765625 8.1878125 3.41765625 7.5078125 4.09765625 C7.1778125 3.10765625 6.8478125 2.11765625 6.5078125 1.09765625 C4.868125 1.34515625 4.868125 1.34515625 3.1953125 1.59765625 C-0.4921875 2.09765625 -0.4921875 2.09765625 -3.4921875 2.09765625 C-6.18509196 2.67433942 -8.8271573 3.39863193 -11.4921875 4.09765625 C-11.8221875 3.10765625 -12.1521875 2.11765625 -12.4921875 1.09765625 C-8.26936232 0.293706 -4.29604986 -0.02045738 0 0 Z " fill="#363634" transform="translate(50.4921875,35.90234375)"/>
<path d="M0 0 C0.33 0 0.66 0 1 0 C1 0.763125 1 1.52625 1 2.3125 C1.69930204 5.04543876 1.69930204 5.04543876 3.6015625 5.96484375 C8.00934823 7.67520076 12.31974887 8.35761259 17 9 C17.99 9.66 18.98 10.32 20 11 C22.64017635 11.81779841 25.30270591 12.3809489 28 13 C28 13.33 28 13.66 28 14 C9.45454545 12.45454545 9.45454545 12.45454545 5 8 C2.42938689 7.35232207 2.42938689 7.35232207 0 7 C0 4.69 0 2.38 0 0 Z " fill="#545551" transform="translate(236,104)"/>
<path d="M0 0 C5.61 0.33 11.22 0.66 17 1 C17 1.66 17 2.32 17 3 C15.68 2.67 14.36 2.34 13 2 C12.67 2.99 12.34 3.98 12 5 C11.34 4.67 10.68 4.34 10 4 C6.5241216 3.84887485 3.29200214 3.78073995 0 5 C-0.33 5.66 -0.66 6.32 -1 7 C-0.67 4.69 -0.34 2.38 0 0 Z " fill="#7C7566" transform="translate(355,137)"/>
<path d="M0 0 C6.75 0.875 6.75 0.875 9 2 C9 3.32 9 4.64 9 6 C1.5345605 8.77476512 -5.06714481 9.36801906 -13 9 C-13 8.67 -13 8.34 -13 8 C-11.66195313 7.80083984 -11.66195313 7.80083984 -10.296875 7.59765625 C-9.12640625 7.42105469 -7.9559375 7.24445313 -6.75 7.0625 C-5.00976562 6.80146484 -5.00976562 6.80146484 -3.234375 6.53515625 C-1.63335937 6.27025391 -1.63335937 6.27025391 0 6 C1.16789062 5.81244141 1.16789062 5.81244141 2.359375 5.62109375 C2.90078125 5.41613281 3.4421875 5.21117187 4 5 C4.33 4.01 4.66 3.02 5 2 C2.525 1.505 2.525 1.505 0 1 C0 0.67 0 0.34 0 0 Z " fill="#A6A39E" transform="translate(345,126)"/>
<path d="M0 0 C0.33 0 0.66 0 1 0 C1.33 3.96 1.66 7.92 2 12 C4.97 12.495 4.97 12.495 8 13 C7.67 13.99 7.34 14.98 7 16 C4.9375 16.6875 4.9375 16.6875 3 17 C2.54625 16.34 2.0925 15.68 1.625 15 C1.08875 14.34 0.5525 13.68 0 13 C-0.66 13 -1.32 13 -2 13 C-2 12.34 -2 11.68 -2 11 C-3.32 10.67 -4.64 10.34 -6 10 C-4.35 9.67 -2.7 9.34 -1 9 C-0.67 6.03 -0.34 3.06 0 0 Z " fill="#32322C" transform="translate(171,192)"/>
<path d="M0 0 C4.62 0 9.24 0 14 0 C13.67 1.32 13.34 2.64 13 4 C11.88625 3.979375 10.7725 3.95875 9.625 3.9375 C6.16784079 3.73619282 6.16784079 3.73619282 4 5 C3.34 4.34 2.68 3.68 2 3 C1.34 3 0.68 3 0 3 C0 2.01 0 1.02 0 0 Z " fill="#67665F" transform="translate(283,93)"/>
<path d="M0 0 C0.33 0 0.66 0 1 0 C1 3.63 1 7.26 1 11 C-4.94 10.34 -10.88 9.68 -17 9 C-17 8.01 -17 7.02 -17 6 C-16.01 6 -15.02 6 -14 6 C-14 6.66 -14 7.32 -14 8 C-13.15695312 7.98839844 -12.31390625 7.97679688 -11.4453125 7.96484375 C-10.34960938 7.95582031 -9.25390625 7.94679688 -8.125 7.9375 C-7.03445313 7.92589844 -5.94390625 7.91429688 -4.8203125 7.90234375 C-2 8 -2 8 0 9 C0 6.03 0 3.06 0 0 Z " fill="#84847F" transform="translate(278,102)"/>
<path d="M0 0 C-0.66 1.32 -1.32 2.64 -2 4 C-1.34 4.33 -0.68 4.66 0 5 C-1 6 -1 6 -3.875 6.1875 C-7 6 -7 6 -10 4 C-9.67 3.01 -9.34 2.02 -9 1 C-5.8035914 -0.06546953 -3.34252724 -0.07427838 0 0 Z " fill="#6A6760" transform="translate(298,125)"/>
<path d="M0 0 C6.75 -0.125 6.75 -0.125 9 1 C8.67 2.32 8.34 3.64 8 5 C5.36 5.33 2.72 5.66 0 6 C0 4.02 0 2.04 0 0 Z " fill="#67686A" transform="translate(237,61)"/>
<path d="M0 0 C0.66 0 1.32 0 2 0 C2 0.99 2 1.98 2 3 C-0.24435445 4.03516348 -2.49406867 5.05314977 -4.75 6.0625 C-5.70132812 6.50432617 -5.70132812 6.50432617 -6.671875 6.95507812 C-11.45095438 9.07081639 -11.45095438 9.07081639 -14.453125 8.68359375 C-14.96359375 8.45800781 -15.4740625 8.23242188 -16 8 C-14 5 -14 5 -11.50390625 4.375 C-10.53324219 4.25125 -9.56257813 4.1275 -8.5625 4 C-4.52945676 3.48445786 -2.70254656 3.04139796 0 0 Z " fill="#6F675A" transform="translate(418,165)"/>
<path d="M0 0 C0.96070434 2.88211302 1.10581883 4.69850044 1.0625 7.6875 C1.05347656 8.49574219 1.04445313 9.30398437 1.03515625 10.13671875 C1.02355469 10.75160156 1.01195312 11.36648437 1 12 C1.66 12 2.32 12 3 12 C2.67 13.65 2.34 15.3 2 17 C2.66 17 3.32 17 4 17 C4 15.02 4 13.04 4 11 C4.33 11 4.66 11 5 11 C5 13.31 5 15.62 5 18 C3.02 18 1.04 18 -1 18 C-1.02684312 15.18743719 -1.04676188 12.37512759 -1.0625 9.5625 C-1.07087891 8.76005859 -1.07925781 7.95761719 -1.08789062 7.13085938 C-1.0965143 5.08704779 -1.0522815 3.04316098 -1 1 C-0.67 0.67 -0.34 0.34 0 0 Z " fill="#282826" transform="translate(280,116)"/>
<path d="M0 0 C11.48537938 -1.03368414 11.48537938 -1.03368414 16.75 3 C17.85786122 3.9727562 18.95135005 4.96368711 20 6 C17.09308842 6 15.50244563 5.58671508 12.8125 4.625 C8.58131851 3.16142739 4.35606036 2.02961427 0 1 C0 0.67 0 0.34 0 0 Z " fill="#7C7D7F" transform="translate(140,88)"/>
<path d="M0 0 C0.86625 0.37125 0.86625 0.37125 1.75 0.75 C-0.18726652 5.33826282 -1.73864333 7.55528594 -6.25 9.75 C-6.58102914 6.1086795 -6.67019439 4.33527075 -4.5 1.3125 C-2.25 -0.25 -2.25 -0.25 0 0 Z " fill="#959081" transform="translate(224.25,146.25)"/>
<path d="M0 0 C0 0.99 0 1.98 0 3 C-5.61 3 -11.22 3 -17 3 C-17 2.34 -17 1.68 -17 1 C-11.33357449 -0.22517308 -5.76291482 -0.09228867 0 0 Z " fill="#2E302F" transform="translate(105,49)"/>
<path d="M0 0 C0.66 0 1.32 0 2 0 C2.44899658 0.47091064 2.89799316 0.94182129 3.3605957 1.42700195 C5.31747095 3.30461137 6.59582658 3.62609199 9.23046875 4.16796875 C10.03291016 4.33876953 10.83535156 4.50957031 11.66210938 4.68554688 C12.49548828 4.85119141 13.32886719 5.01683594 14.1875 5.1875 C15.4549707 5.45336914 15.4549707 5.45336914 16.74804688 5.72460938 C18.82995157 6.15980979 20.91472533 6.58124454 23 7 C23 7.33 23 7.66 23 8 C15.31096144 8.52129075 8.00432439 7.37708498 1 4 C0.125 1.859375 0.125 1.859375 0 0 Z " fill="#3A3228" transform="translate(284,151)"/>
<path d="M0 0 C7.50769231 -0.36923077 7.50769231 -0.36923077 10 1.5 C10.495 2.2425 10.495 2.2425 11 3 C10.25 4.9375 10.25 4.9375 9 7 C6.875 7.75 6.875 7.75 5 8 C4.67 6.68 4.34 5.36 4 4 C4.99 3.67 5.98 3.34 7 3 C7 2.34 7 1.68 7 1 C4.69 1 2.38 1 0 1 C0 0.67 0 0.34 0 0 Z " fill="#4D4A44" transform="translate(269,183)"/>
<path d="M0 0 C-1.58086048 0.36504603 -3.16483907 0.71660506 -4.75 1.0625 C-5.63171875 1.25972656 -6.5134375 1.45695313 -7.421875 1.66015625 C-9.98679028 1.99825872 -11.57091639 1.81158635 -14 1 C-12 -2 -12 -2 -10.1875 -2.75 C-6.01710104 -3.22661702 -3.46905589 -2.31270393 0 0 Z " fill="#797162" transform="translate(400,175)"/>
<path d="M0 0 C0.99 0.33 1.98 0.66 3 1 C3 1.99 3 2.98 3 4 C3.66 4.33 4.32 4.66 5 5 C4.01 5.495 4.01 5.495 3 6 C2.67 12.6 2.34 19.2 2 26 C1.67 26 1.34 26 1 26 C1 18.08 1 10.16 1 2 C0.34 1.67 -0.32 1.34 -1 1 C-0.67 0.67 -0.34 0.34 0 0 Z " fill="#3C3A34" transform="translate(225,166)"/>
<path d="M0 0 C3.3 0.33 6.6 0.66 10 1 C10 2.98 10 4.96 10 7 C9.01 6.67 8.02 6.34 7 6 C7.66 6 8.32 6 9 6 C9 5.34 9 4.68 9 4 C5.04 4 1.08 4 -3 4 C-2.67 3.34 -2.34 2.68 -2 2 C-1.34 2 -0.68 2 0 2 C0 1.34 0 0.68 0 0 Z " fill="#585A54" transform="translate(268,119)"/>
<path d="M0 0 C0.66 0 1.32 0 2 0 C2.24794402 6.5705166 1.32388229 12.56971459 0 19 C-0.33 19 -0.66 19 -1 19 C-1.0272616 16.95840905 -1.04651345 14.91671037 -1.0625 12.875 C-1.07410156 11.73804687 -1.08570313 10.60109375 -1.09765625 9.4296875 C-1.005327 6.1870844 -0.61389906 3.18067388 0 0 Z " fill="#53534F" transform="translate(392,84)"/>
<path d="M0 0 C1.98 0.495 1.98 0.495 4 1 C3.67 4.63 3.34 8.26 3 12 C2.67 11.34 2.34 10.68 2 10 C1.34 10 0.68 10 0 10 C-1.125 2.25 -1.125 2.25 0 0 Z " fill="#23231F" transform="translate(392,72)"/>
<path d="M0 0 C7.26 0 14.52 0 22 0 C21.67 0.99 21.34 1.98 21 3 C18.66705225 3.04241723 16.33297433 3.04092937 14 3 C13.67 2.67 13.34 2.34 13 2 C10.81707226 1.76518307 8.62796826 1.58636677 6.4375 1.4375 C5.23996094 1.35371094 4.04242188 1.26992188 2.80859375 1.18359375 C1.88175781 1.12300781 0.95492187 1.06242187 0 1 C0 0.67 0 0.34 0 0 Z " fill="#2E2E2A" transform="translate(59,35)"/>
<path d="M0 0 C0.99 0.33 1.98 0.66 3 1 C-2.44771219 5.01410372 -9.08743847 9 -16 9 C-12.09230166 5.35281489 -8.04004666 3.66279839 -3.109375 1.83203125 C-1.04797061 1.18074567 -1.04797061 1.18074567 0 0 Z " fill="#3D3C38" transform="translate(139,178)"/>
<path d="M0 0 C0 1.98 0 3.96 0 6 C-1.98 6.33 -3.96 6.66 -6 7 C-6.33 6.34 -6.66 5.68 -7 5 C-7.66 4.34 -8.32 3.68 -9 3 C-2.25 0 -2.25 0 0 0 Z " fill="#2C2820" transform="translate(420,168)"/>
<path d="M0 0 C3.86107457 2.57404971 3.94319692 4.61020259 5 9 C2.525 10.485 2.525 10.485 0 12 C0 8.04 0 4.08 0 0 Z " fill="#2A2721" transform="translate(217,157)"/>
<path d="M0 0 C-0.33 0.99 -0.66 1.98 -1 3 C-5.67201205 4.20568053 -10.21496292 4.09382426 -15 4 C-15 3.34 -15 2.68 -15 2 C-12.36 2 -9.72 2 -7 2 C-7 1.34 -7 0.68 -7 0 C-2.25 -1.125 -2.25 -1.125 0 0 Z " fill="#4E4C48" transform="translate(298,88)"/>
<path d="M0 0 C0.33 0.66 0.66 1.32 1 2 C1.99 1.67 2.98 1.34 4 1 C4.33 2.98 4.66 4.96 5 7 C4.34 7 3.68 7 3 7 C2.67 8.32 2.34 9.64 2 11 C1.67 10.01 1.34 9.02 1 8 C0.34 7.34 -0.32 6.68 -1 6 C-1.625 3.375 -1.625 3.375 -2 1 C-1.34 0.67 -0.68 0.34 0 0 Z " fill="#2A2C2B" transform="translate(99,120)"/>
<path d="M0 0 C0.99 0.33 1.98 0.66 3 1 C3.87890625 3.1796875 3.87890625 3.1796875 4.5625 5.875 C5.41532366 9.18029394 6.07314984 11.10972477 8 14 C6 13 4 12 2 11 C1.62109375 9.00390625 1.62109375 9.00390625 1.4375 6.5625 C1.1938825 3.15371795 1.1938825 3.15371795 0 0 Z " fill="#363632" transform="translate(223,237)"/>
<path d="M0 0 C3.3 0 6.6 0 10 0 C10 0.99 10 1.98 10 3 C8.375 3.6875 8.375 3.6875 6 4 C2.75 2.5625 2.75 2.5625 0 1 C0 0.67 0 0.34 0 0 Z " fill="#6C655B" transform="translate(286,152)"/>
<path d="M0 0 C0 0.99 0 1.98 0 3 C-3.21451269 4.60725635 -6.43612536 4.05748185 -10 4 C-10 3.34 -10 2.68 -10 2 C-3.375 0 -3.375 0 0 0 Z " fill="#514A43" transform="translate(416,192)"/>
<path d="M0 0 C0 1.98 0 3.96 0 6 C-2.97 5.505 -2.97 5.505 -6 5 C-5.625 3.0625 -5.625 3.0625 -5 1 C-3 0 -3 0 0 0 Z " fill="#676863" transform="translate(278,126)"/>
<path d="M0 0 C3.465 1.98 3.465 1.98 7 4 C7 4.33 7 4.66 7 5 C3.37 5 -0.26 5 -4 5 C-4 4.34 -4 3.68 -4 3 C-2.68 2.67 -1.36 2.34 0 2 C0 1.34 0 0.68 0 0 Z " fill="#535456" transform="translate(250,64)"/>
<path d="M0 0 C4.37859255 0.50522222 6.81651224 3.17827222 10 6 C9.67 6.66 9.34 7.32 9 8 C7 7 7 7 5 6 C4.278125 5.71125 3.55625 5.4225 2.8125 5.125 C1 4 1 4 0.25 1.875 C0.1675 1.25625 0.085 0.6375 0 0 Z " fill="#646665" transform="translate(88,108)"/>
<path d="M0 0 C5.4185766 -0.22577402 9.77487721 0.53329887 15 2 C14.01 2.66 13.02 3.32 12 4 C11.01 3.67 10.02 3.34 9 3 C8.01 3 7.02 3 6 3 C3.98848259 2.36893571 1.98636298 1.70626239 0 1 C0 0.67 0 0.34 0 0 Z " fill="#615C51" transform="translate(373,139)"/>
<path d="M0 0 C-1.98 0.99 -1.98 0.99 -4 2 C-4 1.34 -4 0.68 -4 0 C-5.65 0 -7.3 0 -9 0 C-9 -0.66 -9 -1.32 -9 -2 C-10.32 -2.33 -11.64 -2.66 -13 -3 C-7.51451894 -4.5672803 -4.61677582 -3.07785055 0 0 Z " fill="#353736" transform="translate(65,54)"/>
<path d="M0 0 C0.66 0.33 1.32 0.66 2 1 C2.625 4.0625 2.625 4.0625 3 7 C2.01 7.33 1.02 7.66 0 8 C-0.99 7.34 -1.98 6.68 -3 6 C-2.01 4.02 -1.02 2.04 0 0 Z " fill="#303231" transform="translate(45,48)"/>
<path d="M0 0 C-2.46469381 2.46469381 -3.5931474 2.38543894 -7 2.6875 C-8.3303125 2.81705078 -8.3303125 2.81705078 -9.6875 2.94921875 C-12 3 -12 3 -14 2 C-9.07262981 0.02905192 -5.21979128 -0.1799928 0 0 Z " fill="#2D2F2E" transform="translate(102,56)"/>
<path d="M0 0 C1.41623216 -0.05447047 2.83308191 -0.09300508 4.25 -0.125 C5.03890625 -0.14820313 5.8278125 -0.17140625 6.640625 -0.1953125 C9.20731941 0.0171622 10.7916067 0.71345895 13 2 C12.39671875 1.97679687 11.7934375 1.95359375 11.171875 1.9296875 C10.37265625 1.91164062 9.5734375 1.89359375 8.75 1.875 C7.56664062 1.84019531 7.56664062 1.84019531 6.359375 1.8046875 C3.79268059 2.0171622 2.2083933 2.71345895 0 4 C0 2.68 0 1.36 0 0 Z " fill="#2B2C27" transform="translate(363,204)"/>
<path d="M0 0 C-9.41002278 4.59225513 -9.41002278 4.59225513 -14 4 C-11.37350692 2.24900461 -9.38191413 1.30690675 -6.4375 0.3125 C-5.65246094 0.04050781 -4.86742187 -0.23148438 -4.05859375 -0.51171875 C-2 -1 -2 -1 0 0 Z " fill="#3C3731" transform="translate(350,154)"/>
<path d="M0 0 C3.3 0 6.6 0 10 0 C10 0.66 10 1.32 10 2 C8.68 1.67 7.36 1.34 6 1 C5.67 1.99 5.34 2.98 5 4 C3.02 3.34 1.04 2.68 -1 2 C-0.67 1.34 -0.34 0.68 0 0 Z " fill="#736D5F" transform="translate(362,138)"/>
<path d="M0 0 C0.66 0 1.32 0 2 0 C2 0.66 2 1.32 2 2 C5.3 2.33 8.6 2.66 12 3 C12 3.33 12 3.66 12 4 C8.04 4 4.08 4 0 4 C-0.33 3.34 -0.66 2.68 -1 2 C-0.67 1.34 -0.34 0.68 0 0 Z " fill="#2D2F2E" transform="translate(185,48)"/>
<path d="M0 0 C2.0625 0.4375 2.0625 0.4375 4 1 C3.01 1.495 3.01 1.495 2 2 C2 2.66 2 3.32 2 4 C3.9600281 5.63676257 3.9600281 5.63676257 6 7 C3.03 6.505 3.03 6.505 0 6 C-0.38218767 4.34385343 -0.71395102 2.67542976 -1 1 C-0.67 0.67 -0.34 0.34 0 0 Z " fill="#AFADA7" transform="translate(287,125)"/>
<path d="M0 0 C0.66 0.33 1.32 0.66 2 1 C-0.23775234 4.3566285 -0.93320048 4.57996014 -4.625 5.6875 C-5.44226563 5.93886719 -6.25953125 6.19023437 -7.1015625 6.44921875 C-7.72804688 6.63097656 -8.35453125 6.81273437 -9 7 C-6.28672425 4.15635664 -3.30410823 2.12931419 0 0 Z " fill="#42413C" transform="translate(126,238)"/>
<path d="M0 0 C1.65 1.65 3.3 3.3 5 5 C2.66666667 5 0.33333333 5 -2 5 C-2 3.68 -2 2.36 -2 1 C-1.34 0.67 -0.68 0.34 0 0 Z " fill="#A9A293" transform="translate(282,152)"/>
<path d="M0 0 C0 0.66 0 1.32 0 2 C-5.28 1.67 -10.56 1.34 -16 1 C-16 0.67 -16 0.34 -16 0 C-13.89651926 -0.19504458 -11.79217415 -0.38078496 -9.6875 -0.5625 C-8.51574219 -0.66691406 -7.34398437 -0.77132812 -6.13671875 -0.87890625 C-3 -1 -3 -1 0 0 Z " fill="#5A5A57" transform="translate(264,128)"/>
<path d="M0 0 C0 0.66 0 1.32 0 2 C0.99 2.33 1.98 2.66 3 3 C0.75 3.6875 0.75 3.6875 -2 4 C-4.3125 2.5625 -4.3125 2.5625 -6 1 C-4 0 -4 0 0 0 Z " fill="#2E2921" transform="translate(402,70)"/>
<path d="M0 0 C0.99 0.495 0.99 0.495 2 1 C1.979375 2.093125 1.95875 3.18625 1.9375 4.3125 C1.81455548 7.94384191 1.81455548 7.94384191 3 11 C2.67 11.66 2.34 12.32 2 13 C1.34 13 0.68 13 0 13 C0 8.71 0 4.42 0 0 Z " fill="#5C5B56" transform="translate(226,216)"/>
<path d="M0 0 C0.33 0 0.66 0 1 0 C1.33 1.65 1.66 3.3 2 5 C2.99 5.33 3.98 5.66 5 6 C4.34 7.32 3.68 8.64 3 10 C1.5 8.9375 1.5 8.9375 0 7 C-0.1875 3.3125 -0.1875 3.3125 0 0 Z " fill="#837C6F" transform="translate(217,150)"/>
<path d="M0 0 C5.41538462 -0.36923077 5.41538462 -0.36923077 8.375 1.5 C8.91125 1.995 9.4475 2.49 10 3 C7.03 3 4.06 3 1 3 C0.67 2.01 0.34 1.02 0 0 Z " fill="#1F1F1A" transform="translate(248,98)"/>
<path d="M0 0 C2.475 0.495 2.475 0.495 5 1 C5 1.66 5 2.32 5 3 C2.5 4.625 2.5 4.625 0 6 C0 4.02 0 2.04 0 0 Z " fill="#9D9785" transform="translate(218,150)"/>
<path d="M0 0 C0.33 0.99 0.66 1.98 1 3 C1.66 3.33 2.32 3.66 3 4 C1.02 5.32 -0.96 6.64 -3 8 C-2.45276317 4.62537285 -1.9451 2.91765 0 0 Z " fill="#2C2D26" transform="translate(221,142)"/>
<path d="M0 0 C0.66 0 1.32 0 2 0 C3.6875 2.3125 3.6875 2.3125 5 5 C4.67 5.99 4.34 6.98 4 8 C3.38125 7.360625 2.7625 6.72125 2.125 6.0625 C0.17402388 3.96116416 0.17402388 3.96116416 -2 3 C-1 1 -1 1 0 0 Z " fill="#464847" transform="translate(159,93)"/>
<path d="M0 0 C0 0.99 0 1.98 0 3 C-2.31 3 -4.62 3 -7 3 C-7 2.34 -7 1.68 -7 1 C-4.53721199 -0.231394 -2.7204945 -0.07159196 0 0 Z " fill="#4C4D48" transform="translate(348,21)"/>
<path d="M0 0 C-0.33 1.65 -0.66 3.3 -1 5 C-1.33 4.01 -1.66 3.02 -2 2 C-4.31 2.33 -6.62 2.66 -9 3 C-8 1 -8 1 -6.1875 0.375 C-4 0 -4 0 0 0 Z " fill="#3B3B37" transform="translate(350,19)"/>
<path d="M0 0 C0.99 0 1.98 0 3 0 C3 1.98 3 3.96 3 6 C2.01 6 1.02 6 0 6 C0 4.02 0 2.04 0 0 Z " fill="#71716A" transform="translate(275,94)"/>
<path d="M0 0 C1.32 0 2.64 0 4 0 C3.67 1.65 3.34 3.3 3 5 C1.68 5 0.36 5 -1 5 C-0.67 3.35 -0.34 1.7 0 0 Z " fill="#343533" transform="translate(113,235)"/>
<path d="M0 0 C1.98 0.66 3.96 1.32 6 2 C3.64561267 3.42944945 2.51967567 4.08661261 -0.25 3.625 C-0.8275 3.41875 -1.405 3.2125 -2 3 C-1.34 2.01 -0.68 1.02 0 0 Z " fill="#706A5E" transform="translate(388,173)"/>
<path d="M0 0 C0.99 0 1.98 0 3 0 C3 1.65 3 3.3 3 5 C2.01 5 1.02 5 0 5 C-0.33 5.66 -0.66 6.32 -1 7 C-0.67 4.69 -0.34 2.38 0 0 Z " fill="#545653" transform="translate(237,124)"/>
<path d="M0 0 C0.99 0.99 1.98 1.98 3 3 C3.66 2.67 4.32 2.34 5 2 C5.33 3.32 5.66 4.64 6 6 C5.01 6.33 4.02 6.66 3 7 C0 2.25 0 2.25 0 0 Z " fill="#303231" transform="translate(160,97)"/>
<path d="M0 0 C-0.33 0.99 -0.66 1.98 -1 3 C-3.97 2.505 -3.97 2.505 -7 2 C-7 1.34 -7 0.68 -7 0 C-2.25 -1.125 -2.25 -1.125 0 0 Z " fill="#43433E" transform="translate(298,88)"/>
</svg>
