<?xml version="1.0" encoding="UTF-8"?>
<svg version="1.1" xmlns="http://www.w3.org/2000/svg" width="440" height="266">
<path d="M0 0 C145.2 0 290.4 0 440 0 C440 87.78 440 175.56 440 266 C294.8 266 149.6 266 0 266 C0 178.22 0 90.44 0 0 Z " fill="#D3D4D5" transform="translate(0,0)"/>
<path d="M0 0 C0.33 0 0.66 0 1 0 C1.52643761 11.4016488 -0.06910947 22.58085414 -1.4375 33.875 C-1.89874274 37.72607198 -2.35568572 41.57762652 -2.80859375 45.4296875 C-2.97081924 46.80625519 -2.97081924 46.80625519 -3.13632202 48.21063232 C-3.9748 55.46379033 -4.58939269 62.70879843 -5 70 C-4.11441406 69.93941406 -3.22882813 69.87882812 -2.31640625 69.81640625 C1.05312516 69.5884983 4.42291392 69.36548919 7.79296875 69.14550781 C9.23580228 69.05038295 10.67851827 68.9534534 12.12109375 68.85449219 C22.43052701 68.14895835 32.66691209 67.87483474 43 68 C43.0730568 73.11397601 43.01776418 78.10409223 42.49389648 83.19775391 C42.40196518 84.09732819 42.31003387 84.99690247 42.21531677 85.92373657 C42.14426224 86.6089035 42.0732077 87.29407043 42 88 C41.13342522 88.05304543 41.13342522 88.05304543 40.24934387 88.10716248 C34.23066649 88.47625795 28.21230042 88.85014668 22.1940918 89.22680664 C19.94872525 89.36670638 17.70328248 89.50538821 15.45776367 89.64282227 C12.228144 89.84069987 8.99882477 90.04297112 5.76953125 90.24609375 C4.76727005 90.3065538 3.76500885 90.36701385 2.7323761 90.42930603 C1.79177841 90.48929276 0.85118073 90.54927948 -0.11791992 90.61108398 C-0.94176682 90.66215805 -1.76561371 90.71323212 -2.61442566 90.76585388 C-5.12651811 91.01241786 -7.52841838 91.49384592 -10 92 C-11.38485315 92.16746571 -12.77267842 92.31200164 -14.16235352 92.43310547 C-14.95346024 92.50353561 -15.74456696 92.57396576 -16.55964661 92.64653015 C-17.83143013 92.75575554 -17.83143013 92.75575554 -19.12890625 92.8671875 C-20.97493643 93.03082582 -22.82096501 93.19448213 -24.66699219 93.3581543 C-25.63036499 93.44253754 -26.59373779 93.52692078 -27.58630371 93.61386108 C-56.82140079 96.13593893 -56.82140079 96.13593893 -85.96484375 99.52734375 C-91.39376762 100.21478591 -96.85395466 100.51705004 -102.3125 100.875 C-104.86460367 101.04657284 -107.41668554 101.21847001 -109.96875 101.390625 C-110.65842361 101.43688019 -111.34809723 101.48313538 -112.05867004 101.53079224 C-121.160654 102.14222613 -130.26068872 102.78179101 -139.3609314 103.41851807 C-143.15346239 103.68383093 -146.94603114 103.94860165 -150.73860168 104.21334839 C-154.49240958 104.47544446 -158.24620346 104.73774128 -162 105 C-162 98.4 -162 91.8 -162 85 C-159.53015625 84.81824219 -157.0603125 84.63648438 -154.515625 84.44921875 C-125.00916703 82.26914948 -95.51483722 80.03728622 -66.08374023 76.98876953 C-58.10977587 76.17403958 -50.15990535 75.55801447 -42.15234375 75.2109375 C-39.11779835 75.08212054 -39.11779835 75.08212054 -36.66162109 74.5065918 C-33.8310978 73.9678525 -31.14019205 73.79134409 -28.26171875 73.68359375 C-27.19501953 73.64169922 -26.12832031 73.59980469 -25.02929688 73.55664062 C-23.92650391 73.51732422 -22.82371094 73.47800781 -21.6875 73.4375 C-20.56537109 73.39431641 -19.44324219 73.35113281 -18.28710938 73.30664062 C-15.52485431 73.20085213 -12.7625137 73.09876328 -10 73 C-10.01160156 71.73542969 -10.02320313 70.47085938 -10.03515625 69.16796875 C-10.04453566 67.50781398 -10.0536357 65.84765761 -10.0625 64.1875 C-10.07087891 63.35412109 -10.07925781 62.52074219 -10.08789062 61.66210938 C-10.09111328 60.85966797 -10.09433594 60.05722656 -10.09765625 59.23046875 C-10.10289307 58.49207764 -10.10812988 57.75368652 -10.11352539 56.99291992 C-10 55 -10 55 -9 52 C-9.0309375 50.2675 -9.0309375 50.2675 -9.0625 48.5 C-9 45 -9 45 -7 42 C-6.90270222 39.46602731 -7.06620252 37.00262747 -7.22265625 34.47265625 C-7 32 -7 32 -5.52734375 30.1574707 C-3.7233521 27.60921715 -3.53815229 26.09819273 -3.33984375 23.0078125 C-3.26830078 22.05519531 -3.19675781 21.10257813 -3.12304688 20.12109375 C-3.06181641 19.13238281 -3.00058594 18.14367187 -2.9375 17.125 C-2.1504409 5.26456486 -2.1504409 5.26456486 0 0 Z " fill="#E4E5E7" transform="translate(162,148)"/>
<path d="M0 0 C-0.24387451 0.8393232 -0.24387451 0.8393232 -0.49267578 1.69560242 C-2.40898526 10.39997484 -0.74113639 20.27736118 -0.125 29.07421875 C-0.03484661 30.41019058 0.05482401 31.74619506 0.14404297 33.08222961 C0.51953924 38.69127534 0.90422669 44.29968195 1.29101562 49.90795898 C3.37516005 80.19896586 3.37516005 80.19896586 3 93 C3.56284195 92.84236679 4.1256839 92.68473358 4.70558167 92.52232361 C7.07679989 91.98251653 9.28355364 91.77679219 11.71069336 91.64282227 C12.64364731 91.58929092 13.57660126 91.53575958 14.53782654 91.48060608 C16.04857506 91.39932716 16.04857506 91.39932716 17.58984375 91.31640625 C18.64418106 91.25597641 19.69851837 91.19554657 20.7848053 91.13328552 C25.28061917 90.87569183 29.77690302 90.626803 34.27319336 90.37768555 C37.56644317 90.1939023 40.85945691 90.00658036 44.15234375 89.81640625 C45.23875656 89.7536853 46.32516937 89.69096436 47.44450378 89.62634277 C54.38350062 89.20742274 61.28840297 88.62087366 68.203125 87.91015625 C76.44512269 87.0687059 84.52093146 86.75002563 92.8125 86.875 C94.60204102 86.88853516 94.60204102 86.88853516 96.42773438 86.90234375 C99.2853997 86.92529689 102.14256735 86.95772548 105 87 C105 87.33 105 87.66 105 88 C95.8182567 88.63977084 86.63619257 89.27468451 77.45372295 89.90394497 C73.18668188 90.19650032 68.91975445 90.49052669 64.65307617 90.78833008 C44.43984633 92.19800516 24.2581653 93.44446171 4 94 C4.23396484 95.12148437 4.23396484 95.12148437 4.47265625 96.265625 C4.66730469 97.25046875 4.86195313 98.2353125 5.0625 99.25 C5.25972656 100.22453125 5.45695312 101.1990625 5.66015625 102.203125 C5.98397535 104.868119 5.85503199 106.48871723 5 109 C5.66 109.33 6.32 109.66 7 110 C4.65817039 116.65572626 4.65817039 116.65572626 1.71484375 118.1953125 C-1.03714283 119.01100924 -3.3870126 119.34005657 -6.25 119.5 C-7.94962891 119.60828125 -7.94962891 119.60828125 -9.68359375 119.71875 C-10.34601074 119.76 -11.00842773 119.80125 -11.69091797 119.84375 C-16.56888008 120.17382991 -21.43992593 120.5993403 -26.3125 121 C-34.89949864 121.69929819 -43.48196909 122.31012262 -52.0859375 122.75390625 C-55.06278302 122.89022012 -55.06278302 122.89022012 -58 124 C-60.50462772 124.23265464 -62.99031645 124.41915665 -65.5 124.5625 C-66.15742188 124.60568359 -66.81484375 124.64886719 -67.4921875 124.69335938 C-73.35653535 125.04724243 -79.09380318 125 -85 125 C-85 89.03 -85 53.06 -85 16 C-84.01 15.67 -83.02 15.34 -82 15 C-81.82200222 43.3454626 -82.33755572 71.66288876 -83 100 C-82.43603516 99.93941406 -81.87207031 99.87882812 -81.29101562 99.81640625 C-78.69444994 99.53994962 -76.09725103 99.26993901 -73.5 99 C-72.613125 98.90460938 -71.72625 98.80921875 -70.8125 98.7109375 C-65.50765526 98.16485054 -60.33262848 97.9003247 -55 98 C-55 97.34 -55 96.68 -55 96 C-55.66 96 -56.32 96 -57 96 C-57.02465622 91.74585377 -57.04283899 87.49174502 -57.05493164 83.23754883 C-57.05997101 81.78929927 -57.06680253 80.34105483 -57.07543945 78.89282227 C-57.08752247 76.81525412 -57.09323211 74.73775303 -57.09765625 72.66015625 C-57.10289307 71.40855713 -57.10812988 70.15695801 -57.11352539 68.86743164 C-57 66 -57 66 -56 65 C-54.60175869 54.33538916 -54.69200553 43.4255556 -54.4375 32.6875 C-54.39418595 30.964185 -54.35056819 29.2408776 -54.30664062 27.51757812 C-54.20093287 23.34513131 -54.09930969 19.1726038 -54 15 C-53.34 15 -52.68 15 -52 15 C-52 41.73 -52 68.46 -52 96 C-46.06 95.505 -46.06 95.505 -40 95 C-36.90206046 94.92609574 -33.83009441 94.88096562 -30.734375 94.90234375 C-29.93010071 94.9037587 -29.12582642 94.90517365 -28.29718018 94.90663147 C-25.78141211 94.91213465 -23.26574019 94.92466706 -20.75 94.9375 C-19.02213672 94.94252757 -17.29427202 94.94708824 -15.56640625 94.95117188 C-11.37756832 94.96207203 -7.18880033 94.97926652 -3 95 C-1.9233864 101.10205216 -1.93114402 106.80296216 -2 113 C-8.435 113.99 -8.435 113.99 -15 115 C-9.06 115 -3.12 115 3 115 C2.79503906 112.11636719 2.59007812 109.23273438 2.37890625 106.26171875 C2.17659469 103.39854741 1.97486808 100.5353354 1.77319336 97.67211914 C1.63512944 95.71634696 1.49647905 93.76061607 1.35717773 91.80493164 C1.1544555 88.95730629 0.95364241 86.10955505 0.75390625 83.26171875 C0.68732819 82.3167453 0.62075012 81.37177185 0.55215454 80.39816284 C0.18145632 75.02104938 -0.12116189 69.64617572 -0.36277771 64.2618103 C-0.67587435 57.33820496 -1.23901835 50.67822281 -2.51855469 43.85205078 C-3.43560539 38.41950197 -3.74540731 32.92914831 -4.125 27.4375 C-4.21136719 26.29603516 -4.29773438 25.15457031 -4.38671875 23.97851562 C-4.89086335 16.97250621 -5.11172107 10.0233539 -5 3 C-6.65 3 -8.3 3 -10 3 C-9.67 2.34 -9.34 1.68 -9 1 C-5.93090555 0.33280556 -3.14213983 0 0 0 Z " fill="#EAEBED" transform="translate(295,115)"/>
<path d="M0 0 C0.495 1.98 0.495 1.98 1 4 C-2.51570326 5.56815541 -5.41481981 6.28574412 -9.25 6.5 C-10.94962891 6.60828125 -10.94962891 6.60828125 -12.68359375 6.71875 C-13.34601074 6.76 -14.00842773 6.80125 -14.69091797 6.84375 C-19.56888008 7.17382991 -24.43992593 7.5993403 -29.3125 8 C-37.89949864 8.69929819 -46.48196909 9.31012262 -55.0859375 9.75390625 C-58.06278302 9.89022012 -58.06278302 9.89022012 -61 11 C-63.5048219 11.23267268 -65.99005225 11.42063085 -68.5 11.5625 C-69.56444336 11.62618774 -69.56444336 11.62618774 -70.65039062 11.69116211 C-76.43635973 12.01587153 -82.20522762 12.11049354 -88 12 C-88 11.67 -88 11.34 -88 11 C-81.62694402 10.25492456 -75.41688675 9.89650183 -69 10 C-69 9.34 -69 8.68 -69 8 C-74.94 8.33 -80.88 8.66 -87 9 C-86.67 8.01 -86.34 7.02 -86 6 C-84.7404248 5.91959473 -83.48084961 5.83918945 -82.18310547 5.75634766 C-77.44510882 5.45243302 -72.70760822 5.14129132 -67.97021484 4.828125 C-65.93192897 4.69436148 -63.89351876 4.56247719 -61.85498047 4.43261719 C-51.44834703 3.76847269 -41.12905494 3.09579651 -30.83203125 1.39257812 C-26.55016958 0.79902351 -22.31181346 0.82116903 -18 1 C-18 1.33 -18 1.66 -18 2 C-12.06 2 -6.12 2 0 2 C0 1.34 0 0.68 0 0 Z " fill="#E1E2E4" transform="translate(298,228)"/>
<path d="M0 0 C0 0.66 0 1.32 0 2 C-6.72768457 2.66152778 -13.45585712 3.31793598 -20.18432617 3.97143555 C-22.45363615 4.19237262 -24.72284868 4.41431375 -26.99194336 4.63745117 C-41.28325066 6.04194723 -55.57982095 7.30907504 -69.89453125 8.4453125 C-82.60582286 9.45482836 -95.30546749 10.55152904 -108 11.75390625 C-109.17489707 11.86502086 -109.17489707 11.86502086 -110.37352943 11.9783802 C-117.5166158 12.65469625 -124.65904592 13.33783305 -131.80126953 14.02319336 C-147.89871679 15.56613055 -163.99287945 17.07866954 -180.125 18.21484375 C-181.27363525 18.2970668 -182.42227051 18.37928986 -183.60571289 18.46400452 C-190.41467641 18.91974676 -197.17639109 19.09641268 -204 19 C-204 18.67 -204 18.34 -204 18 C-188.76443892 16.31458638 -173.53410682 14.84012807 -158.25 13.6875 C-140.3581653 12.3314782 -122.49125664 10.71670407 -104.625 9.0625 C-103.91846786 8.99713421 -103.21193573 8.93176842 -102.48399353 8.86442184 C-84.01311319 7.15461035 -65.54946832 5.38298804 -47.09481812 3.50527954 C-37.21549118 2.50121865 -27.33587782 1.55138112 -17.4375 0.75 C-16.45523438 0.66975586 -15.47296875 0.58951172 -14.4609375 0.50683594 C-9.62356115 0.1327223 -4.85165276 -0.0798626 0 0 Z " fill="#DBDCDE" transform="translate(204,237)"/>
<path d="M0 0 C0.02321971 11.18795042 0.04096407 22.37589506 0.05181217 33.56386471 C0.05701997 38.75946342 0.06407928 43.95504558 0.07543945 49.15063477 C0.08634325 54.16918156 0.09229267 59.18771249 0.09487724 64.20627022 C0.09671802 66.11631075 0.10031252 68.02635046 0.10573006 69.9363842 C0.11304002 72.62158935 0.11398677 75.30672978 0.11352539 77.99194336 C0.11712067 78.77310013 0.12071594 79.5542569 0.12442017 80.35908508 C0.10423742 91.28837454 0.10423742 91.28837454 -1 96 C-1.99 96.495 -1.99 96.495 -3 97 C-3 65.32 -3 33.64 -3 1 C-1 0 -1 0 0 0 Z " fill="#EEEFF1" transform="translate(213,130)"/>
<path d="M0 0 C0.33 0 0.66 0 1 0 C1.50829526 11.33855134 -0.03235264 22.45270079 -1.375 33.6875 C-1.59958591 35.6086507 -1.82354805 37.52987442 -2.046875 39.45117188 C-2.5871549 44.08632197 -3.134958 48.72053911 -3.68591309 53.35443115 C-4.18212573 57.53405355 -4.67297792 61.7143038 -5.1640625 65.89453125 C-5.32760982 67.28491527 -5.49118101 68.67529649 -5.65478516 70.06567383 C-5.76870605 71.03400146 -5.88262695 72.0023291 -6 73 C-6.66 73 -7.32 73 -8 73 C-7.55334659 60.55180575 -6.73610063 48.34141102 -5 36 C-4.63572567 33.29292888 -4.28354753 30.58445773 -3.9375 27.875 C-3.85250244 27.21669189 -3.76750488 26.55838379 -3.67993164 25.88012695 C-2.98263705 20.29278624 -2.61085733 14.70854685 -2.34375 9.0859375 C-1.98097362 5.82919502 -1.1407619 3.06349767 0 0 Z " fill="#F5F6F8" transform="translate(162,148)"/>
<path d="M0 0 C0.66 0 1.32 0 2 0 C4.65313027 12.04397743 6.65511172 23.65299952 7 36 C6.01 36 5.02 36 4 36 C3.67 33.69 3.34 31.38 3 29 C2.67 29 2.34 29 2 29 C-0.29612756 9.03189066 -0.29612756 9.03189066 0 0 Z " fill="#E7E8EA" transform="translate(236,79)"/>
<path d="M0 0 C0 0.33 0 0.66 0 1 C-13.61458836 2.50419121 -27.22962212 3.98847279 -40.875 5.1875 C-41.81158447 5.27112793 -42.74816895 5.35475586 -43.71313477 5.44091797 C-48.15757905 5.82113443 -52.53407169 6.09580374 -57 6 C-56.67 5.01 -56.34 4.02 -56 3 C-49.95382007 2.56736292 -43.90727775 2.14034061 -37.86035156 1.71826172 C-35.80816241 1.5742541 -33.75607571 1.42877779 -31.70410156 1.28173828 C-9.8272867 -0.28393445 -9.8272867 -0.28393445 0 0 Z " fill="#D9DADC" transform="translate(268,231)"/>
<path d="M0 0 C0.33 0 0.66 0 1 0 C0.62805875 14.56149984 -1.49348044 28.66458934 -4 43 C-4.33 43 -4.66 43 -5 43 C-5.0269501 40.06243881 -5.04681474 37.12512445 -5.0625 34.1875 C-5.07087891 33.35412109 -5.07925781 32.52074219 -5.08789062 31.66210938 C-5.09111328 30.85966797 -5.09433594 30.05722656 -5.09765625 29.23046875 C-5.10289307 28.49207764 -5.10812988 27.75368652 -5.11352539 26.99291992 C-5 25 -5 25 -4 22 C-4.020625 20.845 -4.04125 19.69 -4.0625 18.5 C-4 15 -4 15 -2 12 C-1.83314311 9.54967646 -1.83314311 9.54967646 -2 6.9375 C-2.125 4.27734375 -2.125 4.27734375 -2 2 C-1.34 1.34 -0.68 0.68 0 0 Z " fill="#DCDDDF" transform="translate(157,178)"/>
<path d="M0 0 C1.98 0.99 3.96 1.98 6 3 C4.39157056 12.83364988 2.21142194 22.20674683 -0.9140625 31.671875 C-1.71059914 34.11305922 -2.43176272 36.49975598 -3 39 C-3.66 39 -4.32 39 -5 39 C-4.30610384 30.32629797 -1.78381763 22.02203709 1.12109375 13.84375 C1.92928508 11.22880206 2.21836867 9.33269153 2.125 6.625 C2.08375 5.42875 2.0425 4.2325 2 3 C1.34 2.67 0.68 2.34 0 2 C0 1.34 0 0.68 0 0 Z " fill="#EDEEF0" transform="translate(171,77)"/>
<path d="M0 0 C0 0.99 0 1.98 0 3 C-2 4.6875 -2 4.6875 -4 6 C-2.84826645 3.53199953 -1.95216435 1.95216435 0 0 Z M-6 6 C-5.34 6 -4.68 6 -4 6 C-5.13021555 8.67141857 -6.31835327 10.34416569 -8.3125 12.5 C-13.15683075 18.19497216 -16.3125 25.75906045 -16.3125 33.25 C-16.209375 34.4875 -16.10625 35.725 -16 37 C-16.66 37 -17.32 37 -18 37 C-19.63849944 28.95645727 -18.44069318 22.93001412 -14.0859375 15.91796875 C-12.14628599 13.17071688 -10.24376814 10.50577928 -8 8 C-7.34 8 -6.68 8 -6 8 C-6 7.34 -6 6.68 -6 6 Z " fill="#E7E8EA" transform="translate(214,42)"/>
<path d="M0 0 C-0.31008884 1.60463449 -0.62316287 3.20869231 -0.9375 4.8125 C-1.11152344 5.70582031 -1.28554688 6.59914063 -1.46484375 7.51953125 C-2 10 -2 10 -3 13 C-3.068991 15.06145107 -3.08467727 17.12501401 -3.0625 19.1875 C-3.05347656 20.27417969 -3.04445313 21.36085937 -3.03515625 22.48046875 C-3.02355469 23.31191406 -3.01195312 24.14335937 -3 25 C-3.33 25 -3.66 25 -4 25 C-4.79725902 17.63959083 -5.12886183 10.40239645 -5 3 C-6.65 3 -8.3 3 -10 3 C-9.67 2.34 -9.34 1.68 -9 1 C-5.93090555 0.33280556 -3.14213983 0 0 0 Z " fill="#E4E5E7" transform="translate(295,115)"/>
<path d="M0 0 C0.33 0 0.66 0 1 0 C1.02505615 0.68626465 1.0501123 1.3725293 1.07592773 2.07958984 C1.19171427 5.17825817 1.31451885 8.27660923 1.4375 11.375 C1.47681641 12.45523438 1.51613281 13.53546875 1.55664062 14.6484375 C1.59853516 15.6796875 1.64042969 16.7109375 1.68359375 17.7734375 C1.72025146 18.72653809 1.75690918 19.67963867 1.79467773 20.66162109 C1.85763465 23.02132349 1.85763465 23.02132349 3 25 C2.94921875 27.12890625 2.94921875 27.12890625 2.6875 29.5625 C2.60886719 30.36816406 2.53023437 31.17382812 2.44921875 32.00390625 C2.30097656 32.66261719 2.15273437 33.32132813 2 34 C1.01 34.495 1.01 34.495 0 35 C0 23.45 0 11.9 0 0 Z " fill="#F2F3F5" transform="translate(210,192)"/>
<path d="M0 0 C0.99 0 1.98 0 3 0 C3.02725341 1.7290774 3.04650987 3.45828176 3.0625 5.1875 C3.07410156 6.15042969 3.08570313 7.11335937 3.09765625 8.10546875 C3.00486622 10.85576513 2.62111685 13.32479591 2 16 C-0.14336161 12.5233662 -0.21277626 9.78770805 -0.125 5.75 C-0.10695313 4.67234375 -0.08890625 3.5946875 -0.0703125 2.484375 C-0.04710937 1.66453125 -0.02390625 0.8446875 0 0 Z " fill="#E8E9EB" transform="translate(292,144)"/>
<path d="M0 0 C2.18994248 3.28491373 2.35277339 4.83095639 2.625 8.6875 C2.69976562 9.68136719 2.77453125 10.67523438 2.8515625 11.69921875 C2.92503906 12.83810547 2.92503906 12.83810547 3 14 C2.01 14 1.02 14 0 14 C0 9.38 0 4.76 0 0 Z " fill="#F2F3F5" transform="translate(240,101)"/>
<path d="M0 0 C-1.65168612 1.99996498 -2.52102077 2.91796488 -5.12109375 3.36328125 C-5.88550781 3.34652344 -6.64992188 3.32976562 -7.4375 3.3125 C-8.19933594 3.30863281 -8.96117187 3.30476562 -9.74609375 3.30078125 C-12.19529127 2.9739386 -13.86700917 2.21954601 -16 1 C-10.63904667 -0.12862175 -5.44693314 -0.09688221 0 0 Z " fill="#DEDFE1" transform="translate(280,229)"/>
<path d="M0 0 C-0.66 0.66 -1.32 1.32 -2 2 C-4.59269983 1.98252112 -7.0525154 1.86231408 -9.625 1.625 C-10.33140625 1.56828125 -11.0378125 1.5115625 -11.765625 1.453125 C-13.51121361 1.31159079 -15.25573673 1.15702613 -17 1 C-17 0.67 -17 0.34 -17 0 C-14.72979256 -0.19493195 -12.45879711 -0.38070418 -10.1875 -0.5625 C-8.92292969 -0.66691406 -7.65835938 -0.77132812 -6.35546875 -0.87890625 C-3 -1 -3 -1 0 0 Z " fill="#DFE0E2" transform="translate(233,120)"/>
<path d="M0 0 C0.66 0.33 1.32 0.66 2 1 C2.40729228 3.32156597 2.74438677 5.6568787 3 8 C1.68 8 0.36 8 -1 8 C-1.04241723 5.66705225 -1.04092937 3.33297433 -1 1 C-0.67 0.67 -0.34 0.34 0 0 Z " fill="#C7C8CA" transform="translate(206,232)"/>
</svg>
