<?xml version="1.0" standalone="no"?>
<!DOCTYPE svg PUBLIC "-//W3C//DTD SVG 20010904//EN"
 "http://www.w3.org/TR/2001/REC-SVG-20010904/DTD/svg10.dtd">
<svg version="1.0" xmlns="http://www.w3.org/2000/svg"
 width="375.000000pt" height="360.000000pt" viewBox="0 0 375.000000 360.000000"
 preserveAspectRatio="xMidYMid meet">

<g transform="translate(0.000000,360.000000) scale(0.100000,-0.100000)"
fill="#000000" stroke="none">
<path d="M0 1859 l0 -1740 47 6 c27 3 63 8 81 11 20 3 32 1 32 -7 0 -7 9 -9
26 -5 14 4 73 13 131 21 79 10 112 11 130 2 19 -8 26 -8 33 2 6 10 27 13 84 9
49 -3 77 -1 80 6 11 26 4 -34 -9 -84 -22 -81 -22 -80 39 -80 l54 0 25 73 c14
39 29 83 33 96 4 16 9 20 14 12 5 -9 34 -11 104 -7 54 3 102 9 108 12 14 9 2
-75 -17 -113 -34 -72 -33 -73 39 -73 l66 0 0 35 c0 41 43 178 48 152 2 -9 8
-15 13 -12 5 4 9 0 9 -7 0 -10 2 -11 8 0 7 10 155 13 725 15 l715 2 53 -92 52
-93 64 0 63 0 -40 83 c-22 45 -46 91 -52 102 -9 17 -9 18 3 9 8 -6 28 -11 44
-12 36 -3 55 -24 98 -114 l32 -68 68 0 c37 0 67 4 67 9 0 8 -21 41 -69 108
-11 16 -22 38 -26 51 -6 20 -4 22 30 17 32 -4 488 -8 678 -6 l67 1 0 1710 0
1710 -1370 0 -1370 0 46 -67 c25 -37 59 -94 74 -128 76 -162 100 -219 96 -222
-2 -2 -16 22 -31 54 -15 32 -49 94 -75 138 -26 44 -67 113 -89 153 -30 51 -48
72 -62 72 -17 0 -9 -20 57 -152 42 -84 71 -148 66 -143 -6 6 -36 60 -67 120
-32 61 -67 125 -79 142 l-21 33 -462 0 -463 0 0 -1741z m1119 1401 c11 -24 11
-24 -3 -6 -9 11 -16 24 -16 30 0 12 5 7 19 -24z m140 -160 c0 -13 -1 -13 -8 0
-5 8 -12 26 -15 40 l-7 25 15 -25 c9 -14 15 -32 15 -40z m1401 -959 c34 -8 34
-8 -20 -14 -30 -3 -125 -11 -210 -17 -85 -6 -213 -17 -285 -24 -229 -25 -386
-31 -396 -15 -20 31 -37 28 291 59 118 11 231 22 250 24 51 6 329 -4 370 -13z
m-35 -42 c-44 -5 -250 -31 -458 -57 -208 -27 -374 -46 -370 -42 4 4 172 28
373 54 201 26 372 49 380 50 8 2 47 4 85 4 l70 -1 -80 -8z m-1011 -15 c27 -10
19 -39 -11 -42 -16 -1 -68 -6 -118 -12 -49 -6 -105 -12 -122 -14 -95 -10 41
50 142 64 83 11 91 11 109 4z m19 -111 c-7 -2 -21 -2 -30 0 -10 3 -4 5 12 5
17 0 24 -2 18 -5z m-86 -9 c-3 -3 -12 -4 -19 -1 -8 3 -5 6 6 6 11 1 17 -2 13
-5z"/>
</g>
</svg>
