<?xml version="1.0" standalone="no"?>
<!DOCTYPE svg PUBLIC "-//W3C//DTD SVG 20010904//EN"
 "http://www.w3.org/TR/2001/REC-SVG-20010904/DTD/svg10.dtd">
<svg version="1.0" xmlns="http://www.w3.org/2000/svg"
 width="375.000000pt" height="360.000000pt" viewBox="0 0 375.000000 360.000000"
 preserveAspectRatio="xMidYMid meet">

<g transform="translate(0.000000,360.000000) scale(0.100000,-0.100000)"
fill="#000000" stroke="none">
<path d="M0 1965 l0 -1635 21 0 c11 0 17 4 14 10 -3 5 3 10 14 10 28 0 52 11
46 20 -6 10 40 15 258 31 87 6 161 9 164 6 7 -8 -35 -284 -47 -307 -5 -9 -6
-20 -3 -24 3 -3 1 -6 -5 -6 -7 0 -12 7 -12 15 0 12 -18 15 -100 15 -96 0 -171
-16 -170 -37 0 -4 21 -20 46 -36 l45 -27 207 0 c137 0 202 4 192 10 -8 5 -25
10 -38 10 -13 0 -30 7 -39 16 -9 8 -22 13 -29 10 -8 -3 -14 1 -14 9 0 8 -4 15
-9 15 -5 0 -7 -9 -4 -20 3 -11 0 -20 -6 -20 -6 0 -11 18 -11 43 0 51 40 329
49 339 4 4 49 10 101 13 52 3 145 9 205 14 61 4 113 6 118 4 4 -2 7 -103 7
-224 l0 -220 222 2 c208 1 219 2 189 16 -28 14 -51 15 -184 4 -84 -6 -160 -11
-169 -11 -17 0 -18 17 -18 220 0 214 1 220 20 220 11 0 23 7 26 15 6 14 8 14
18 0 10 -14 13 -14 31 0 11 9 14 14 8 10 -24 -12 -35 6 -14 22 12 8 21 25 21
39 0 16 6 24 18 24 14 1 13 4 -7 21 -14 11 -31 17 -42 14 -24 -8 -25 13 -1 31
15 12 14 13 -10 14 -26 0 -28 3 -28 40 0 22 -4 40 -10 40 -5 0 -10 18 -10 40
0 23 -5 40 -11 40 -16 0 -6 156 11 193 12 24 19 27 59 27 25 0 73 -4 106 -10
35 -5 134 -6 240 -1 l180 8 -140 2 c-207 3 -331 16 -400 41 -33 12 -114 40
-180 61 -209 70 -205 68 -222 108 -17 40 -16 86 11 416 9 105 20 243 24 309
12 158 7 154 222 176 52 5 167 12 255 15 216 8 225 10 225 42 0 21 2 24 15 13
8 -7 15 -18 15 -26 0 -14 66 -31 78 -19 4 4 7 26 7 50 1 51 8 63 30 45 13 -10
15 -9 15 9 0 20 5 21 73 20 39 0 97 -4 127 -8 52 -8 56 -7 81 20 15 16 35 29
44 29 9 0 30 14 47 30 30 30 30 30 149 30 81 0 119 -4 119 -11 0 -8 22 -9 74
-4 63 5 82 3 120 -14 33 -14 46 -26 46 -40 0 -18 6 -21 40 -21 29 0 40 4 40
15 0 8 5 15 11 15 6 0 17 -7 25 -15 20 -19 44 -19 44 0 0 9 17 -2 42 -27 24
-24 47 -43 53 -44 5 0 16 -2 23 -2 7 -1 10 -6 7 -12 -3 -5 1 -10 10 -10 9 0
13 4 10 10 -6 11 42 26 52 16 4 -3 -3 -6 -15 -6 -12 0 -22 -4 -22 -9 0 -6 48
-8 123 -4 67 3 226 6 353 7 l230 1 36 -27 c20 -16 41 -44 51 -70 36 -98 136
-467 140 -520 1 -10 5 -18 9 -18 4 0 8 452 8 1005 l0 1005 -1875 0 -1875 0 0
-1635z m847 -881 c-3 -3 -12 -4 -19 -1 -8 3 -5 6 6 6 11 1 17 -2 13 -5z m128
-19 c48 -18 48 -18 40 -5 -8 13 5 13 25 0 13 -8 12 -10 -2 -10 -10 0 -18 -4
-18 -9 0 -6 -16 -3 -35 5 -21 8 -35 10 -35 4 0 -5 5 -10 10 -10 6 0 10 -9 10
-20 0 -11 4 -20 10 -20 5 0 7 7 4 15 -4 10 0 15 11 15 14 0 16 -6 11 -31 -3
-17 -7 -122 -8 -233 -2 -134 -3 -162 -5 -83 -3 95 -6 117 -18 117 -8 0 -15 -9
-15 -21 0 -11 5 -17 10 -14 6 4 10 -5 10 -19 0 -14 -4 -26 -10 -26 -5 0 -10 5
-10 11 0 6 -13 24 -30 41 -28 28 -30 34 -30 108 0 54 -4 80 -12 83 -8 2 0 16
22 37 l34 32 -34 20 c-32 18 -28 18 18 2 14 -5 13 -4 -3 9 -26 21 -5 22 50 2z
m65 -66 c0 -5 -4 -9 -10 -9 -5 0 -10 7 -10 16 0 8 5 12 10 9 6 -3 10 -10 10
-16z"/>
<path d="M2618 2233 c7 -3 16 -2 19 1 4 3 -2 6 -13 5 -11 0 -14 -3 -6 -6z"/>
<path d="M2720 2210 c0 -6 7 -10 15 -10 8 0 15 2 15 4 0 2 -7 6 -15 10 -8 3
-15 1 -15 -4z"/>
<path d="M1760 2176 c0 -17 -4 -18 -65 -18 l-40 1 35 -10 c19 -5 55 -12 80
-14 39 -4 43 -3 28 9 -10 7 -15 15 -13 18 3 3 -1 11 -10 18 -12 10 -15 10 -15
-4z"/>
<path d="M1751 2117 c2 -1 13 -9 24 -17 19 -14 19 -14 6 3 -7 9 -18 17 -24 17
-6 0 -8 -1 -6 -3z"/>
<path d="M2310 1763 c0 -88 -29 -606 -36 -640 -2 -13 -8 -22 -12 -22 -4 1 -15
1 -24 0 -24 -1 -23 -21 0 -21 10 0 23 -5 29 -11 12 -12 17 17 33 185 13 139
25 586 17 586 -4 0 -7 -35 -7 -77z"/>
<path d="M3527 1642 c1 -26 -1 -37 -3 -24 -3 12 -11 22 -17 22 -17 -1 -67 -47
-67 -62 -1 -18 -90 -58 -128 -58 -18 0 -32 -4 -32 -9 0 -5 -18 -12 -40 -16
-22 -4 -40 -10 -40 -15 0 -11 -54 -30 -115 -40 -85 -14 -246 -59 -271 -75 -13
-8 -39 -15 -59 -15 -28 0 -35 -4 -35 -19 0 -12 -9 -21 -25 -25 -14 -4 -25 -11
-25 -16 0 -6 -25 -10 -55 -10 -48 0 -55 -2 -55 -20 0 -17 7 -20 44 -20 39 0
44 -2 39 -20 -3 -11 -13 -20 -22 -21 -12 0 -11 -2 4 -9 l20 -9 -20 -1 c-11 0
-31 -7 -45 -15 l-25 -13 25 -6 c14 -2 49 -10 79 -17 36 -8 102 -10 205 -5 295
12 512 27 597 42 48 8 101 14 118 14 17 0 31 4 31 9 0 5 11 8 25 6 20 -2 25 2
25 19 0 22 -61 265 -84 331 -7 22 -19 60 -26 85 -19 63 -25 67 -23 12z"/>
<path d="M3600 1549 c0 -16 4 -18 28 -12 15 4 39 7 54 6 15 -1 30 2 33 7 3 5
13 6 23 3 9 -3 14 -2 9 2 -4 5 -39 10 -77 11 -64 3 -70 1 -70 -17z"/>
<path d="M3714 1113 c32 -59 36 -60 36 -15 0 38 -2 42 -25 42 -25 0 -25 -1
-11 -27z"/>
<path d="M2145 1080 c-14 -7 -8 -8 20 -3 22 3 42 7 44 9 9 8 -45 2 -64 -6z"/>
<path d="M2031 1063 c-20 -3 -30 -8 -23 -12 9 -5 8 -64 -3 -241 -33 -548 -35
-616 -24 -651 7 -19 16 -38 20 -44 13 -14 11 -23 -7 -27 -10 -2 9 -15 45 -32
33 -16 61 -36 61 -43 0 -9 19 -12 70 -11 38 0 67 4 65 8 -2 3 -22 15 -45 25
-22 10 -40 23 -40 29 0 11 61 358 103 593 14 73 30 140 37 148 25 30 37 16 44
-52 4 -38 14 -117 23 -178 15 -102 15 -119 -2 -240 -15 -119 -16 -134 -1 -168
8 -21 13 -44 9 -53 -4 -10 4 -18 26 -27 22 -8 31 -18 31 -33 0 -32 10 -54 25
-54 9 0 12 9 9 25 -5 31 1 31 51 0 25 -15 55 -24 80 -24 l40 -1 -88 51 c-58
34 -89 58 -92 72 -3 12 -14 96 -25 186 -15 122 -17 174 -10 201 6 21 19 97 30
171 12 73 22 135 24 137 2 2 41 -4 87 -12 46 -8 109 -17 141 -21 58 -6 79 -24
53 -45 -17 -14 -39 -104 -32 -133 5 -18 11 -437 8 -514 -1 -19 -5 -21 -43 -16
-32 3 -39 2 -28 -6 8 -6 27 -11 42 -11 21 0 28 -6 33 -30 5 -23 12 -30 31 -30
18 0 24 5 22 18 -3 14 6 17 55 20 52 3 57 1 57 -18 0 -13 7 -20 20 -20 11 0
20 7 20 15 0 19 17 19 50 0 20 -11 83 -14 321 -15 258 0 298 2 303 15 3 9 0
17 -7 20 -76 24 -88 25 -104 17 -10 -5 -43 -10 -73 -10 l-55 0 70 18 c39 11
81 19 94 19 24 1 24 1 5 16 -10 8 -36 15 -56 15 -28 0 -38 4 -38 16 0 15 -11
16 -92 10 -219 -17 -305 -21 -328 -16 -19 4 -13 6 25 11 39 5 32 7 -35 6 l-85
-2 -6 105 c-4 58 -7 189 -8 291 l-1 186 48 -7 c90 -15 398 -15 579 -1 148 11
185 12 198 1 13 -10 15 -9 15 9 0 21 -2 21 -97 14 -54 -5 -237 -8 -408 -7
l-310 0 -90 32 c-49 18 -179 59 -288 92 -109 33 -207 64 -216 70 -21 11 -51
69 -51 98 0 12 -5 24 -10 27 -14 9 -4 -36 21 -94 27 -61 24 -74 -18 -102 -44
-28 -55 -56 -77 -194 -9 -55 -32 -201 -52 -325 -19 -124 -38 -233 -40 -242 -5
-15 -8 -15 -45 2 -74 32 -72 28 -61 211 6 90 18 288 27 439 9 151 18 285 21
297 3 14 13 23 32 26 24 4 25 4 2 4 -14 0 -40 -2 -59 -4z m346 -179 c-3 -3
-12 -4 -19 -1 -8 3 -5 6 6 6 11 1 17 -2 13 -5z m32 -53 c11 -7 11 -23 1 -96
-7 -48 -16 -99 -20 -114 l-8 -26 -2 25 c-1 14 -7 67 -14 118 -6 51 -10 95 -7
97 7 8 35 5 50 -4z m456 -110 c11 -19 23 -575 13 -589 -6 -6 -26 -12 -44 -12
-35 0 -46 -13 -18 -24 8 -3 13 -10 9 -15 -3 -5 5 -12 17 -14 13 -2 5 -5 -18
-6 -30 -1 -44 4 -48 15 -4 9 -8 141 -11 293 -5 303 0 340 45 352 37 10 48 10
55 0z m-460 -533 c7 -61 0 -71 -29 -39 -14 15 -15 26 -7 62 6 24 11 60 12 79
l1 35 8 -40 c4 -22 11 -66 15 -97z m1125 -158 c0 -5 -9 -10 -21 -10 -11 0 -17
5 -14 10 3 6 13 10 21 10 8 0 14 -4 14 -10z"/>
<path d="M1933 1043 c9 -2 23 -2 30 0 6 3 -1 5 -18 5 -16 0 -22 -2 -12 -5z"/>
<path d="M1838 1033 c12 -2 30 -2 40 0 9 3 -1 5 -23 4 -22 0 -30 -2 -17 -4z"/>
<path d="M1708 1023 c17 -2 47 -2 65 0 17 2 3 4 -33 4 -36 0 -50 -2 -32 -4z"/>
<path d="M3140 680 c-21 -7 -21 -8 -5 -9 11 0 27 4 35 9 18 11 5 11 -30 0z"/>
<path d="M3736 485 c-4 -49 -16 -172 -27 -273 -23 -223 -23 -212 0 -212 28 0
32 29 38 290 6 257 2 336 -11 195z"/>
<path d="M1808 523 c6 -2 18 -2 25 0 6 3 1 5 -13 5 -14 0 -19 -2 -12 -5z"/>
<path d="M1390 490 l-55 -7 68 -1 c43 -1 66 2 62 8 -3 6 -9 9 -13 8 -4 -1 -32
-4 -62 -8z"/>
<path d="M1520 490 c0 -6 11 -8 28 -4 39 10 40 14 4 14 -18 0 -32 -5 -32 -10z"/>
<path d="M1243 473 c15 -2 37 -2 50 0 12 2 0 4 -28 4 -27 0 -38 -2 -22 -4z"/>
<path d="M118 363 c7 -3 16 -2 19 1 4 3 -2 6 -13 5 -11 0 -14 -3 -6 -6z"/>
</g>
</svg>
